<svg xmlns="http://www.w3.org/2000/svg" xmlns:xlink="http://www.w3.org/1999/xlink" width="150" zoomAndPan="magnify" viewBox="0 0 112.5 112.499997" height="150" preserveAspectRatio="xMidYMid meet" version="1.0"><defs><filter x="0%" y="0%" width="100%" height="100%" id="44d8dfa49b"><feColorMatrix values="0 0 0 0 1 0 0 0 0 1 0 0 0 0 1 0 0 0 1 0" color-interpolation-filters="sRGB"/></filter><g/><clipPath id="53d96960a1"><path d="M 0 2 L 112.003906 2 L 112.003906 109 L 0 109 Z M 0 2 " clip-rule="nonzero"/></clipPath><mask id="6213fbe983"><g filter="url(#44d8dfa49b)"><rect x="-11.25" width="135" fill="#000000" y="-11.25" height="134.999996" fill-opacity="0.08"/></g></mask><clipPath id="6f36384c5e"><path d="M 94 95 L 112 95 L 112 105.429688 L 94 105.429688 Z M 94 95 " clip-rule="nonzero"/></clipPath><clipPath id="c23a19349c"><path d="M 47 95 L 65 95 L 65 105.429688 L 47 105.429688 Z M 47 95 " clip-rule="nonzero"/></clipPath><clipPath id="dba27b5de8"><path d="M 0 95 L 18 95 L 18 105.429688 L 0 105.429688 Z M 0 95 " clip-rule="nonzero"/></clipPath><clipPath id="2af2e8a30d"><path d="M 94 0.894531 L 112 0.894531 L 112 12 L 94 12 Z M 94 0.894531 " clip-rule="nonzero"/></clipPath><clipPath id="efd90f2663"><path d="M 47 0.894531 L 65 0.894531 L 65 12 L 47 12 Z M 47 0.894531 " clip-rule="nonzero"/></clipPath><clipPath id="64d7c5e196"><path d="M 0 0.894531 L 18 0.894531 L 18 12 L 0 12 Z M 0 0.894531 " clip-rule="nonzero"/></clipPath><clipPath id="2176d1f1ef"><rect x="0" width="113" y="0" height="107"/></clipPath><mask id="93d79c39f4"><g filter="url(#44d8dfa49b)"><rect x="-11.25" width="135" fill="#000000" y="-11.25" height="134.999996" fill-opacity="0.08"/></g></mask><clipPath id="9e26faa6f4"><path d="M 0.0703125 4 L 1.980469 4 L 1.980469 6 L 0.0703125 6 Z M 0.0703125 4 " clip-rule="nonzero"/></clipPath><clipPath id="b83024ea8d"><rect x="0" width="2" y="0" height="7"/></clipPath></defs><g clip-path="url(#53d96960a1)"><g mask="url(#6213fbe983)"><g transform="matrix(1, 0, 0, 1, 0, 2)"><g clip-path="url(#2176d1f1ef)"><path fill="#1a181a" d="M 71.601562 26.742188 L 80.164062 28.777344 C 80.289062 28.808594 80.394531 28.910156 80.425781 29.039062 L 82.464844 37.585938 C 82.503906 37.75 82.4375 37.894531 82.292969 37.976562 C 82.144531 38.058594 81.988281 38.039062 81.867188 37.917969 L 71.265625 27.335938 C 71.148438 27.21875 71.125 27.058594 71.207031 26.914062 C 71.289062 26.765625 71.4375 26.703125 71.601562 26.742188 Z M 70.746094 27.855469 L 81.347656 38.4375 C 81.695312 38.785156 82.21875 38.859375 82.652344 38.617188 C 83.082031 38.378906 83.292969 37.894531 83.179688 37.417969 L 81.140625 28.871094 C 81.128906 28.824219 81.117188 28.78125 81.097656 28.730469 C 81.074219 28.667969 81.089844 28.59375 81.136719 28.546875 L 81.644531 28.042969 C 81.785156 27.898438 81.785156 27.664062 81.644531 27.523438 C 81.351562 27.234375 81.351562 26.761719 81.644531 26.472656 C 81.933594 26.183594 82.402344 26.183594 82.691406 26.472656 C 82.984375 26.761719 82.984375 27.234375 82.691406 27.523438 C 82.550781 27.664062 82.550781 27.898438 82.691406 28.042969 C 82.835938 28.183594 83.070312 28.183594 83.214844 28.042969 C 83.789062 27.464844 83.789062 26.53125 83.214844 25.953125 C 82.636719 25.378906 81.699219 25.378906 81.121094 25.953125 C 80.679688 26.398438 80.566406 27.074219 80.839844 27.640625 C 80.871094 27.707031 80.859375 27.785156 80.804688 27.839844 L 80.597656 28.046875 C 80.550781 28.09375 80.480469 28.109375 80.417969 28.089844 L 80.390625 28.082031 C 80.371094 28.074219 80.351562 28.066406 80.332031 28.0625 L 71.769531 26.027344 C 71.289062 25.914062 70.808594 26.125 70.566406 26.554688 C 70.324219 26.984375 70.398438 27.507812 70.746094 27.855469 " fill-opacity="1" fill-rule="nonzero"/><path fill="#1a181a" d="M 82.464844 68.730469 L 80.425781 77.277344 C 80.394531 77.402344 80.289062 77.507812 80.164062 77.539062 L 71.601562 79.574219 C 71.4375 79.613281 71.289062 79.546875 71.207031 79.402344 C 71.125 79.257812 71.148438 79.097656 71.265625 78.980469 L 81.867188 68.398438 C 81.988281 68.277344 82.144531 68.257812 82.292969 68.335938 C 82.4375 68.421875 82.503906 68.566406 82.464844 68.730469 Z M 81.347656 67.878906 L 70.746094 78.460938 C 70.398438 78.808594 70.324219 79.332031 70.566406 79.761719 C 70.808594 80.191406 71.289062 80.402344 71.769531 80.289062 L 80.332031 78.253906 C 80.375 78.242188 80.421875 78.226562 80.472656 78.210938 C 80.535156 78.183594 80.609375 78.199219 80.65625 78.25 L 81.164062 78.753906 C 81.304688 78.898438 81.539062 78.898438 81.683594 78.753906 C 81.972656 78.464844 82.445312 78.464844 82.734375 78.753906 C 83.023438 79.042969 83.023438 79.511719 82.734375 79.800781 C 82.445312 80.089844 81.972656 80.089844 81.683594 79.800781 C 81.539062 79.660156 81.304688 79.660156 81.164062 79.800781 C 81.019531 79.945312 81.019531 80.179688 81.164062 80.320312 C 81.738281 80.898438 82.675781 80.898438 83.253906 80.320312 C 83.828125 79.746094 83.828125 78.808594 83.253906 78.234375 C 82.808594 77.792969 82.132812 77.679688 81.566406 77.953125 C 81.496094 77.984375 81.417969 77.96875 81.363281 77.917969 L 81.15625 77.710938 C 81.109375 77.664062 81.09375 77.59375 81.113281 77.53125 L 81.121094 77.503906 C 81.128906 77.484375 81.136719 77.464844 81.140625 77.445312 L 83.179688 68.898438 C 83.292969 68.421875 83.082031 67.9375 82.652344 67.695312 C 82.21875 67.457031 81.695312 67.527344 81.347656 67.878906 " fill-opacity="1" fill-rule="nonzero"/><path fill="#1a181a" d="M 40.402344 79.574219 L 31.839844 77.539062 C 31.710938 77.507812 31.609375 77.402344 31.578125 77.277344 L 29.539062 68.730469 C 29.5 68.566406 29.5625 68.417969 29.710938 68.335938 C 29.855469 68.257812 30.015625 68.277344 30.132812 68.394531 L 40.734375 78.980469 C 40.855469 79.097656 40.875 79.253906 40.792969 79.402344 C 40.710938 79.546875 40.566406 79.613281 40.402344 79.574219 Z M 41.253906 78.460938 L 30.652344 67.878906 C 30.304688 67.527344 29.78125 67.457031 29.351562 67.695312 C 28.921875 67.9375 28.707031 68.421875 28.820312 68.898438 L 30.863281 77.445312 C 30.871094 77.488281 30.886719 77.535156 30.90625 77.582031 C 30.929688 77.648438 30.914062 77.722656 30.863281 77.769531 L 30.359375 78.273438 C 30.214844 78.417969 30.214844 78.652344 30.359375 78.792969 C 30.648438 79.082031 30.648438 79.554688 30.359375 79.839844 C 30.070312 80.128906 29.597656 80.128906 29.308594 79.839844 C 29.019531 79.554688 29.019531 79.082031 29.308594 78.792969 C 29.453125 78.652344 29.453125 78.417969 29.308594 78.273438 C 29.164062 78.132812 28.933594 78.132812 28.789062 78.273438 C 28.210938 78.847656 28.210938 79.785156 28.789062 80.359375 C 29.363281 80.9375 30.304688 80.9375 30.878906 80.359375 C 31.324219 79.917969 31.4375 79.242188 31.164062 78.675781 C 31.132812 78.609375 31.144531 78.527344 31.195312 78.476562 L 31.40625 78.269531 C 31.453125 78.222656 31.519531 78.203125 31.582031 78.226562 L 31.613281 78.234375 C 31.628906 78.242188 31.648438 78.246094 31.667969 78.253906 L 40.230469 80.289062 C 40.710938 80.402344 41.195312 80.191406 41.4375 79.761719 C 41.675781 79.332031 41.605469 78.808594 41.253906 78.460938 " fill-opacity="1" fill-rule="nonzero"/><path fill="#1a181a" d="M 29.539062 37.585938 L 31.578125 29.039062 C 31.609375 28.910156 31.710938 28.808594 31.839844 28.777344 L 40.402344 26.742188 C 40.566406 26.703125 40.710938 26.765625 40.792969 26.914062 C 40.875 27.058594 40.855469 27.21875 40.734375 27.335938 L 30.132812 37.917969 C 30.015625 38.039062 29.855469 38.058594 29.710938 37.976562 C 29.5625 37.894531 29.5 37.75 29.539062 37.585938 Z M 30.652344 38.4375 L 41.253906 27.855469 C 41.605469 27.507812 41.675781 26.984375 41.4375 26.554688 C 41.195312 26.125 40.710938 25.914062 40.230469 26.027344 L 31.667969 28.0625 C 31.625 28.074219 31.582031 28.085938 31.53125 28.105469 C 31.46875 28.128906 31.394531 28.113281 31.34375 28.066406 L 30.839844 27.5625 C 30.695312 27.417969 30.464844 27.417969 30.320312 27.5625 C 30.03125 27.851562 29.558594 27.851562 29.269531 27.5625 C 28.980469 27.273438 28.980469 26.800781 29.269531 26.511719 C 29.558594 26.222656 30.03125 26.222656 30.320312 26.511719 C 30.464844 26.65625 30.695312 26.65625 30.839844 26.511719 C 30.984375 26.371094 30.984375 26.136719 30.839844 25.992188 C 30.261719 25.417969 29.324219 25.417969 28.75 25.992188 C 28.171875 26.570312 28.171875 27.503906 28.75 28.082031 C 29.191406 28.523438 29.871094 28.636719 30.4375 28.363281 C 30.503906 28.332031 30.585938 28.347656 30.636719 28.398438 L 30.847656 28.605469 C 30.890625 28.652344 30.910156 28.722656 30.886719 28.785156 L 30.878906 28.8125 C 30.871094 28.832031 30.867188 28.851562 30.859375 28.871094 L 28.820312 37.417969 C 28.707031 37.894531 28.921875 38.378906 29.351562 38.617188 C 29.78125 38.859375 30.304688 38.785156 30.652344 38.4375 " fill-opacity="1" fill-rule="nonzero"/><g clip-path="url(#6f36384c5e)"><path fill="#1a181a" d="M 95.597656 104.035156 L 103.09375 99.429688 C 103.207031 99.359375 103.355469 99.359375 103.464844 99.429688 L 110.960938 104.035156 C 111.105469 104.121094 111.164062 104.269531 111.117188 104.433594 C 111.070312 104.59375 110.945312 104.691406 110.777344 104.691406 L 95.785156 104.691406 C 95.617188 104.691406 95.488281 104.59375 95.441406 104.433594 C 95.398438 104.269531 95.453125 104.121094 95.597656 104.035156 Z M 95.785156 105.425781 L 110.777344 105.425781 C 111.269531 105.425781 111.691406 105.105469 111.824219 104.632812 C 111.960938 104.160156 111.765625 103.667969 111.347656 103.410156 L 103.851562 98.804688 C 103.8125 98.78125 103.769531 98.757812 103.722656 98.738281 C 103.660156 98.710938 103.617188 98.648438 103.617188 98.578125 L 103.617188 97.863281 C 103.617188 97.660156 103.453125 97.496094 103.25 97.496094 C 102.84375 97.496094 102.507812 97.164062 102.507812 96.753906 C 102.507812 96.347656 102.84375 96.015625 103.25 96.015625 C 103.660156 96.015625 103.996094 96.347656 103.996094 96.753906 C 103.996094 96.957031 104.160156 97.121094 104.363281 97.121094 C 104.566406 97.121094 104.730469 96.957031 104.730469 96.753906 C 104.730469 95.941406 104.066406 95.28125 103.25 95.28125 C 102.4375 95.28125 101.773438 95.941406 101.773438 96.753906 C 101.773438 97.382812 102.171875 97.941406 102.765625 98.148438 C 102.835938 98.171875 102.882812 98.238281 102.882812 98.3125 L 102.882812 98.605469 C 102.882812 98.671875 102.847656 98.734375 102.789062 98.761719 L 102.761719 98.777344 C 102.742188 98.785156 102.726562 98.792969 102.707031 98.804688 L 95.210938 103.410156 C 94.792969 103.667969 94.601562 104.160156 94.734375 104.632812 C 94.867188 105.105469 95.289062 105.425781 95.785156 105.425781 " fill-opacity="1" fill-rule="nonzero"/></g><g clip-path="url(#c23a19349c)"><path fill="#1a181a" d="M 48.320312 104.035156 L 55.816406 99.429688 C 55.925781 99.359375 56.074219 99.359375 56.1875 99.429688 L 63.683594 104.035156 C 63.824219 104.121094 63.882812 104.269531 63.839844 104.433594 C 63.792969 104.59375 63.664062 104.691406 63.496094 104.691406 L 48.503906 104.691406 C 48.335938 104.691406 48.210938 104.59375 48.164062 104.433594 C 48.117188 104.269531 48.175781 104.121094 48.320312 104.035156 Z M 48.503906 105.425781 L 63.496094 105.425781 C 63.992188 105.425781 64.414062 105.105469 64.546875 104.632812 C 64.679688 104.160156 64.488281 103.667969 64.070312 103.410156 L 56.574219 98.804688 C 56.535156 98.78125 56.492188 98.757812 56.445312 98.738281 C 56.382812 98.710938 56.339844 98.648438 56.339844 98.578125 L 56.339844 97.863281 C 56.339844 97.660156 56.175781 97.496094 55.972656 97.496094 C 55.5625 97.496094 55.230469 97.164062 55.230469 96.753906 C 55.230469 96.347656 55.5625 96.015625 55.972656 96.015625 C 56.382812 96.015625 56.714844 96.347656 56.714844 96.753906 C 56.714844 96.957031 56.878906 97.121094 57.082031 97.121094 C 57.285156 97.121094 57.453125 96.957031 57.453125 96.753906 C 57.453125 95.941406 56.789062 95.28125 55.972656 95.28125 C 55.15625 95.28125 54.496094 95.941406 54.496094 96.753906 C 54.496094 97.382812 54.894531 97.941406 55.488281 98.148438 C 55.558594 98.171875 55.605469 98.238281 55.605469 98.3125 L 55.605469 98.605469 C 55.605469 98.671875 55.566406 98.734375 55.507812 98.761719 L 55.484375 98.777344 C 55.464844 98.785156 55.445312 98.792969 55.429688 98.804688 L 47.933594 103.410156 C 47.511719 103.667969 47.320312 104.160156 47.457031 104.632812 C 47.589844 105.105469 48.011719 105.425781 48.503906 105.425781 " fill-opacity="1" fill-rule="nonzero"/></g><g clip-path="url(#dba27b5de8)"><path fill="#1a181a" d="M 1.039062 104.035156 L 8.535156 99.429688 C 8.648438 99.359375 8.796875 99.359375 8.910156 99.429688 L 16.40625 104.035156 C 16.546875 104.121094 16.605469 104.269531 16.558594 104.433594 C 16.515625 104.59375 16.386719 104.691406 16.21875 104.691406 L 1.226562 104.691406 C 1.058594 104.691406 0.929688 104.59375 0.886719 104.433594 C 0.839844 104.269531 0.898438 104.121094 1.039062 104.035156 Z M 1.226562 105.425781 L 16.21875 105.425781 C 16.710938 105.425781 17.132812 105.105469 17.269531 104.632812 C 17.402344 104.160156 17.210938 103.667969 16.789062 103.410156 L 9.292969 98.804688 C 9.257812 98.78125 9.214844 98.757812 9.164062 98.738281 C 9.101562 98.710938 9.0625 98.648438 9.0625 98.578125 L 9.0625 97.863281 C 9.0625 97.660156 8.898438 97.496094 8.695312 97.496094 C 8.285156 97.496094 7.953125 97.164062 7.953125 96.753906 C 7.953125 96.347656 8.285156 96.015625 8.695312 96.015625 C 9.105469 96.015625 9.4375 96.347656 9.4375 96.753906 C 9.4375 96.957031 9.601562 97.121094 9.804688 97.121094 C 10.007812 97.121094 10.171875 96.957031 10.171875 96.753906 C 10.171875 95.941406 9.507812 95.28125 8.695312 95.28125 C 7.878906 95.28125 7.214844 95.941406 7.214844 96.753906 C 7.214844 97.382812 7.613281 97.941406 8.210938 98.148438 C 8.277344 98.171875 8.328125 98.238281 8.328125 98.3125 L 8.328125 98.605469 C 8.328125 98.671875 8.289062 98.734375 8.230469 98.761719 L 8.203125 98.777344 C 8.1875 98.785156 8.167969 98.792969 8.152344 98.804688 L 0.65625 103.410156 C 0.234375 103.667969 0.0429688 104.160156 0.175781 104.632812 C 0.3125 105.105469 0.734375 105.425781 1.226562 105.425781 " fill-opacity="1" fill-rule="nonzero"/></g><path fill="#1a181a" d="M 95.597656 56.839844 L 103.09375 52.234375 C 103.207031 52.167969 103.355469 52.167969 103.464844 52.234375 L 110.960938 56.839844 C 111.105469 56.929688 111.164062 57.078125 111.117188 57.238281 C 111.070312 57.398438 110.945312 57.496094 110.777344 57.496094 L 95.785156 57.496094 C 95.617188 57.496094 95.488281 57.398438 95.441406 57.238281 C 95.398438 57.074219 95.453125 56.925781 95.597656 56.839844 Z M 95.785156 58.230469 L 110.777344 58.230469 C 111.269531 58.230469 111.691406 57.910156 111.824219 57.4375 C 111.960938 56.964844 111.765625 56.472656 111.347656 56.214844 L 103.851562 51.609375 C 103.8125 51.585938 103.769531 51.566406 103.722656 51.542969 C 103.660156 51.515625 103.617188 51.453125 103.617188 51.382812 L 103.617188 50.667969 C 103.617188 50.46875 103.453125 50.300781 103.25 50.300781 C 102.84375 50.300781 102.507812 49.96875 102.507812 49.5625 C 102.507812 49.152344 102.84375 48.820312 103.25 48.820312 C 103.660156 48.820312 103.996094 49.152344 103.996094 49.5625 C 103.996094 49.765625 104.160156 49.929688 104.363281 49.929688 C 104.566406 49.929688 104.730469 49.765625 104.730469 49.5625 C 104.730469 48.746094 104.066406 48.085938 103.25 48.085938 C 102.4375 48.085938 101.773438 48.746094 101.773438 49.5625 C 101.773438 50.1875 102.171875 50.746094 102.765625 50.953125 C 102.835938 50.976562 102.882812 51.042969 102.882812 51.117188 L 102.882812 51.414062 C 102.882812 51.480469 102.847656 51.539062 102.789062 51.570312 L 102.761719 51.582031 C 102.742188 51.589844 102.726562 51.597656 102.707031 51.609375 L 95.210938 56.214844 C 94.792969 56.472656 94.601562 56.964844 94.734375 57.4375 C 94.867188 57.910156 95.289062 58.230469 95.785156 58.230469 " fill-opacity="1" fill-rule="nonzero"/><path fill="#1a181a" d="M 48.320312 56.839844 L 55.816406 52.234375 C 55.925781 52.167969 56.074219 52.167969 56.1875 52.234375 L 63.683594 56.839844 C 63.824219 56.929688 63.882812 57.078125 63.839844 57.238281 C 63.792969 57.398438 63.664062 57.496094 63.496094 57.496094 L 48.503906 57.496094 C 48.335938 57.496094 48.210938 57.398438 48.164062 57.238281 C 48.117188 57.074219 48.175781 56.925781 48.320312 56.839844 Z M 48.503906 58.230469 L 63.496094 58.230469 C 63.992188 58.230469 64.414062 57.910156 64.546875 57.4375 C 64.679688 56.964844 64.488281 56.472656 64.070312 56.214844 L 56.574219 51.609375 C 56.535156 51.585938 56.492188 51.566406 56.445312 51.542969 C 56.382812 51.515625 56.339844 51.453125 56.339844 51.382812 L 56.339844 50.667969 C 56.339844 50.46875 56.175781 50.300781 55.972656 50.300781 C 55.5625 50.300781 55.230469 49.96875 55.230469 49.5625 C 55.230469 49.152344 55.5625 48.820312 55.972656 48.820312 C 56.382812 48.820312 56.714844 49.152344 56.714844 49.5625 C 56.714844 49.765625 56.878906 49.929688 57.082031 49.929688 C 57.285156 49.929688 57.453125 49.765625 57.453125 49.5625 C 57.453125 48.746094 56.789062 48.085938 55.972656 48.085938 C 55.15625 48.085938 54.496094 48.746094 54.496094 49.5625 C 54.496094 50.1875 54.894531 50.746094 55.488281 50.953125 C 55.558594 50.976562 55.605469 51.042969 55.605469 51.117188 L 55.605469 51.414062 C 55.605469 51.480469 55.566406 51.539062 55.507812 51.570312 L 55.484375 51.582031 C 55.464844 51.589844 55.445312 51.597656 55.429688 51.609375 L 47.933594 56.214844 C 47.511719 56.472656 47.320312 56.964844 47.457031 57.4375 C 47.589844 57.910156 48.011719 58.230469 48.503906 58.230469 " fill-opacity="1" fill-rule="nonzero"/><path fill="#1a181a" d="M 1.039062 56.839844 L 8.535156 52.234375 C 8.648438 52.167969 8.796875 52.167969 8.910156 52.234375 L 16.40625 56.839844 C 16.546875 56.929688 16.605469 57.078125 16.558594 57.238281 C 16.515625 57.398438 16.386719 57.496094 16.21875 57.496094 L 1.226562 57.496094 C 1.058594 57.496094 0.929688 57.398438 0.886719 57.238281 C 0.839844 57.074219 0.898438 56.925781 1.039062 56.839844 Z M 1.226562 58.230469 L 16.21875 58.230469 C 16.710938 58.230469 17.132812 57.910156 17.269531 57.4375 C 17.402344 56.964844 17.210938 56.472656 16.789062 56.214844 L 9.292969 51.609375 C 9.257812 51.585938 9.214844 51.566406 9.164062 51.542969 C 9.101562 51.515625 9.0625 51.453125 9.0625 51.382812 L 9.0625 50.667969 C 9.0625 50.46875 8.898438 50.300781 8.695312 50.300781 C 8.285156 50.300781 7.953125 49.96875 7.953125 49.5625 C 7.953125 49.152344 8.285156 48.820312 8.695312 48.820312 C 9.105469 48.820312 9.4375 49.152344 9.4375 49.5625 C 9.4375 49.765625 9.601562 49.929688 9.804688 49.929688 C 10.007812 49.929688 10.171875 49.765625 10.171875 49.5625 C 10.171875 48.746094 9.507812 48.085938 8.695312 48.085938 C 7.878906 48.085938 7.214844 48.746094 7.214844 49.5625 C 7.214844 50.1875 7.613281 50.746094 8.210938 50.953125 C 8.277344 50.976562 8.328125 51.042969 8.328125 51.117188 L 8.328125 51.414062 C 8.328125 51.480469 8.289062 51.539062 8.230469 51.570312 L 8.203125 51.582031 C 8.1875 51.589844 8.167969 51.597656 8.152344 51.609375 L 0.65625 56.214844 C 0.234375 56.472656 0.0429688 56.964844 0.175781 57.4375 C 0.3125 57.910156 0.734375 58.230469 1.226562 58.230469 " fill-opacity="1" fill-rule="nonzero"/><g clip-path="url(#2af2e8a30d)"><path fill="#1a181a" d="M 95.597656 9.644531 L 103.09375 5.042969 C 103.207031 4.972656 103.355469 4.972656 103.464844 5.042969 L 110.960938 9.644531 C 111.105469 9.734375 111.164062 9.882812 111.117188 10.042969 C 111.070312 10.203125 110.945312 10.300781 110.777344 10.300781 L 95.785156 10.300781 C 95.617188 10.300781 95.488281 10.203125 95.441406 10.042969 C 95.398438 9.882812 95.453125 9.734375 95.597656 9.644531 Z M 95.785156 11.035156 L 110.777344 11.035156 C 111.269531 11.035156 111.691406 10.71875 111.824219 10.242188 C 111.960938 9.769531 111.765625 9.277344 111.347656 9.019531 L 103.851562 4.414062 C 103.8125 4.390625 103.769531 4.371094 103.722656 4.347656 C 103.660156 4.320312 103.617188 4.257812 103.617188 4.1875 L 103.617188 3.476562 C 103.617188 3.273438 103.453125 3.109375 103.25 3.109375 C 102.84375 3.109375 102.507812 2.777344 102.507812 2.367188 C 102.507812 1.957031 102.84375 1.625 103.25 1.625 C 103.660156 1.625 103.996094 1.957031 103.996094 2.367188 C 103.996094 2.570312 104.160156 2.734375 104.363281 2.734375 C 104.566406 2.734375 104.730469 2.570312 104.730469 2.367188 C 104.730469 1.554688 104.066406 0.890625 103.25 0.890625 C 102.4375 0.890625 101.773438 1.554688 101.773438 2.367188 C 101.773438 2.992188 102.171875 3.550781 102.765625 3.757812 C 102.835938 3.785156 102.882812 3.851562 102.882812 3.925781 L 102.882812 4.21875 C 102.882812 4.285156 102.847656 4.34375 102.789062 4.375 L 102.761719 4.386719 C 102.742188 4.394531 102.726562 4.40625 102.707031 4.414062 L 95.210938 9.019531 C 94.792969 9.277344 94.601562 9.769531 94.734375 10.242188 C 94.867188 10.71875 95.289062 11.035156 95.785156 11.035156 " fill-opacity="1" fill-rule="nonzero"/></g><g clip-path="url(#efd90f2663)"><path fill="#1a181a" d="M 48.320312 9.644531 L 55.816406 5.042969 C 55.925781 4.972656 56.074219 4.972656 56.1875 5.042969 L 63.683594 9.644531 C 63.824219 9.734375 63.882812 9.882812 63.839844 10.042969 C 63.792969 10.203125 63.664062 10.300781 63.496094 10.300781 L 48.503906 10.300781 C 48.335938 10.300781 48.210938 10.203125 48.164062 10.042969 C 48.117188 9.882812 48.175781 9.734375 48.320312 9.644531 Z M 48.503906 11.035156 L 63.496094 11.035156 C 63.992188 11.035156 64.414062 10.71875 64.546875 10.242188 C 64.679688 9.769531 64.488281 9.277344 64.070312 9.019531 L 56.574219 4.414062 C 56.535156 4.390625 56.492188 4.371094 56.445312 4.347656 C 56.382812 4.320312 56.339844 4.257812 56.339844 4.1875 L 56.339844 3.476562 C 56.339844 3.273438 56.175781 3.109375 55.972656 3.109375 C 55.5625 3.109375 55.230469 2.777344 55.230469 2.367188 C 55.230469 1.957031 55.5625 1.625 55.972656 1.625 C 56.382812 1.625 56.714844 1.957031 56.714844 2.367188 C 56.714844 2.570312 56.878906 2.734375 57.082031 2.734375 C 57.285156 2.734375 57.453125 2.570312 57.453125 2.367188 C 57.453125 1.554688 56.789062 0.890625 55.972656 0.890625 C 55.15625 0.890625 54.496094 1.554688 54.496094 2.367188 C 54.496094 2.992188 54.894531 3.550781 55.488281 3.757812 C 55.558594 3.785156 55.605469 3.851562 55.605469 3.925781 L 55.605469 4.21875 C 55.605469 4.285156 55.566406 4.34375 55.507812 4.375 L 55.484375 4.386719 C 55.464844 4.394531 55.445312 4.40625 55.429688 4.414062 L 47.933594 9.019531 C 47.511719 9.277344 47.320312 9.769531 47.457031 10.242188 C 47.589844 10.71875 48.011719 11.035156 48.503906 11.035156 " fill-opacity="1" fill-rule="nonzero"/></g><g clip-path="url(#64d7c5e196)"><path fill="#1a181a" d="M 1.039062 9.644531 L 8.535156 5.042969 C 8.648438 4.972656 8.796875 4.972656 8.910156 5.042969 L 16.40625 9.644531 C 16.546875 9.734375 16.605469 9.882812 16.558594 10.042969 C 16.515625 10.203125 16.386719 10.300781 16.21875 10.300781 L 1.226562 10.300781 C 1.058594 10.300781 0.929688 10.203125 0.886719 10.042969 C 0.839844 9.882812 0.898438 9.734375 1.039062 9.644531 Z M 1.226562 11.035156 L 16.21875 11.035156 C 16.710938 11.035156 17.132812 10.71875 17.269531 10.242188 C 17.402344 9.769531 17.210938 9.277344 16.789062 9.019531 L 9.292969 4.414062 C 9.257812 4.390625 9.214844 4.371094 9.164062 4.347656 C 9.101562 4.320312 9.0625 4.257812 9.0625 4.1875 L 9.0625 3.476562 C 9.0625 3.273438 8.898438 3.109375 8.695312 3.109375 C 8.285156 3.109375 7.953125 2.777344 7.953125 2.367188 C 7.953125 1.957031 8.285156 1.625 8.695312 1.625 C 9.105469 1.625 9.4375 1.957031 9.4375 2.367188 C 9.4375 2.570312 9.601562 2.734375 9.804688 2.734375 C 10.007812 2.734375 10.171875 2.570312 10.171875 2.367188 C 10.171875 1.554688 9.507812 0.890625 8.695312 0.890625 C 7.878906 0.890625 7.214844 1.554688 7.214844 2.367188 C 7.214844 2.992188 7.613281 3.550781 8.210938 3.757812 C 8.277344 3.785156 8.328125 3.851562 8.328125 3.925781 L 8.328125 4.21875 C 8.328125 4.285156 8.289062 4.34375 8.230469 4.375 L 8.203125 4.386719 C 8.1875 4.394531 8.167969 4.40625 8.152344 4.414062 L 0.65625 9.019531 C 0.234375 9.277344 0.0429688 9.769531 0.175781 10.242188 C 0.3125 10.71875 0.734375 11.035156 1.226562 11.035156 " fill-opacity="1" fill-rule="nonzero"/></g></g></g></g></g><g mask="url(#93d79c39f4)"><g transform="matrix(1, 0, 0, 1, 47, 54)"><g clip-path="url(#b83024ea8d)"><g clip-path="url(#9e26faa6f4)"><g fill="#000000" fill-opacity="1"><g transform="translate(0.256765, 5.336279)"><g><path d="M 0.515625 0.046875 C 0.398438 0.046875 0.3125 0.015625 0.25 -0.046875 C 0.195312 -0.117188 0.171875 -0.203125 0.171875 -0.296875 C 0.171875 -0.398438 0.203125 -0.484375 0.265625 -0.546875 C 0.328125 -0.617188 0.410156 -0.65625 0.515625 -0.65625 C 0.628906 -0.65625 0.71875 -0.625 0.78125 -0.5625 C 0.84375 -0.507812 0.875 -0.425781 0.875 -0.3125 C 0.875 -0.207031 0.84375 -0.117188 0.78125 -0.046875 C 0.726562 0.015625 0.640625 0.046875 0.515625 0.046875 Z M 0.515625 0.046875 "/></g></g></g></g></g></g></g></svg>