<svg xmlns="http://www.w3.org/2000/svg" xmlns:xlink="http://www.w3.org/1999/xlink" width="500" zoomAndPan="magnify" viewBox="0 0 375 374.999991" height="500" preserveAspectRatio="xMidYMid meet" version="1.0"><defs><clipPath id="f4d2589d82"><path d="M 50 37.5 L 325.1875 37.5 L 325.1875 337.5 L 50 337.5 Z M 50 37.5 " clip-rule="nonzero"/></clipPath></defs><path fill="#000000" d="M 155.34375 41.046875 C 154.121094 41.042969 149.027344 43.726562 146.625 45.640625 C 145.265625 46.726562 131.039062 52.152344 121.261719 55.3125 C 110.207031 58.890625 107.035156 59.761719 101.105469 60.886719 C 91.824219 62.644531 86.539062 66.71875 82.257812 75.386719 C 81.046875 77.84375 79.605469 81.777344 79.066406 84.128906 C 78.523438 86.484375 77.824219 88.675781 77.511719 88.996094 C 77.195312 89.3125 76.945312 90.707031 76.945312 92.105469 C 76.945312 94.542969 76.683594 95.0625 72.972656 100.09375 C 72.453125 100.800781 71.804688 103.199219 71.539062 105.429688 C 71.183594 108.375 70.667969 109.90625 69.640625 111 C 68.449219 112.265625 68.128906 113.519531 67.660156 118.800781 C 67.054688 125.613281 66.769531 126.789062 62.59375 140.0625 C 59.382812 150.28125 56.75 160.359375 54.996094 169.089844 C 53.65625 175.761719 52.546875 185.605469 52.960938 187.222656 C 53.101562 187.78125 54.367188 188.65625 55.761719 189.164062 L 61.722656 191.332031 C 72.25 195.160156 75.621094 195.808594 86.285156 196.058594 L 96.546875 196.292969 L 98.691406 198.4375 C 100.5625 200.304688 101.207031 200.582031 103.863281 200.582031 C 105.53125 200.582031 106.902344 200.777344 106.902344 201.027344 C 106.902344 202.261719 103.632812 214.484375 102.945312 215.835938 C 101.699219 218.28125 101.253906 226.035156 102.074219 230.832031 C 103.171875 237.265625 103.03125 239.460938 101.117188 245.792969 C 99.09375 252.507812 99.289062 254.722656 102.578125 262.214844 C 104.769531 267.210938 104.902344 269.671875 103.226562 273.925781 C 101.832031 277.46875 101.660156 280.738281 102.765625 282.679688 C 103.285156 283.589844 103.644531 288.773438 103.898438 298.984375 C 104.273438 314.117188 105.371094 322.703125 107.148438 324.535156 C 107.742188 325.144531 108.757812 325.203125 111.53125 324.757812 C 115.613281 324.109375 129.273438 324.8125 134.09375 325.925781 C 135.773438 326.3125 140.460938 327.554688 144.496094 328.671875 C 151.84375 330.707031 162.515625 332.960938 167.101562 333.441406 C 168.445312 333.582031 175.472656 333.625 182.699219 333.535156 C 193.347656 333.402344 197.054688 333.113281 202.253906 332.039062 C 213.125 329.792969 218.566406 328.0625 230.410156 323.074219 C 243.441406 317.585938 252.984375 314.675781 260.5 313.910156 C 263.570312 313.597656 264.800781 313.199219 265.234375 312.390625 C 266.011719 310.933594 265.984375 297.855469 265.1875 291.84375 C 264.839844 289.214844 263.972656 285.375 263.265625 283.316406 L 261.980469 279.582031 L 264.230469 274.328125 C 268.578125 264.207031 269.214844 256.214844 266.035156 251.53125 C 264.851562 249.785156 264.582031 248.828125 264.890625 247.382812 C 268.496094 230.605469 269.066406 216.527344 266.660156 203.699219 L 266.269531 201.636719 L 270.476562 202.109375 C 278.074219 202.96875 281.3125 202.105469 284.988281 198.234375 C 286.308594 196.84375 287.507812 196.28125 289.878906 195.960938 C 297.351562 194.949219 307.175781 192.398438 315.03125 189.421875 C 322.328125 186.65625 322.195312 186.886719 320.238281 180.421875 C 319.570312 178.226562 318.175781 173.398438 317.140625 169.699219 C 314.636719 160.78125 311.03125 149.148438 307.289062 137.964844 C 304.554688 129.777344 304.277344 128.476562 304.640625 125.371094 C 305.152344 120.960938 304.214844 117.46875 301.988281 115.488281 C 300.382812 114.054688 300.210938 113.496094 299.832031 108.207031 C 299.449219 102.789062 297.078125 91.746094 295.769531 89.296875 C 295.4375 88.683594 295.167969 87.492188 295.167969 86.648438 C 295.167969 85.804688 294.429688 83.132812 293.53125 80.710938 C 291.058594 74.035156 286.390625 69.34375 278.394531 65.476562 C 275.007812 63.84375 268.523438 61.238281 263.984375 59.683594 C 239.332031 51.230469 234.402344 49.214844 228.21875 45.109375 C 225.328125 43.191406 224.449219 42.875 223.402344 43.378906 C 217.890625 46.023438 202.074219 48.371094 189.765625 48.371094 C 177.441406 48.371094 168.796875 46.671875 159.773438 42.472656 C 158.09375 41.6875 156.097656 41.046875 155.34375 41.046875 Z M 155.34375 41.046875 " fill-opacity="1" fill-rule="nonzero"/><path fill="#3a3938" d="M 155.34375 41.046875 C 154.121094 41.042969 149.027344 43.726562 146.625 45.640625 C 145.265625 46.726562 131.039062 52.152344 121.261719 55.3125 C 110.207031 58.890625 107.035156 59.761719 101.105469 60.886719 C 91.824219 62.644531 86.539062 66.71875 82.257812 75.386719 C 81.046875 77.84375 79.605469 81.777344 79.066406 84.128906 C 78.523438 86.484375 77.824219 88.675781 77.511719 88.996094 C 77.195312 89.3125 76.945312 90.707031 76.945312 92.105469 C 76.945312 94.542969 76.683594 95.0625 72.972656 100.09375 C 72.453125 100.800781 71.804688 103.199219 71.539062 105.429688 C 71.183594 108.375 70.667969 109.90625 69.640625 111 C 68.449219 112.265625 68.128906 113.519531 67.660156 118.800781 C 67.054688 125.613281 66.769531 126.789062 62.59375 140.0625 C 59.382812 150.28125 56.75 160.359375 54.996094 169.089844 C 53.65625 175.761719 52.546875 185.605469 52.960938 187.222656 C 53.101562 187.78125 54.367188 188.65625 55.761719 189.164062 L 61.722656 191.332031 C 72.25 195.160156 75.621094 195.808594 86.285156 196.058594 L 96.546875 196.292969 L 98.691406 198.4375 C 100.5625 200.304688 101.207031 200.582031 103.863281 200.582031 C 105.53125 200.582031 106.902344 200.777344 106.902344 201.027344 C 106.902344 202.261719 103.632812 214.484375 102.945312 215.835938 C 101.699219 218.28125 101.253906 226.035156 102.074219 230.832031 C 103.171875 237.265625 103.03125 239.460938 101.117188 245.792969 C 99.09375 252.507812 99.289062 254.722656 102.578125 262.214844 C 104.769531 267.210938 104.902344 269.671875 103.226562 273.925781 C 101.832031 277.46875 101.660156 280.738281 102.765625 282.679688 C 103.285156 283.589844 103.644531 288.773438 103.898438 298.984375 C 104.273438 314.117188 105.371094 322.703125 107.148438 324.535156 C 107.742188 325.144531 108.757812 325.203125 111.53125 324.757812 C 115.613281 324.109375 129.273438 324.8125 134.09375 325.925781 C 135.773438 326.3125 140.460938 327.554688 144.496094 328.671875 C 151.84375 330.707031 162.515625 332.960938 167.101562 333.441406 C 168.445312 333.582031 175.472656 333.625 182.699219 333.535156 C 193.347656 333.402344 197.054688 333.113281 202.253906 332.039062 C 213.125 329.792969 218.566406 328.0625 230.410156 323.074219 C 243.441406 317.585938 252.984375 314.675781 260.5 313.910156 C 263.570312 313.597656 264.800781 313.199219 265.234375 312.390625 C 266.011719 310.933594 265.984375 297.855469 265.1875 291.84375 C 264.839844 289.214844 263.972656 285.375 263.265625 283.316406 L 261.980469 279.582031 L 264.230469 274.328125 C 268.578125 264.207031 269.214844 256.214844 266.035156 251.53125 C 264.851562 249.785156 264.582031 248.828125 264.890625 247.382812 C 268.496094 230.605469 269.066406 216.527344 266.660156 203.699219 L 266.269531 201.636719 L 270.476562 202.109375 C 278.074219 202.96875 281.3125 202.105469 284.988281 198.234375 C 286.308594 196.84375 287.507812 196.28125 289.878906 195.960938 C 297.351562 194.949219 307.175781 192.398438 315.03125 189.421875 C 322.328125 186.65625 322.195312 186.886719 320.238281 180.421875 C 319.570312 178.226562 318.175781 173.398438 317.140625 169.699219 C 314.636719 160.78125 311.03125 149.148438 307.289062 137.964844 C 304.554688 129.777344 304.277344 128.476562 304.640625 125.371094 C 305.152344 120.960938 304.214844 117.46875 301.988281 115.488281 C 300.382812 114.054688 300.210938 113.496094 299.832031 108.207031 C 299.449219 102.789062 297.078125 91.746094 295.769531 89.296875 C 295.4375 88.683594 295.167969 87.492188 295.167969 86.648438 C 295.167969 85.804688 294.429688 83.132812 293.53125 80.710938 C 291.058594 74.035156 286.390625 69.34375 278.394531 65.476562 C 275.007812 63.84375 268.523438 61.238281 263.984375 59.683594 C 239.332031 51.230469 234.402344 49.214844 228.21875 45.109375 C 225.328125 43.191406 224.449219 42.875 223.402344 43.378906 C 217.890625 46.023438 202.074219 48.371094 189.765625 48.371094 C 177.441406 48.371094 168.796875 46.671875 159.773438 42.472656 C 158.09375 41.6875 156.097656 41.046875 155.34375 41.046875 Z M 154.519531 43.484375 C 154.875 43.484375 155.714844 44.558594 156.382812 45.867188 C 158.585938 50.183594 165.089844 58.222656 168.972656 61.425781 C 176.578125 67.699219 185.460938 70.675781 192.289062 69.226562 C 199.664062 67.660156 206.078125 64.390625 212.539062 58.90625 C 215.734375 56.195312 221.773438 49.503906 223.707031 46.539062 L 224.695312 45.042969 L 227.230469 46.714844 C 228.621094 47.636719 229.761719 48.671875 229.761719 49.011719 C 229.761719 50.464844 225.925781 57.035156 222.765625 61.003906 C 216.285156 69.132812 207.832031 74.078125 196.753906 76.210938 C 183.316406 78.800781 170.839844 74.847656 160.164062 64.609375 C 154.441406 59.121094 148.464844 50.402344 148.464844 47.539062 C 148.464844 46.679688 153.234375 43.488281 154.519531 43.488281 Z M 233.695312 50.8125 C 233.789062 50.8125 235.761719 51.601562 238.078125 52.558594 C 240.394531 53.511719 243.941406 54.859375 245.960938 55.5625 L 261.167969 60.839844 C 274.753906 65.554688 281.601562 68.738281 285.4375 72.113281 C 288.402344 74.722656 291.546875 80.003906 292.683594 84.269531 C 293.457031 87.1875 293.222656 87.824219 288.828125 94.789062 L 286.355469 98.714844 L 285.507812 96.617188 C 284.1875 93.347656 283.015625 92.386719 280.394531 92.386719 C 278.519531 92.386719 277.5625 92.847656 275.613281 94.683594 C 272.800781 97.332031 272.226562 99.128906 270.109375 111.941406 C 269.359375 116.480469 268.640625 120.308594 268.507812 120.449219 C 268.375 120.589844 268.273438 116.933594 268.273438 112.320312 C 268.273438 97.878906 265.777344 84.433594 263.101562 84.433594 C 261.570312 84.433594 260.835938 96.785156 261.699219 107.972656 C 262.058594 112.652344 262.453125 117.484375 263.066406 124.785156 C 264.527344 142.160156 263.964844 159.792969 261.5 174.285156 C 259.59375 185.476562 259.109375 187.175781 248.691406 218.546875 C 243.992188 232.699219 239.875 245.128906 239.539062 246.160156 C 238.804688 248.425781 238.738281 251.308594 239.421875 251.308594 C 240.679688 251.308594 244.058594 246.652344 252.285156 233.578125 L 253.628906 231.445312 L 253.21875 233.273438 C 252.542969 236.214844 249.710938 244.136719 245.464844 254.972656 C 240.910156 266.597656 238.304688 272.292969 235.453125 276.835938 C 233.21875 280.390625 232.953125 281.722656 234.367188 282.265625 C 236.027344 282.90625 237.761719 280.527344 242.015625 271.78125 C 246.835938 261.871094 250.046875 253.773438 256.929688 234.191406 C 258.050781 230.996094 259.164062 227.910156 259.402344 227.324219 C 259.921875 226.039062 260.933594 226.496094 260.933594 228.015625 C 260.933594 228.617188 261.804688 230.84375 262.867188 232.964844 C 264.960938 237.15625 264.960938 237.273438 262.792969 247.949219 C 261.71875 253.261719 249.140625 276.753906 239.128906 292.171875 C 235.726562 297.414062 235.273438 299.289062 237.40625 299.289062 C 238.253906 299.289062 239.671875 297.714844 242.074219 294.09375 C 247.027344 286.621094 255.5 271.949219 260.484375 262.203125 C 262.851562 257.582031 265 253.929688 265.257812 254.085938 C 266.210938 254.675781 266.511719 259.320312 265.824219 262.746094 C 264.378906 269.914062 260.628906 278.886719 257.328125 283.089844 C 252.824219 288.828125 247.832031 294.144531 244.628906 296.617188 C 242.214844 298.476562 241.363281 299.53125 241.496094 300.457031 C 241.597656 301.15625 242.097656 301.808594 242.601562 301.90625 C 244 302.171875 250.878906 296.113281 256.339844 289.816406 L 261.214844 284.1875 L 261.921875 285.929688 C 263.050781 288.75 264.113281 299.4375 263.890625 305.710938 L 263.691406 311.519531 L 261.851562 311.683594 C 253.796875 312.402344 242.105469 315.914062 228.84375 321.601562 C 220 325.394531 210.34375 328.394531 201.3125 330.144531 C 193.78125 331.601562 175.371094 332.28125 167.40625 331.402344 C 160.992188 330.695312 151.039062 328.597656 144.1875 326.503906 C 136.53125 324.160156 129.167969 322.824219 123.796875 322.816406 C 121.394531 322.8125 118.871094 322.65625 118.199219 322.472656 C 116.652344 322.054688 108.28125 305.703125 109.011719 304.519531 C 109.730469 303.359375 113.660156 304 125.234375 307.183594 C 133.503906 309.457031 146.808594 312.796875 151.820312 313.851562 C 155.949219 314.71875 159.050781 315.328125 166.195312 316.667969 C 174.398438 318.203125 198.1875 320.390625 206.53125 320.375 C 212.496094 320.367188 225.6875 318.808594 227.359375 317.914062 C 228.347656 317.386719 228.496094 317.035156 227.960938 316.5 C 227.136719 315.679688 220.015625 315.820312 216.863281 316.726562 C 214.058594 317.527344 207.804688 317.476562 204.246094 316.617188 C 194.644531 314.300781 176.289062 307.445312 162.921875 301.1875 C 159.613281 299.636719 156.792969 298.371094 156.652344 298.371094 C 156.09375 298.371094 144.394531 291.421875 140.300781 288.652344 C 133.59375 284.113281 126.242188 276.011719 121.640625 268.105469 C 119.492188 264.414062 116.273438 258.902344 114.492188 255.867188 C 106.726562 242.640625 104.484375 232.976562 109.175781 232.976562 C 110.503906 232.976562 111.996094 234.136719 116.070312 238.335938 C 120.378906 242.785156 122.136719 245.261719 126.386719 252.851562 C 132.90625 264.484375 138.335938 272.664062 143.519531 278.660156 C 147.867188 283.695312 150.304688 285.007812 150.304688 282.3125 C 150.304688 281.503906 149.710938 280.316406 148.996094 279.675781 C 147.414062 278.253906 142.351562 271.746094 142.351562 271.132812 C 142.351562 270.890625 143.789062 272.058594 145.554688 273.726562 C 160.136719 287.496094 184.285156 298.976562 206.835938 302.859375 C 221.886719 305.449219 223.035156 305.535156 223.035156 304.179688 C 223.035156 303.675781 222.890625 303.257812 222.71875 303.257812 C 221.589844 303.257812 212.570312 300.542969 210.253906 299.5 C 203.152344 296.3125 197.566406 293.25 196.445312 291.9375 C 195.773438 291.148438 193.300781 289.214844 190.945312 287.640625 C 168.636719 272.6875 142.191406 242.277344 128.261719 215.554688 C 126.160156 211.519531 123.835938 207.625 123.089844 206.894531 C 120.304688 204.171875 114.648438 183.441406 111.863281 165.730469 C 107.980469 141.0625 107.277344 110.371094 109.847656 78.34375 C 110.226562 73.621094 110.398438 73.101562 111.792969 72.429688 C 112.632812 72.027344 120.324219 69.421875 128.898438 66.644531 C 137.46875 63.871094 145.632812 61.097656 147.027344 60.484375 C 148.425781 59.871094 149.945312 59.515625 150.398438 59.707031 C 150.847656 59.898438 152.398438 61.539062 153.847656 63.347656 C 157.054688 67.34375 163.414062 72.578125 168.234375 75.1875 C 176.15625 79.476562 186.109375 81.351562 194.738281 80.167969 C 210.628906 77.996094 222.410156 69.9375 230.777344 55.546875 C 232.289062 52.941406 233.605469 50.8125 233.699219 50.8125 Z M 97.300781 79.945312 C 98.15625 79.796875 98.199219 80.871094 97.324219 83.09375 C 96.246094 85.835938 94.828125 86.402344 93.390625 84.671875 C 92.683594 83.820312 92.894531 83.410156 94.910156 81.5625 C 95.984375 80.578125 96.789062 80.039062 97.300781 79.945312 Z M 91.058594 87.488281 C 91.328125 87.488281 92.273438 88.117188 93.15625 88.875 L 94.757812 90.253906 L 93.828125 94.226562 C 93.316406 96.40625 92.742188 99.21875 92.542969 100.480469 C 92.34375 101.742188 91.960938 102.777344 91.707031 102.777344 C 91.128906 102.777344 87.335938 98.902344 87.335938 98.3125 C 87.335938 98.078125 87.714844 97.890625 88.183594 97.890625 C 89.34375 97.890625 89.808594 96.472656 90.222656 91.621094 C 90.414062 89.351562 90.789062 87.488281 91.058594 87.488281 Z M 294.542969 92.988281 C 295.347656 92.988281 297.007812 100.804688 297.832031 108.421875 C 298.539062 114.96875 298.734375 115.664062 300.222656 116.832031 C 302.328125 118.488281 303.085938 121.347656 302.460938 125.300781 C 302.019531 128.082031 302.222656 129.210938 304.121094 134.714844 C 309.675781 150.804688 317.265625 176.277344 316.679688 176.832031 C 316.054688 177.421875 310.84375 178.941406 300.105469 181.671875 C 294.921875 182.992188 290.316406 184.078125 289.867188 184.078125 C 288.867188 184.078125 288.820312 181.011719 289.632812 168.386719 C 289.949219 163.398438 290.355469 145.625 290.527344 128.894531 L 290.84375 98.480469 L 292.445312 95.734375 C 293.332031 94.222656 294.277344 92.988281 294.542969 92.988281 Z M 280.3125 96.167969 C 281.878906 96.179688 282.320312 97.144531 282.246094 99.714844 C 282.191406 101.527344 281.578125 102.417969 278.25 105.5 L 274.328125 109.140625 L 274.71875 106.417969 C 274.929688 104.917969 275.324219 102.867188 275.601562 101.859375 C 275.875 100.851562 276.273438 99.28125 276.472656 98.371094 C 276.761719 97.0625 277.296875 96.625 279.039062 96.296875 C 279.53125 96.207031 279.953125 96.167969 280.3125 96.167969 Z M 85.355469 102.835938 C 85.78125 102.832031 86.667969 103.507812 88.417969 105.074219 L 91.644531 107.972656 L 90.9375 110.410156 C 90.210938 112.945312 90.421875 125.746094 91.574219 149.535156 C 91.882812 155.921875 92.429688 168.105469 92.777344 176.605469 C 93.125 185.105469 93.5625 192.308594 93.753906 192.617188 C 93.945312 192.921875 93.554688 193.464844 92.894531 193.816406 C 89.964844 195.386719 72.417969 193.621094 70.734375 191.589844 C 70.339844 191.113281 70.027344 189.4375 70.039062 187.855469 C 70.050781 186.132812 69.679688 184.554688 69.121094 183.910156 C 68.328125 183 68.304688 182.457031 68.957031 180.246094 C 70.554688 174.828125 75.082031 169.449219 81.40625 165.449219 C 83.359375 164.214844 85.109375 162.8125 85.296875 162.328125 C 86.105469 160.222656 84.585938 157.847656 78.78125 152.195312 L 72.726562 146.308594 L 73.363281 143.949219 C 73.714844 142.652344 74.800781 138.726562 75.777344 135.222656 C 76.753906 131.71875 77.554688 128.132812 77.554688 127.257812 C 77.554688 124.929688 79.171875 123 82.210938 121.695312 C 85.195312 120.417969 85.546875 119.277344 83.929688 116.148438 C 83.066406 114.476562 83.070312 113.820312 83.917969 109.304688 C 84.433594 106.554688 84.929688 103.832031 85.023438 103.25 C 85.066406 102.988281 85.160156 102.839844 85.355469 102.835938 Z M 286.839844 104.699219 C 286.878906 104.695312 286.921875 104.710938 286.957031 104.746094 C 287.476562 105.265625 285.914062 184.453125 285.34375 186.621094 C 284.691406 189.089844 282.140625 191.570312 278.816406 192.960938 C 277.640625 193.453125 276.148438 193.855469 275.496094 193.855469 C 274.335938 193.855469 274.3125 193.390625 274.714844 174.441406 C 275.070312 157.921875 275.308594 154.355469 276.34375 150.453125 C 278.203125 143.425781 279.023438 140.085938 279.863281 136.082031 C 280.289062 134.066406 280.847656 131.589844 281.113281 130.582031 C 281.378906 129.570312 282.054688 126.140625 282.609375 122.945312 C 283.164062 119.753906 283.882812 115.980469 284.199219 114.570312 C 284.515625 113.160156 284.777344 111.164062 284.777344 110.117188 C 284.777344 108.40625 286.222656 104.71875 286.839844 104.699219 Z M 281.855469 106.75 L 281.515625 108.585938 C 281.324219 109.59375 280.996094 111.65625 280.785156 113.167969 C 280.085938 118.125 275.800781 138.835938 275.386719 139.25 C 275.257812 139.382812 274.984375 138.644531 274.777344 137.601562 C 274.566406 136.558594 274.121094 135.875 273.785156 136.082031 C 273.449219 136.289062 272.917969 137.339844 272.609375 138.414062 C 271.859375 141.003906 271.777344 128.152344 272.5 121.910156 C 272.945312 118.070312 273.359375 117.007812 275.765625 113.652344 C 277.28125 111.535156 279.277344 109.121094 280.195312 108.28125 Z M 317.492188 180.613281 C 318.03125 180.570312 318.402344 180.980469 318.621094 181.863281 C 318.828125 182.683594 319.15625 183.765625 319.351562 184.277344 C 319.589844 184.894531 319.109375 185.523438 317.9375 186.125 C 315.011719 187.640625 305.046875 190.789062 298.21875 192.359375 C 290.855469 194.054688 288.441406 194.21875 288.441406 193.019531 C 288.441406 192.5625 288.609375 190.953125 288.816406 189.449219 C 289.15625 186.980469 289.328125 186.738281 290.621094 186.988281 C 291.957031 187.242188 299.234375 185.90625 303.414062 184.640625 C 304.421875 184.335938 307.726562 183.386719 310.753906 182.523438 C 313.777344 181.65625 316.707031 180.808594 317.257812 180.648438 C 317.339844 180.625 317.414062 180.621094 317.492188 180.613281 Z M 99.175781 181.097656 C 99.1875 181.089844 99.195312 181.09375 99.210938 181.109375 C 99.445312 181.324219 100.605469 184.894531 101.789062 189.046875 C 102.976562 193.203125 104.097656 197.082031 104.277344 197.671875 C 104.503906 198.429688 104.253906 198.742188 103.417969 198.742188 C 101.242188 198.742188 100.0625 197.296875 99.90625 194.433594 C 99.824219 192.9375 99.539062 189.234375 99.269531 186.210938 C 99.019531 183.371094 98.984375 181.179688 99.175781 181.097656 Z M 284.496094 194.347656 C 284.675781 194.324219 284.777344 194.34375 284.777344 194.421875 C 284.777344 195.398438 281.628906 198.761719 279.839844 199.6875 C 277.773438 200.753906 274.628906 200.855469 274.019531 199.875 C 273.539062 199.09375 275.34375 197.519531 276.71875 197.519531 C 277.203125 197.519531 279.210938 196.695312 281.183594 195.691406 C 282.664062 194.941406 283.949219 194.429688 284.496094 194.347656 Z M 107.46875 208.875 C 107.617188 208.886719 107.765625 209.210938 107.988281 209.746094 C 108.972656 212.125 111.054688 217.847656 111.484375 219.371094 C 111.699219 220.128906 111.78125 220.738281 111.675781 220.726562 C 111.566406 220.710938 110.152344 219.476562 108.53125 217.980469 L 105.574219 215.261719 L 106.46875 211.738281 C 106.988281 209.679688 107.222656 208.855469 107.46875 208.875 Z M 117.625 224.214844 C 117.855469 224.292969 118.941406 225.925781 120.367188 228.382812 C 128.742188 242.804688 136.929688 252.4375 148.464844 261.441406 C 155.058594 266.585938 160.082031 271.492188 160.082031 272.796875 C 160.082031 275.171875 154.550781 273.289062 146.804688 268.273438 C 140.640625 264.28125 137.652344 260.914062 132.183594 251.851562 C 129.472656 247.351562 126.089844 241.792969 124.679688 239.503906 C 122.203125 235.476562 118.492188 227.550781 117.613281 224.414062 C 117.566406 224.257812 117.570312 224.195312 117.625 224.214844 Z M 101.957031 251.003906 L 103.109375 253.757812 C 109.882812 269.9375 118.324219 283.539062 124.796875 288.699219 C 127.460938 290.824219 144.417969 299.589844 145.875 299.597656 C 146.480469 299.601562 154.542969 302.910156 156.816406 304.085938 C 157.816406 304.601562 158.996094 305.457031 159.433594 305.980469 C 160.582031 307.363281 159.695312 307.167969 150.304688 304.039062 C 143.0625 301.625 126.207031 294.519531 114.996094 289.136719 C 110.878906 287.160156 107.144531 285.542969 106.691406 285.542969 C 106.242188 285.542969 105.359375 284.015625 104.722656 282.148438 C 103.574219 278.765625 103.566406 278.746094 104.925781 274.964844 C 106.808594 269.707031 106.6875 266.367188 104.429688 261.546875 C 103.410156 259.367188 102.445312 256.113281 102.273438 254.300781 Z M 105.890625 288.59375 C 106.039062 288.59375 109.699219 290.324219 114.019531 292.433594 L 126.460938 298.515625 C 131.757812 301.101562 131.671875 301.132812 124.316406 299.316406 C 116.035156 297.265625 110.964844 296.414062 108.339844 296.640625 L 105.984375 296.851562 L 105.796875 292.71875 C 105.695312 290.449219 105.742188 288.59375 105.890625 288.59375 Z M 105.890625 288.59375 " fill-opacity="0.071" fill-rule="nonzero"/><g clip-path="url(#f4d2589d82)"><path fill="#3a3938" d="M 156.070312 37.492188 C 155.945312 37.488281 155.8125 37.496094 155.671875 37.503906 L 155.648438 37.503906 C 155.539062 37.503906 155.414062 37.527344 155.28125 37.550781 C 155.269531 37.554688 155.25 37.546875 155.234375 37.550781 C 153.554688 37.816406 151.054688 39.023438 146.824219 41.507812 C 138.871094 46.183594 113.933594 55.003906 101.796875 57.4375 C 94.785156 58.84375 90.292969 60.679688 86.589844 63.65625 C 83.765625 65.925781 79.496094 72.132812 77.613281 76.710938 C 75.679688 81.40625 73.171875 90.125 73.171875 92.128906 C 73.171875 93.242188 72.371094 94.953125 71.085938 96.617188 C 68.910156 99.4375 67.675781 102.878906 67.667969 106.125 C 67.667969 107.175781 67.285156 108.359375 66.808594 108.753906 C 64.941406 110.300781 63.929688 113.773438 63.675781 119.484375 C 63.472656 124.078125 62.914062 126.78125 60.976562 132.761719 C 55.535156 149.566406 51.761719 164.121094 50.859375 171.757812 C 50.730469 172.84375 50.527344 175.691406 50.351562 178.847656 C 50.34375 178.988281 50.335938 179.109375 50.328125 179.25 C 50.238281 180.632812 50.148438 182.007812 50.105469 183.265625 C 50.050781 184.722656 50.027344 185.859375 50.011719 186.824219 C 49.972656 189.023438 50.042969 190.144531 50.292969 190.792969 C 50.296875 190.808594 50.300781 190.828125 50.304688 190.839844 C 50.707031 192.203125 51.570312 192.53125 53.191406 192.867188 C 54.261719 193.089844 56.644531 193.910156 58.492188 194.683594 C 61.925781 196.117188 68.246094 198.085938 73.171875 199.265625 C 74.683594 199.625 80.175781 200.085938 85.386719 200.277344 C 94.246094 200.605469 94.96875 200.722656 96.414062 202.066406 C 97.265625 202.859375 98.875 203.832031 99.996094 204.222656 C 100.597656 204.433594 101.015625 204.582031 101.304688 204.765625 L 101.316406 204.777344 C 101.488281 204.910156 101.621094 205.074219 101.726562 205.261719 C 101.886719 205.667969 101.804688 206.277344 101.632812 207.359375 C 101.417969 208.691406 100.671875 211.339844 99.972656 213.234375 C 99.273438 215.132812 98.445312 218.335938 98.121094 220.351562 C 97.476562 224.375 97.898438 232.527344 98.933594 236.007812 C 99.480469 237.835938 99.382812 238.796875 98.382812 241.507812 C 95.175781 250.195312 95.320312 256.101562 98.898438 263.667969 C 101 268.109375 101.089844 269.710938 99.453125 273.527344 C 98.074219 276.746094 97.851562 281.804688 98.996094 283.8125 C 99.511719 284.722656 99.871094 290 100.125 300.421875 C 100.441406 313.320312 100.703125 316.601562 101.867188 321.429688 C 102.972656 326 103.382812 327.960938 105.4375 328.734375 L 105.472656 328.746094 C 106.054688 329.035156 106.753906 329.148438 107.617188 329.132812 C 109.226562 329.242188 111.414062 329.144531 114.53125 329.027344 C 125.617188 328.605469 131.492188 329.332031 142.6875 332.492188 C 151.152344 334.878906 155.085938 335.710938 162.410156 336.695312 C 163.101562 336.789062 164.371094 336.882812 165.957031 336.96875 C 166.339844 337.050781 166.613281 337.132812 166.660156 337.179688 C 166.859375 337.378906 170.957031 337.386719 176.25 337.296875 L 176.394531 337.296875 C 177.335938 337.3125 178.28125 337.3125 179.21875 337.320312 C 201.054688 337.472656 210.476562 335.636719 231.171875 327.1875 C 247.285156 320.613281 252.84375 318.945312 262.144531 317.90625 C 264.84375 317.605469 267.328125 317.09375 267.65625 316.761719 C 270.355469 314.0625 269.660156 289.863281 266.679688 282.730469 C 265.824219 280.6875 265.875 280.335938 267.515625 276.355469 C 270.582031 268.921875 271.441406 265.277344 271.4375 259.78125 C 271.433594 255.566406 271.171875 254.070312 270.035156 251.875 C 268.492188 248.894531 268.507812 248.199219 270.367188 238.695312 C 271.179688 234.527344 271.457031 229.960938 271.484375 219.925781 L 271.519531 206.710938 L 272.109375 206.675781 L 275.265625 206.675781 C 279.726562 206.675781 282.96875 205.449219 285.878906 202.65625 C 287.78125 200.835938 288.785156 200.457031 294.84375 199.3125 C 306.921875 197.03125 321.488281 192.089844 323.96875 189.425781 C 324.269531 189.101562 324.488281 188.835938 324.640625 188.519531 L 324.652344 188.496094 C 324.890625 188.136719 325.003906 187.773438 325.003906 187.414062 C 325.003906 187.121094 324.871094 186.414062 324.664062 185.46875 C 324.5 184.441406 324.238281 183.109375 323.859375 181.226562 C 322.746094 175.632812 314.359375 147.96875 309.972656 135.390625 C 308.109375 130.050781 307.890625 128.804688 308.226562 125.578125 C 308.695312 121.113281 307.878906 117.761719 305.542969 114.539062 C 304.195312 112.679688 303.722656 111.191406 303.410156 107.871094 C 302.667969 99.984375 297.96875 81.550781 295.421875 76.535156 C 290.769531 67.371094 283.8125 63.152344 259.714844 54.894531 C 242.445312 48.976562 235.488281 46.109375 230.734375 42.925781 C 228.289062 41.285156 225.792969 39.753906 225.1875 39.53125 C 224.554688 39.300781 222.59375 39.75 220.605469 40.582031 C 213.738281 43.441406 202.195312 45.183594 189.914062 45.210938 C 176.792969 45.238281 169.625 43.605469 157.09375 37.742188 C 156.789062 37.597656 156.453125 37.511719 156.070312 37.496094 Z M 154.894531 42.792969 C 154.898438 42.796875 154.902344 42.792969 154.90625 42.792969 C 154.910156 42.796875 154.914062 42.804688 154.917969 42.804688 L 157.839844 47.824219 C 161.53125 54.175781 170.261719 63.035156 175.570312 65.824219 C 177.59375 66.886719 181.300781 68.234375 183.816406 68.804688 C 187.769531 69.703125 188.914062 69.734375 192.355469 69.0625 C 197.203125 68.121094 202.644531 65.746094 207.421875 62.480469 C 210.964844 60.058594 219.941406 51.175781 222.984375 47.09375 L 224.5625 44.984375 L 227.402344 46.785156 C 229.164062 47.898438 230.253906 49.035156 230.253906 49.753906 C 230.253906 51.417969 226.566406 57.746094 223.101562 62.019531 C 216.601562 70.042969 208.152344 75.128906 197.703125 77.308594 C 178.996094 81.210938 159.140625 71.066406 149.757812 52.816406 C 147.0625 47.578125 147.144531 47.242188 151.78125 44.570312 Z M 159.746094 45.363281 C 160.273438 45.394531 162.128906 45.945312 164.234375 46.703125 C 171.835938 49.445312 175.296875 50.195312 184.34375 50.355469 C 187.859375 50.722656 190.109375 50.722656 194.417969 50.355469 C 204.347656 50.179688 210.8125 49.386719 216.800781 47.671875 C 217.9375 47.34375 218.976562 47.183594 219.109375 47.316406 C 219.242188 47.449219 217.609375 49.394531 215.480469 51.628906 C 211.5625 55.75 211.316406 55.871094 204.277344 57.472656 C 200.558594 58.320312 185.296875 58.679688 180.1875 58.039062 C 177.695312 57.722656 173.421875 56.777344 170.679688 55.941406 C 165.710938 54.425781 165.679688 54.417969 162.515625 50.039062 C 160.769531 47.625 159.464844 45.527344 159.605469 45.386719 C 159.625 45.367188 159.671875 45.355469 159.746094 45.363281 Z M 144.632812 48.929688 C 144.636719 48.929688 144.640625 48.941406 144.644531 48.941406 L 147.25 53.9375 C 149.328125 57.9375 151.214844 60.320312 156.589844 65.730469 C 162.078125 71.25 164.234375 72.964844 168.21875 74.988281 C 180.324219 81.136719 191.644531 82.058594 204.089844 77.910156 C 215.394531 74.144531 225.195312 65.460938 231.195312 53.890625 C 232.40625 51.554688 233.15625 50.710938 233.859375 50.933594 C 234.398438 51.101562 237.460938 52.265625 240.65625 53.5 C 243.851562 54.738281 252.339844 57.773438 259.527344 60.25 C 283.453125 68.503906 289.101562 72.441406 292.621094 83.332031 L 293.808594 86.992188 C 293.816406 87.121094 293.824219 87.253906 293.820312 87.371094 C 293.820312 87.457031 293.800781 87.5625 293.773438 87.6875 L 291.078125 92.519531 C 289.5 95.328125 287.5625 98.414062 286.765625 99.386719 C 285.359375 101.109375 285.3125 101.121094 285.292969 99.753906 C 285.269531 98.175781 283.632812 94.667969 282.59375 93.980469 C 281.523438 93.269531 278.253906 93.445312 277.445312 94.25 C 275.910156 95.789062 276.609375 96.605469 279.109375 96.207031 C 281.113281 95.886719 281.597656 96.027344 282.160156 97.078125 C 283.164062 98.957031 283.023438 103.296875 281.960938 103.296875 C 281.480469 103.296875 279.449219 105.109375 277.445312 107.328125 C 275.445312 109.546875 273.65625 111.128906 273.476562 110.839844 C 273.15625 110.316406 273.628906 107.542969 275.171875 100.847656 C 275.601562 99 275.816406 97.269531 275.65625 96.996094 C 274.964844 95.808594 273.246094 98.664062 272.523438 102.203125 C 270.675781 111.234375 270.394531 112.996094 269.625 120.320312 C 269.285156 123.558594 268.261719 148.292969 267.550781 170.53125 C 267.214844 181.121094 266.730469 191.578125 266.46875 193.761719 C 266.195312 196.035156 263.738281 204.398438 260.71875 213.316406 C 257.816406 221.890625 254.554688 231.65625 253.472656 235.019531 C 248.71875 249.777344 240.417969 270.128906 236.34375 277.003906 C 235.015625 279.25 233.929688 281.253906 233.929688 281.46875 C 233.929688 281.6875 234.515625 281.777344 235.238281 281.671875 C 238.140625 281.238281 246.550781 262.390625 255.910156 235.324219 C 256.667969 233.140625 258.207031 229.015625 259.328125 226.160156 C 260.449219 223.300781 262.242188 218.425781 263.308594 215.320312 C 264.378906 212.21875 265.488281 209.824219 265.785156 210.007812 C 266.539062 210.476562 266.453125 227.164062 265.667969 233.464844 C 263.910156 247.5 262.753906 251.5625 257.679688 261.476562 C 252.75 271.113281 247.046875 281.085938 240.183594 292.070312 C 237.488281 296.386719 236.433594 298.59375 236.863281 299.023438 C 237.207031 299.367188 237.773438 299.472656 238.125 299.257812 C 239.71875 298.273438 254.375 273.25 260.683594 260.746094 C 264.289062 253.597656 264.75 252.960938 265.5 253.984375 C 266.878906 255.871094 266.796875 261.777344 265.324219 267.109375 C 263.773438 272.722656 260.171875 280.671875 257.574219 284.222656 C 256.21875 286.074219 252.117188 290.542969 248.453125 294.15625 C 242.078125 300.445312 240.382812 303.265625 244.402344 300.894531 C 246.371094 299.734375 255.453125 290.558594 259.09375 286.0625 L 261.320312 283.304688 L 262.003906 285.050781 C 263.226562 288.210938 264.179688 296.621094 264.417969 303.273438 C 264.417969 303.328125 264.417969 303.382812 264.417969 303.4375 C 264.414062 303.945312 264.394531 304.453125 264.382812 304.957031 L 264.230469 310.8125 L 264.230469 310.824219 C 264.113281 311.535156 263.957031 312.027344 263.757812 312.226562 C 263.355469 312.628906 262.101562 312.957031 260.976562 312.957031 C 255.25 312.957031 243.898438 316.386719 229.039062 322.59375 C 215.398438 328.292969 204.570312 331.203125 192.261719 332.5 C 186.929688 333.0625 174.597656 333.1875 169.75 332.726562 C 161.949219 331.984375 151.832031 329.890625 142.148438 327.011719 C 134.339844 324.691406 123.699219 323.269531 115.144531 323.394531 C 111.503906 323.449219 108.296875 323.253906 108.019531 322.960938 C 106.839844 321.71875 105.582031 310.109375 105.34375 298.253906 C 105.140625 288.125 104.875 285.09375 103.976562 282.5625 C 103.453125 281.082031 103.171875 280.28125 103.175781 279.441406 C 103.179688 279.324219 103.191406 279.195312 103.199219 279.078125 C 103.203125 279.050781 103.210938 279.019531 103.210938 278.992188 C 103.304688 278.1875 103.636719 277.226562 104.226562 275.554688 C 106.121094 270.152344 105.976562 266.945312 103.613281 261.851562 C 100.945312 256.113281 100.882812 251.207031 103.375 243.746094 L 105.15625 238.410156 L 104.140625 234.179688 C 102.644531 227.96875 102.816406 221.792969 104.648438 216.015625 C 105.488281 213.367188 106.339844 210.304688 106.546875 209.207031 C 106.980469 206.890625 107.726562 206.605469 108.195312 208.582031 C 109.105469 212.414062 116.144531 231.585938 118.820312 237.515625 C 124.125 249.265625 133.730469 265.828125 140.25 274.445312 C 142.96875 278.039062 148.296875 283.613281 149.015625 283.613281 C 150.332031 283.613281 149.375 281.613281 146.457031 278.296875 C 144.742188 276.347656 142.160156 273.105469 140.734375 271.089844 C 134.363281 262.09375 121.726562 237.945312 116.734375 225.242188 C 114.6875 220.027344 110.765625 208.046875 107.125 195.90625 C 106.214844 192.882812 105.230469 189.714844 104.945312 188.875 C 102.816406 182.675781 99.675781 163.726562 100.289062 160.789062 C 100.472656 159.925781 100.234375 156.886719 99.773438 154.027344 C 97.535156 140.257812 97.125 125.398438 98.605469 112.464844 C 100.246094 98.125 100.296875 95.402344 99.03125 92.003906 C 98.160156 89.671875 97.25 88.535156 95.152344 87.148438 C 93.648438 86.152344 92.207031 84.972656 91.9375 84.535156 C 91.21875 83.359375 88.585938 83.566406 87.898438 84.851562 C 87.570312 85.460938 87.210938 87.730469 87.097656 89.894531 C 86.980469 92.058594 86.621094 93.804688 86.296875 93.792969 C 85.371094 93.753906 80.957031 86.109375 80.957031 84.546875 C 80.957031 82.40625 83.519531 76.484375 86.117188 72.613281 C 89.824219 67.085938 93.246094 64.933594 100.984375 63.257812 C 112.121094 60.847656 132.195312 54.464844 141.144531 50.488281 L 144.632812 48.933594 Z M 171.988281 59.441406 C 172.234375 59.429688 172.714844 59.507812 173.472656 59.640625 C 174.617188 59.839844 176.511719 60.316406 177.691406 60.6875 C 180.808594 61.671875 200.023438 61.589844 202.949219 60.582031 C 204.230469 60.140625 205.425781 59.914062 205.597656 60.085938 C 206.046875 60.535156 200.859375 63.472656 197.09375 64.90625 C 193.390625 66.3125 186.398438 66.84375 182.957031 65.976562 C 180.003906 65.238281 173.839844 61.992188 172.4375 60.441406 C 171.800781 59.738281 171.574219 59.457031 171.988281 59.4375 Z M 90.972656 87.535156 C 92.496094 87.59375 95.652344 91.152344 96.390625 93.792969 C 97.101562 96.328125 96.851562 103.230469 95.964844 105.535156 C 95.796875 105.984375 95.476562 106.34375 95.257812 106.339844 C 94.140625 106.304688 88.996094 102.496094 87.320312 100.460938 C 84.949219 97.585938 84.816406 96.398438 86.917969 96.925781 C 88.746094 97.382812 88.957031 96.964844 89.546875 91.683594 C 89.785156 89.550781 90.300781 87.699219 90.6875 87.570312 C 90.773438 87.542969 90.871094 87.53125 90.972656 87.535156 Z M 294.632812 92.058594 C 294.855469 92.074219 294.996094 92.402344 295.199219 92.945312 C 296.339844 95.964844 298.050781 104.96875 298.460938 110.144531 C 298.847656 114.957031 299.046875 115.609375 300.617188 117.011719 C 302.78125 118.941406 303.25 120.730469 302.820312 125.46875 C 302.515625 128.839844 302.804688 130.117188 305.824219 139.003906 C 308.722656 147.527344 317.519531 176.09375 317.652344 177.386719 C 317.648438 177.421875 317.652344 177.457031 317.640625 177.492188 C 317.140625 178.042969 309.058594 180.65625 304.222656 181.816406 C 302.039062 182.339844 299.285156 183.023438 298.109375 183.335938 C 296.933594 183.648438 294.664062 184.230469 293.066406 184.632812 C 290.082031 185.378906 289.011719 187.035156 291.511719 187.035156 C 293.277344 187.035156 304.148438 184.355469 311.785156 182.039062 C 315.105469 181.035156 318.015625 180.441406 318.265625 180.71875 C 318.515625 181 319.046875 182.195312 319.445312 183.371094 C 320.085938 185.28125 320.023438 185.613281 318.902344 186.527344 C 317.195312 187.917969 306.007812 191.582031 297.804688 193.441406 C 294.105469 194.28125 290.308594 194.972656 289.367188 194.976562 L 287.648438 194.988281 L 287.976562 189.945312 C 288.75 177.984375 289.136719 163.277344 289.484375 132.019531 L 289.863281 98.867188 C 289.925781 98.71875 289.996094 98.566406 290.074219 98.394531 L 292.242188 95.074219 C 293.679688 92.882812 294.265625 92.035156 294.632812 92.058594 Z M 78.519531 92.90625 C 78.773438 92.90625 79.660156 94.210938 80.5 95.804688 C 82.027344 98.707031 88.59375 105.445312 93.140625 108.789062 L 95.542969 110.566406 L 95.011719 115.644531 C 94.417969 121.25 94.914062 141.339844 95.824219 148.523438 C 96.144531 151.046875 96.648438 156.6875 96.957031 161.058594 C 97.265625 165.429688 97.804688 170.65625 98.144531 172.675781 C 98.871094 176.964844 101.984375 189.128906 103.789062 194.714844 C 104.480469 196.859375 104.875 198.894531 104.660156 199.238281 C 103.839844 200.570312 101.625 199.785156 99.394531 197.367188 C 96.914062 194.679688 96.589844 194.601562 90.582031 195.304688 C 90.265625 195.34375 89.933594 195.375 89.605469 195.398438 L 86.882812 195.375 C 85.492188 195.359375 84.320312 195.339844 83.242188 195.316406 C 76.015625 194.6875 67.152344 192.375 58.1875 188.671875 C 55.171875 187.429688 54.492188 186.871094 54.332031 185.5625 C 54.21875 184.625 54.488281 183.84375 54.980469 183.65625 C 55.445312 183.476562 58.660156 184.320312 62.132812 185.527344 C 66.628906 187.09375 68.640625 187.539062 69.105469 187.070312 C 70.296875 185.878906 67.546875 184.054688 61.320312 181.886719 C 58.25 180.816406 55.652344 179.867188 55.21875 179.648438 C 55.171875 179.578125 55.132812 179.5 55.097656 179.425781 C 55.082031 177.878906 57.203125 166.34375 58.550781 160.777344 C 60.234375 153.824219 65.082031 137.308594 66.480469 133.761719 C 67.828125 130.339844 69.492188 121.222656 69.496094 117.246094 C 69.496094 115.101562 69.878906 113.941406 71.015625 112.59375 C 73.03125 110.199219 73.78125 108.058594 73.785156 104.722656 C 73.785156 102.445312 74.152344 101.515625 75.914062 99.457031 C 77.429688 97.691406 78.058594 96.371094 78.058594 94.933594 C 78.058594 93.820312 78.265625 92.910156 78.519531 92.910156 Z M 287.273438 103.921875 C 287.3125 103.929688 287.347656 103.941406 287.378906 103.96875 C 287.828125 104.421875 286.636719 182.253906 286.128906 185.503906 C 285.566406 189.117188 284.257812 190.929688 280.617188 193.136719 C 278.09375 194.664062 276.410156 195.195312 273.265625 195.445312 L 269.1875 195.777344 L 269.601562 193.394531 C 270.441406 188.570312 271.191406 166.015625 271.15625 146.695312 C 271.121094 127.789062 271.667969 119.359375 273.113281 116.632812 C 274.226562 114.527344 281.039062 106.347656 281.675781 106.347656 C 282.117188 106.347656 282.199219 107.425781 281.933594 109.5625 C 280.765625 118.980469 276.253906 140.554688 274.621094 144.550781 C 274.207031 145.558594 273.363281 148.378906 272.734375 150.820312 C 271.816406 154.386719 271.738281 155.402344 272.359375 156.015625 C 272.972656 156.621094 273.285156 156.570312 273.914062 155.71875 C 274.558594 154.84375 277.0625 145.367188 280.402344 131.109375 C 281.359375 127.027344 282.664062 119.785156 283.429688 114.300781 C 283.832031 111.441406 284.273438 108.550781 284.410156 107.878906 C 284.699219 106.460938 286.636719 103.847656 287.273438 103.921875 Z M 284.691406 193.761719 C 286.925781 193.761719 282.597656 199.515625 279.34375 200.875 C 277.414062 201.683594 275.214844 201.835938 272.746094 201.3125 L 270.140625 200.757812 C 267.765625 200.25 268.476562 198.648438 271.074219 198.648438 C 273.621094 198.648438 278.691406 196.964844 281.980469 195.019531 C 283.160156 194.328125 284.375 193.761719 284.691406 193.761719 Z M 122.238281 208.511719 C 120.921875 208.441406 121.378906 210.136719 123.96875 215.320312 C 138.097656 243.585938 164.453125 274.15625 189.613281 291.457031 C 193.867188 294.386719 197.351562 294.96875 195.5625 292.460938 C 195.3125 292.113281 192.285156 289.828125 188.832031 287.382812 C 180.554688 281.511719 176.300781 277.953125 168.300781 270.195312 C 152.824219 255.1875 137.222656 234.515625 127.46875 216.085938 C 125.101562 211.613281 123.1875 208.671875 122.535156 208.546875 C 122.429688 208.527344 122.328125 208.515625 122.238281 208.511719 Z M 106.792969 287.171875 C 106.332031 287.207031 106.179688 287.472656 106.179688 287.925781 C 106.179688 288.617188 115.808594 293.496094 125.933594 297.9375 C 130.027344 299.730469 135.304688 302.117188 137.65625 303.226562 C 140.011719 304.335938 144.824219 306.265625 148.355469 307.527344 C 154.878906 309.859375 158.4375 310.292969 158.4375 308.753906 C 158.4375 308.589844 158.140625 308.355469 157.636719 308.070312 L 157.613281 308.046875 C 157.394531 307.863281 157.09375 307.710938 156.789062 307.621094 L 156.753906 307.609375 C 155.449219 307 153.4375 306.234375 150.792969 305.347656 C 142.078125 302.421875 127.71875 296.433594 115.570312 290.644531 C 110.25 288.113281 107.800781 287.089844 106.792969 287.171875 Z M 106.792969 287.171875 " fill-opacity="1" fill-rule="nonzero"/></g></svg>