<svg xmlns="http://www.w3.org/2000/svg" xmlns:xlink="http://www.w3.org/1999/xlink" width="500" zoomAndPan="magnify" viewBox="0 0 375 374.999991" height="500" preserveAspectRatio="xMidYMid meet" version="1.0"><defs><filter x="0%" y="0%" width="100%" height="100%" id="6e3ae57474"><feColorMatrix values="0 0 0 0 1 0 0 0 0 1 0 0 0 0 1 0 0 0 1 0" color-interpolation-filters="sRGB"/></filter><clipPath id="09139400a2"><path d="M 59.234375 262 L 87 262 L 87 281 L 59.234375 281 Z M 59.234375 262 " clip-rule="nonzero"/></clipPath><clipPath id="6acc142505"><path d="M 127 298 L 248 298 L 248 311.117188 L 127 311.117188 Z M 127 298 " clip-rule="nonzero"/></clipPath><clipPath id="90a6fc16bb"><path d="M 288 262 L 315.734375 262 L 315.734375 281 L 288 281 Z M 288 262 " clip-rule="nonzero"/></clipPath><mask id="d1f7a4b559"><g filter="url(#6e3ae57474)"><rect x="-37.5" width="450" fill="#000000" y="-37.499999" height="449.999989" fill-opacity="0.2"/></g></mask><clipPath id="3e3c2afe37"><path d="M 0.679688 0.878906 L 131.960938 0.878906 L 131.960938 146.800781 L 0.679688 146.800781 Z M 0.679688 0.878906 " clip-rule="nonzero"/></clipPath><clipPath id="6798c72463"><rect x="0" width="132" y="0" height="147"/></clipPath><mask id="4cab6b3ccc"><g filter="url(#6e3ae57474)"><rect x="-37.5" width="450" fill="#000000" y="-37.499999" height="449.999989" fill-opacity="0.2"/></g></mask><clipPath id="53d8574978"><path d="M 0.519531 0.480469 L 32.921875 0.480469 L 32.921875 100.558594 L 0.519531 100.558594 Z M 0.519531 0.480469 " clip-rule="nonzero"/></clipPath><clipPath id="035baf4897"><rect x="0" width="33" y="0" height="101"/></clipPath><mask id="356567b6fc"><g filter="url(#6e3ae57474)"><rect x="-37.5" width="450" fill="#000000" y="-37.499999" height="449.999989" fill-opacity="0.2"/></g></mask><clipPath id="77bbf4e9dc"><path d="M 1 0.480469 L 33.601562 0.480469 L 33.601562 100.558594 L 1 100.558594 Z M 1 0.480469 " clip-rule="nonzero"/></clipPath><clipPath id="323bdfcc90"><rect x="0" width="34" y="0" height="101"/></clipPath></defs><path fill="#a6a6a6" d="M 313.554688 246.65625 C 313.34375 242.40625 312.890625 237.199219 312.015625 231.011719 C 311.535156 227.746094 310.953125 224.1875 310.234375 220.363281 C 307.925781 208.144531 304.5 188.730469 300.117188 168.867188 C 300.117188 168.839844 300.117188 168.839844 300.117188 168.839844 C 299.238281 164.910156 298.335938 160.953125 297.40625 157.023438 C 295.335938 148.390625 293.078125 139.917969 290.636719 132.191406 C 289.707031 129.214844 288.75 126.375 287.765625 123.664062 C 284.6875 115.140625 281.394531 108.023438 277.859375 103.242188 C 276.824219 101.859375 275.789062 100.664062 274.726562 99.710938 C 274.699219 99.683594 274.699219 99.683594 274.675781 99.65625 C 267.265625 92.9375 257.730469 88.636719 249.285156 85.898438 C 238.078125 82.289062 228.78125 81.4375 228.78125 81.4375 L 187.484375 87.175781 L 146.214844 81.410156 C 146.214844 81.410156 117.476562 84.015625 100.242188 99.683594 C 83.003906 115.351562 70.46875 190.035156 64.734375 220.335938 C 64.015625 224.1875 63.433594 227.71875 62.953125 230.984375 C 62.050781 237.199219 61.597656 242.378906 61.414062 246.628906 C 60.882812 257.835938 62.128906 262.644531 62.128906 262.644531 L 86.164062 268.378906 C 86.164062 268.378906 94 264.210938 99.230469 252.710938 C 99.339844 252.496094 99.417969 252.257812 99.523438 251.992188 C 100.691406 249.152344 102.3125 243.679688 104.199219 236.773438 C 110.707031 212.714844 120 171.417969 121.488281 164.804688 L 121.515625 164.722656 C 121.648438 164.191406 121.699219 163.898438 121.699219 163.898438 C 121.699219 163.898438 121.699219 163.925781 121.699219 163.953125 L 121.699219 279.851562 C 121.699219 294.484375 127.4375 298.65625 127.4375 298.65625 L 247.558594 298.65625 C 247.558594 298.65625 253.292969 294.484375 253.292969 279.851562 L 253.292969 238.210938 C 253.292969 204.667969 253.292969 163.925781 253.292969 163.925781 C 253.292969 163.925781 263.707031 210.589844 270.796875 236.800781 C 272.65625 243.707031 274.300781 249.179688 275.472656 252.019531 C 275.578125 252.285156 275.683594 252.523438 275.761719 252.738281 C 277.570312 256.695312 279.667969 259.800781 281.660156 262.136719 C 285.457031 266.601562 288.804688 268.40625 288.804688 268.40625 L 312.835938 262.667969 C 312.835938 262.644531 314.085938 257.835938 313.554688 246.65625 Z M 313.554688 246.65625 " fill-opacity="1" fill-rule="nonzero"/><g clip-path="url(#09139400a2)"><path fill="#e3e4e9" d="M 62.128906 262.644531 L 59.660156 272.097656 C 59.234375 273.742188 60.246094 275.417969 61.890625 275.816406 L 80.082031 280.199219 C 81.703125 280.597656 83.324219 279.585938 83.75 277.992188 L 86.164062 268.40625 Z M 62.128906 262.644531 " fill-opacity="1" fill-rule="nonzero"/></g><g clip-path="url(#6acc142505)"><path fill="#e3e4e9" d="M 127.4375 298.683594 L 127.4375 306.941406 C 127.4375 309.359375 129.402344 311.324219 131.820312 311.324219 L 243.203125 311.324219 C 245.621094 311.324219 247.585938 309.359375 247.585938 306.941406 L 247.585938 298.683594 Z M 127.4375 298.683594 " fill-opacity="1" fill-rule="nonzero"/></g><g clip-path="url(#90a6fc16bb)"><path fill="#e3e4e9" d="M 315.308594 272.097656 L 312.835938 262.644531 L 288.804688 268.378906 L 291.21875 277.964844 C 291.617188 279.585938 293.265625 280.570312 294.882812 280.171875 L 313.078125 275.789062 C 314.75 275.417969 315.757812 273.742188 315.308594 272.097656 Z M 315.308594 272.097656 " fill-opacity="1" fill-rule="nonzero"/></g><path fill="#e3e4e9" d="M 236.933594 175.746094 L 220.574219 163.925781 L 204.214844 175.746094 L 187.484375 163.925781 L 170.753906 175.746094 L 154.394531 163.925781 L 138.035156 175.746094 L 121.671875 163.925781 L 121.671875 178.878906 L 138.378906 189.316406 L 155.082031 179.914062 L 171.097656 189.316406 L 187.484375 178.878906 L 203.871094 189.316406 L 219.886719 179.914062 L 236.589844 189.316406 L 253.292969 178.878906 L 253.292969 163.925781 Z M 236.933594 175.746094 " fill-opacity="1" fill-rule="nonzero"/><path fill="#e3e4e9" d="M 137.902344 164.828125 C 136.414062 164.828125 135.21875 166.023438 135.21875 167.511719 C 135.21875 169 136.414062 170.195312 137.902344 170.195312 C 139.386719 170.195312 140.582031 169 140.582031 167.511719 C 140.582031 166.023438 139.386719 164.828125 137.902344 164.828125 Z M 155.03125 183.976562 C 153.542969 183.976562 152.347656 185.171875 152.347656 186.660156 C 152.347656 188.148438 153.542969 189.34375 155.03125 189.34375 C 156.519531 189.34375 157.710938 188.148438 157.710938 186.660156 C 157.6875 185.171875 156.492188 183.976562 155.03125 183.976562 Z M 187.484375 183.976562 C 185.996094 183.976562 184.800781 185.171875 184.800781 186.660156 C 184.800781 188.148438 185.996094 189.34375 187.484375 189.34375 C 188.972656 189.34375 190.167969 188.148438 190.167969 186.660156 C 190.167969 185.171875 188.972656 183.976562 187.484375 183.976562 Z M 219.9375 183.976562 C 218.449219 183.976562 217.253906 185.171875 217.253906 186.660156 C 217.253906 188.148438 218.449219 189.34375 219.9375 189.34375 C 221.425781 189.34375 222.621094 188.148438 222.621094 186.660156 C 222.621094 185.171875 221.425781 183.976562 219.9375 183.976562 Z M 170.753906 164.828125 C 169.265625 164.828125 168.070312 166.023438 168.070312 167.511719 C 168.070312 169 169.265625 170.195312 170.753906 170.195312 C 172.238281 170.195312 173.433594 169 173.433594 167.511719 C 173.433594 166.023438 172.238281 164.828125 170.753906 164.828125 Z M 203.605469 164.828125 C 202.117188 164.828125 200.921875 166.023438 200.921875 167.511719 C 200.921875 169 202.117188 170.195312 203.605469 170.195312 C 205.09375 170.195312 206.289062 169 206.289062 167.511719 C 206.261719 166.023438 205.066406 164.828125 203.605469 164.828125 Z M 236.457031 164.828125 C 234.96875 164.828125 233.773438 166.023438 233.773438 167.511719 C 233.773438 169 234.96875 170.195312 236.457031 170.195312 C 237.945312 170.195312 239.140625 169 239.140625 167.511719 C 239.113281 166.023438 237.917969 164.828125 236.457031 164.828125 Z M 236.457031 164.828125 " fill-opacity="1" fill-rule="nonzero"/><path fill="#e3e4e9" d="M 187.484375 240.226562 C 161.589844 240.226562 139.867188 239.429688 121.671875 238.210938 L 121.671875 254.199219 C 160.449219 257.492188 187.484375 256.933594 187.484375 256.933594 C 187.484375 256.933594 214.519531 257.492188 253.292969 254.199219 L 253.292969 238.210938 C 235.101562 239.429688 213.378906 240.226562 187.484375 240.226562 Z M 187.484375 240.226562 " fill-opacity="1" fill-rule="nonzero"/><path fill="#e3e4e9" d="M 187.484375 261.074219 C 161.589844 261.074219 139.867188 260.277344 121.671875 259.058594 L 121.671875 262.058594 C 139.867188 263.28125 161.589844 264.078125 187.484375 264.078125 C 213.378906 264.078125 235.101562 263.28125 253.292969 262.058594 L 253.292969 259.058594 C 235.101562 260.304688 213.378906 261.074219 187.484375 261.074219 Z M 187.484375 261.074219 " fill-opacity="1" fill-rule="nonzero"/><path fill="#e3e4e9" d="M 277.835938 103.242188 C 272.550781 104.355469 268.59375 109.058594 268.59375 114.660156 C 268.59375 121.117188 273.824219 126.347656 280.277344 126.347656 C 283.121094 126.347656 285.722656 125.339844 287.742188 123.664062 C 284.660156 115.140625 281.367188 108.023438 277.835938 103.242188 Z M 290.609375 132.191406 C 289.253906 131.234375 287.765625 130.4375 286.199219 129.851562 C 282.429688 134.738281 280.914062 141.273438 282.695312 147.671875 C 284.472656 154.074219 289.175781 158.878906 294.9375 161.085938 C 295.921875 159.835938 296.742188 158.484375 297.382812 157.023438 C 295.28125 148.390625 293.027344 139.917969 290.609375 132.191406 Z M 262.03125 140.953125 C 260.066406 147.300781 261.421875 153.886719 265.058594 158.855469 C 270.875 156.808594 275.683594 152.109375 277.648438 145.761719 C 279.613281 139.414062 278.257812 132.828125 274.621094 127.859375 C 268.804688 129.933594 263.996094 134.605469 262.03125 140.953125 Z M 247.796875 123.132812 C 242.328125 126.90625 239.324219 132.90625 239.113281 139.09375 C 244.957031 141.085938 251.621094 140.371094 257.09375 136.570312 C 262.5625 132.800781 265.566406 126.796875 265.777344 120.636719 C 259.933594 118.617188 253.269531 119.335938 247.796875 123.132812 Z M 249.230469 116.441406 C 255.871094 116.175781 261.632812 112.722656 265.113281 107.625 C 261.234375 102.816406 255.234375 99.84375 248.59375 100.109375 C 241.953125 100.375 236.191406 103.824219 232.710938 108.925781 C 236.5625 113.730469 242.59375 116.707031 249.230469 116.441406 Z M 256.855469 98.25 C 262.136719 102.257812 268.777344 103.269531 274.699219 101.570312 C 274.699219 100.929688 274.675781 100.292969 274.621094 99.65625 C 267.210938 92.9375 257.675781 88.636719 249.230469 85.898438 C 250.132812 90.625 252.710938 95.089844 256.855469 98.25 Z M 106.375 114.660156 C 106.375 109.058594 102.417969 104.355469 97.132812 103.242188 C 93.601562 108.023438 90.308594 115.140625 87.226562 123.664062 C 89.246094 125.339844 91.847656 126.347656 94.691406 126.347656 C 101.144531 126.347656 106.375 121.117188 106.375 114.660156 Z M 84.359375 132.191406 C 81.941406 139.917969 79.683594 148.390625 77.585938 157.023438 C 78.25 158.457031 79.046875 159.808594 80.03125 161.085938 C 85.792969 158.878906 90.46875 154.074219 92.273438 147.671875 C 94.054688 141.273438 92.566406 134.738281 88.769531 129.851562 C 87.203125 130.4375 85.714844 131.234375 84.359375 132.191406 Z M 100.347656 127.859375 C 96.683594 132.828125 95.355469 139.414062 97.320312 145.761719 C 99.285156 152.109375 104.09375 156.808594 109.910156 158.855469 C 113.574219 153.886719 114.902344 147.300781 112.9375 140.953125 C 110.96875 134.605469 106.164062 129.933594 100.347656 127.859375 Z M 127.171875 123.132812 C 121.699219 119.363281 115.035156 118.644531 109.191406 120.609375 C 109.378906 126.773438 112.40625 132.773438 117.875 136.546875 C 123.347656 140.34375 130.011719 141.035156 135.855469 139.070312 C 135.644531 132.90625 132.617188 126.90625 127.171875 123.132812 Z M 126.375 100.132812 C 119.734375 99.867188 113.734375 102.84375 109.855469 107.652344 C 113.335938 112.75 119.097656 116.203125 125.738281 116.46875 C 132.375 116.734375 138.40625 113.757812 142.257812 108.953125 C 138.777344 103.824219 133.015625 100.398438 126.375 100.132812 Z M 118.089844 98.25 C 122.230469 95.089844 124.832031 90.625 125.710938 85.871094 C 117.265625 88.609375 107.730469 92.910156 100.320312 99.628906 C 100.269531 100.265625 100.242188 100.90625 100.242188 101.542969 C 106.164062 103.269531 112.804688 102.257812 118.089844 98.25 Z M 215.398438 65.476562 C 202.199219 75.542969 187.484375 74.957031 187.484375 74.957031 C 187.484375 74.957031 172.769531 75.542969 159.570312 65.476562 C 157.207031 63.671875 153.78125 64.546875 152.585938 67.253906 L 146.238281 81.4375 C 146.238281 81.4375 155.109375 95.007812 187.511719 95.007812 C 219.886719 95.007812 228.78125 81.4375 228.78125 81.4375 L 222.433594 67.253906 C 221.1875 64.519531 217.761719 63.671875 215.398438 65.476562 Z M 215.398438 65.476562 " fill-opacity="1" fill-rule="nonzero"/><g mask="url(#d1f7a4b559)"><g transform="matrix(1, 0, 0, 1, 121, 152)"><g clip-path="url(#6798c72463)"><g clip-path="url(#3e3c2afe37)"><path fill="#ffffff" d="M 30.5 108.519531 C 21.917969 83.980469 18.652344 58.5625 12.171875 45.789062 C 5.667969 33.015625 3.355469 0.984375 3.355469 0.984375 L 0.699219 11.980469 L 0.699219 127.878906 C 0.699219 142.511719 6.4375 146.683594 6.4375 146.683594 L 63.375 146.683594 C 59.683594 145.59375 54.824219 143.867188 50.707031 141.421875 C 42.792969 136.800781 39.078125 133.085938 30.5 108.519531 Z M 129.1875 0.984375 C 129.1875 0.984375 126.878906 33.015625 120.371094 45.789062 C 113.863281 58.5625 110.625 83.980469 102.046875 108.519531 C 93.46875 133.058594 89.75 136.777344 81.835938 141.421875 C 77.71875 143.839844 72.859375 145.566406 69.167969 146.683594 L 126.105469 146.683594 C 126.105469 146.683594 131.84375 142.511719 131.84375 127.878906 L 131.84375 12.007812 Z M 129.1875 0.984375 " fill-opacity="1" fill-rule="nonzero"/></g></g></g></g><g mask="url(#4cab6b3ccc)"><g transform="matrix(1, 0, 0, 1, 281, 168)"><g clip-path="url(#035baf4897)"><g clip-path="url(#53d8574978)"><path fill="#ffffff" d="M 32.554688 78.65625 C 32.34375 74.40625 31.890625 69.199219 31.015625 63.011719 C 30.535156 59.746094 29.953125 56.1875 29.234375 52.363281 C 26.925781 40.144531 23.5 20.730469 19.117188 0.867188 C 19.277344 2.300781 27.242188 69.171875 19.992188 80.886719 C 14.175781 90.289062 8.148438 94.003906 0.660156 94.136719 C 4.457031 98.601562 7.804688 100.40625 7.804688 100.40625 L 31.835938 94.667969 C 31.835938 94.644531 33.085938 89.835938 32.554688 78.65625 Z M 32.554688 78.65625 " fill-opacity="1" fill-rule="nonzero"/></g></g></g></g><g mask="url(#356567b6fc)"><g transform="matrix(1, 0, 0, 1, 60, 168)"><g clip-path="url(#323bdfcc90)"><g clip-path="url(#77bbf4e9dc)"><path fill="#ffffff" d="M 13.976562 80.859375 C 6.75 69.148438 14.691406 2.300781 14.878906 0.839844 C 10.496094 20.707031 7.070312 40.121094 4.761719 52.335938 C 4.042969 56.1875 3.457031 59.71875 2.980469 62.984375 C 2.105469 69.199219 1.625 74.378906 1.441406 78.628906 C 0.882812 89.835938 2.128906 94.644531 2.128906 94.644531 L 26.164062 100.378906 C 26.164062 100.378906 29.539062 98.574219 33.308594 94.113281 C 25.820312 93.980469 19.792969 90.289062 13.976562 80.859375 Z M 13.976562 80.859375 " fill-opacity="1" fill-rule="nonzero"/></g></g></g></g></svg>