<svg xmlns="http://www.w3.org/2000/svg" xmlns:xlink="http://www.w3.org/1999/xlink" width="500" zoomAndPan="magnify" viewBox="0 0 375 374.999991" height="500" preserveAspectRatio="xMidYMid meet" version="1.0"><defs><clipPath id="cb55432af1"><path d="M 85 61.238281 L 290 61.238281 L 290 313.988281 L 85 313.988281 Z M 85 61.238281 " clip-rule="nonzero"/></clipPath></defs><path fill="#000000" d="M 288.46875 285.078125 C 288.382812 283.597656 288.296875 282.117188 288.214844 280.640625 C 288.148438 279.480469 288.027344 278.195312 287.171875 277.410156 C 286.746094 277.015625 286.179688 276.796875 285.761719 276.394531 C 285.128906 275.785156 284.933594 274.855469 284.796875 273.988281 C 284.195312 270.285156 284.320312 265.65625 284.578125 261.914062 C 285.390625 250.222656 283.605469 238.542969 282.097656 226.917969 C 280.789062 216.808594 279.316406 206.480469 276.601562 196.65625 C 274.71875 189.847656 272.796875 182.949219 270.988281 176.121094 C 268.914062 168.273438 268.507812 159.972656 265.035156 152.636719 C 259.761719 141.511719 258.78125 128.753906 255.855469 116.792969 C 254.960938 113.144531 254.355469 109.425781 253.429688 105.78125 C 252.503906 102.140625 251.234375 98.535156 249.140625 95.414062 C 246.851562 92 243.707031 88.371094 240.019531 86.5625 C 234.785156 83.996094 229.554688 81.429688 224.324219 78.863281 C 221.207031 77.335938 218.648438 74.992188 215.757812 73.074219 C 212.949219 71.214844 210.589844 68.679688 208.941406 65.742188 C 208.515625 64.984375 208.109375 64.171875 207.40625 63.664062 C 206.703125 63.15625 205.550781 63.371094 204.832031 63.859375 C 199.941406 67.175781 193.011719 69.050781 187.121094 68.574219 C 184.070312 68.328125 181.03125 67.996094 178 67.582031 C 175.378906 67.222656 172.769531 66.800781 170.160156 66.382812 C 167.542969 65.960938 164.578125 65.886719 162.644531 64.078125 C 159.699219 67.65625 156.152344 70.738281 152.203125 73.160156 C 152.234375 72.617188 150.925781 72.113281 150.386719 72.164062 C 149.84375 72.214844 149.378906 72.546875 148.90625 72.816406 C 147.644531 73.527344 146.199219 73.824219 144.785156 74.152344 C 136.628906 76.042969 129.109375 81.121094 121.394531 84.367188 C 118.726562 85.492188 116.816406 87.960938 115.695312 90.628906 C 114.570312 93.296875 114.128906 96.191406 113.613281 99.039062 C 112.453125 105.460938 109.40625 111.839844 108.496094 118.300781 C 107.25 127.15625 105.660156 136.824219 105.765625 145.765625 C 105.902344 156.753906 105.554688 169.304688 102.648438 179.902344 C 99.933594 189.804688 93.847656 199.183594 93.597656 209.449219 C 93.355469 219.507812 91.734375 230.480469 91.683594 240.542969 C 91.648438 247.136719 91.417969 254.609375 91.78125 261.191406 C 91.988281 264.941406 91.605469 268.917969 91.78125 272.679688 C 91.707031 272.691406 91.636719 272.710938 91.578125 272.75 C 91.382812 272.886719 91.292969 273.125 91.210938 273.347656 C 90.417969 275.554688 89.625 277.765625 88.832031 279.972656 C 88.464844 280.992188 88.09375 282.078125 88.332031 283.132812 C 88.683594 284.71875 90.253906 285.691406 91.738281 286.351562 C 94.222656 287.453125 96.851562 288.183594 99.472656 288.914062 C 104.632812 290.34375 109.90625 291.789062 115.25 291.488281 C 116.183594 291.433594 117.164062 291.3125 117.925781 290.769531 C 119.339844 289.769531 119.996094 288.160156 120.035156 286.429688 C 120.21875 286.351562 120.402344 286.273438 120.589844 286.195312 C 126.707031 292.597656 135.15625 297 142.351562 302.164062 C 149.210938 307.089844 157.78125 309.851562 166.222656 309.59375 C 173.476562 311.019531 181.332031 311.996094 188.703125 311.449219 C 195.554688 311.535156 202.367188 310.359375 209.191406 309.773438 C 218.449219 308.980469 227.925781 308.183594 236.125 303.8125 C 242.691406 300.3125 248.648438 294.785156 251 287.726562 C 250.867188 288.894531 250.734375 290.070312 250.878906 291.234375 C 251.027344 292.398438 251.484375 293.5625 252.363281 294.339844 C 253.253906 295.132812 254.46875 295.4375 255.640625 295.664062 C 265.253906 297.523438 277.40625 297.03125 284.054688 289.84375 C 285.242188 288.5625 287.578125 288.523438 288.28125 286.925781 C 288.535156 286.351562 288.503906 285.699219 288.46875 285.078125 Z M 124.011719 168.167969 C 123.589844 174.949219 123.128906 181.878906 120.464844 188.125 C 120.847656 187.230469 120.679688 185.679688 120.757812 184.703125 C 120.851562 183.476562 120.9375 182.25 121.011719 181.023438 C 121.15625 178.613281 121.261719 176.199219 121.328125 173.78125 C 121.460938 168.914062 121.472656 164.027344 121.238281 159.160156 C 121.125 156.753906 120.425781 154.722656 120.914062 152.230469 C 121.015625 151.714844 121.242188 151.105469 121.761719 151.015625 C 122.386719 150.90625 122.8125 151.628906 123.007812 152.234375 C 124.660156 157.328125 124.34375 162.824219 124.011719 168.167969 Z M 141.277344 296.222656 C 139.953125 295.414062 139.390625 294.246094 139.210938 293.828125 C 138.90625 269.84375 139.4375 264.640625 140.007812 264.609375 C 140.878906 264.5625 142.292969 276.449219 142.742188 280.238281 C 143.5625 287.136719 143.933594 292.90625 144.121094 296.980469 C 143.652344 296.992188 142.484375 296.960938 141.277344 296.222656 Z M 164.777344 303.578125 C 163.339844 303.171875 161.234375 303.484375 159.796875 303.078125 C 162.320312 278.164062 162.558594 252.710938 161.320312 227.695312 C 164.9375 252.796875 166.097656 278.25 164.777344 303.578125 Z M 185.835938 90.132812 C 184.289062 90.984375 182.492188 91.722656 180.792969 91.230469 C 178.070312 90.445312 176.960938 86.96875 174.480469 85.695312 C 174.503906 85.730469 174.523438 85.765625 174.546875 85.796875 C 174.582031 85.867188 174.386719 85.691406 174.222656 85.578125 C 174.15625 85.550781 174.097656 85.519531 174.03125 85.492188 C 174.066406 85.480469 174.140625 85.523438 174.222656 85.578125 C 174.308594 85.617188 174.398438 85.652344 174.480469 85.695312 C 171.851562 81.78125 169.433594 77.730469 167.238281 73.558594 C 169.980469 77.46875 174.386719 80.726562 177.472656 84.378906 C 178.84375 85.996094 180.453125 87.703125 182.5625 87.921875 C 184.699219 88.144531 186.65625 86.761719 188.238281 85.308594 C 192.992188 80.929688 196.042969 74.738281 200.941406 70.519531 C 198.878906 78.753906 193.273438 86.035156 185.835938 90.132812 Z M 204.417969 306.382812 C 204.507812 298.355469 204.636719 290.328125 204.800781 282.296875 C 204.96875 273.957031 203.34375 267.34375 205.394531 258.214844 C 206.34375 254.003906 207.621094 250.675781 208.53125 248.566406 C 208.15625 257.792969 208.023438 267.554688 208.226562 277.804688 C 208.421875 287.652344 208.910156 297.039062 209.609375 305.921875 C 208.414062 306.664062 206.0625 306.871094 204.417969 306.382812 Z M 233.71875 299.355469 C 232.726562 299.195312 231.933594 298.394531 231.511719 297.484375 C 231.09375 296.570312 230.984375 295.550781 230.882812 294.550781 C 229.832031 284.414062 228.867188 273.648438 227.816406 263.507812 C 229.644531 264.988281 230.035156 267.574219 230.347656 269.90625 C 231.609375 279.328125 233.691406 288.636719 236.566406 297.699219 C 236.871094 298.652344 234.710938 299.507812 233.71875 299.355469 Z M 233.71875 299.355469 " fill-opacity="1" fill-rule="nonzero"/><g clip-path="url(#cb55432af1)"><path fill="#dcd7d0" d="M 289.894531 285.429688 C 289.957031 282.234375 289.6875 279.027344 289.078125 275.890625 C 288.769531 274.304688 288.09375 272.023438 286.410156 271.480469 C 286.414062 271.402344 286.414062 271.320312 286.417969 271.261719 C 286.460938 270.613281 286.457031 269.964844 286.417969 269.320312 C 286.289062 267.175781 285.828125 265.070312 285.292969 262.976562 C 285.648438 248.410156 284.015625 233.890625 281.496094 219.5625 C 278.96875 205.199219 275.816406 190.894531 272.015625 176.8125 C 268.265625 162.921875 264.027344 149.148438 260.964844 135.078125 C 260.199219 131.5625 259.507812 128.03125 258.921875 124.484375 C 258.332031 120.921875 257.949219 117.332031 257.335938 113.777344 C 256.71875 110.199219 255.90625 106.65625 254.832031 103.1875 C 253.90625 100.203125 252.851562 97.21875 251.167969 94.566406 C 247.417969 88.652344 240.972656 85 234.871094 81.949219 C 231.5625 80.296875 228.191406 78.761719 224.933594 77 C 221.980469 75.402344 219.125 73.625 215.957031 72.503906 C 215.816406 72.289062 215.636719 72.101562 215.527344 72.035156 C 213.171875 70.59375 211.15625 68.703125 209.65625 66.375 C 208.351562 64.351562 207.382812 62.613281 204.8125 62.289062 C 204.761719 62.289062 204.726562 62.320312 204.699219 62.363281 C 204.625 62.332031 204.550781 62.320312 204.480469 62.339844 C 197.542969 64.167969 190.625 66.457031 183.367188 66.214844 C 176.039062 65.964844 168.917969 63.839844 161.941406 61.75 C 161.890625 61.734375 161.859375 61.742188 161.820312 61.742188 C 161.59375 61.441406 161.195312 61.230469 160.886719 61.542969 C 157.773438 64.722656 154.085938 67.273438 150.96875 70.457031 C 150.84375 70.585938 150.859375 70.824219 150.914062 71.003906 C 144.921875 74.328125 138.183594 75.730469 131.757812 77.953125 C 128.648438 79.03125 125.480469 80.269531 122.742188 82.128906 C 120.058594 83.945312 118.320312 86.5625 116.898438 89.429688 C 113.6875 95.90625 112.664062 103.390625 111.355469 110.4375 C 109.984375 117.816406 108.824219 125.230469 107.707031 132.652344 C 106.566406 140.210938 105.5 147.785156 104.238281 155.324219 C 103.011719 162.679688 101.425781 169.96875 99.757812 177.234375 C 96.402344 191.871094 92.566406 206.515625 90.917969 221.46875 C 89.085938 238.082031 89.855469 254.824219 90.363281 271.484375 C 90.34375 271.488281 90.320312 271.484375 90.300781 271.488281 C 88.316406 272.261719 87.894531 275.101562 87.347656 276.882812 C 86.527344 279.582031 85.789062 282.304688 85.121094 285.042969 C 85.03125 285.429688 85.363281 285.9375 85.699219 286.097656 C 93.398438 289.75 101.769531 292.066406 110.296875 292.519531 C 112.304688 292.625 114.316406 292.632812 116.328125 292.527344 C 117.066406 292.488281 118.28125 292.628906 118.933594 292.222656 C 119.339844 291.96875 119.632812 291.265625 119.785156 290.859375 C 120.175781 289.808594 120.417969 288.691406 120.558594 287.539062 C 125.847656 295.460938 134.75 300.21875 142.789062 304.851562 C 147.039062 307.296875 151.394531 309.675781 156.117188 311.078125 C 160.976562 312.519531 166.070312 312.902344 171.105469 313.167969 C 176.339844 313.445312 181.582031 313.722656 186.820312 313.699219 C 192.128906 313.679688 197.417969 313.25 202.683594 312.609375 C 212.421875 311.425781 222.480469 310.152344 231.597656 306.347656 C 239.605469 303.003906 246.992188 297.214844 250.515625 289.148438 C 250.632812 289.734375 250.8125 290.316406 251.0625 290.890625 C 251.886719 292.789062 253.160156 294.054688 255.199219 294.53125 C 257.589844 295.085938 260.183594 295.140625 262.625 295.160156 C 267.792969 295.203125 272.964844 294.484375 277.925781 293.035156 C 280.449219 292.300781 282.917969 291.371094 285.292969 290.246094 C 286.445312 289.699219 287.578125 289.105469 288.679688 288.46875 C 289.015625 288.273438 289.617188 288.066406 289.785156 287.730469 C 290.03125 287.234375 289.886719 285.984375 289.894531 285.429688 Z M 253.921875 102.492188 C 254.953125 105.8125 255.742188 109.207031 256.347656 112.632812 C 256.953125 116.042969 257.320312 119.484375 257.867188 122.902344 C 258.414062 126.304688 259.058594 129.691406 259.773438 133.0625 C 262.648438 146.632812 266.667969 159.917969 270.335938 173.285156 C 274.046875 186.816406 277.15625 200.515625 279.753906 214.308594 C 282.566406 229.238281 284.535156 244.378906 284.390625 259.589844 C 284.046875 258.304688 283.71875 257.023438 283.464844 255.734375 C 282.414062 250.351562 281.878906 244.886719 281.34375 239.433594 C 281.304688 239.027344 280.304688 237.96875 280.386719 238.773438 C 280.808594 243.089844 281.230469 247.414062 281.910156 251.699219 C 282.585938 255.953125 283.757812 260.035156 284.746094 264.214844 C 285.234375 266.285156 285.589844 268.410156 285.421875 270.542969 C 285.367188 271.191406 285.304688 271.578125 284.746094 271.945312 C 284.335938 272.214844 283.828125 272.386719 283.382812 272.585938 C 282.46875 273.003906 281.542969 273.398438 280.609375 273.769531 C 276.6875 275.324219 272.621094 276.488281 268.484375 277.308594 C 266.222656 277.753906 263.941406 278.101562 261.648438 278.355469 C 260.503906 278.480469 259.359375 278.582031 258.210938 278.664062 C 257.292969 278.726562 255.273438 279.074219 254.457031 278.289062 C 254.460938 278.265625 254.46875 278.253906 254.46875 278.230469 C 254.726562 267.945312 253.507812 257.722656 252.574219 247.5 C 251.625 237.078125 250.085938 226.726562 248.671875 216.359375 C 247.25 205.914062 245.949219 195.433594 245.550781 184.894531 C 245.347656 179.59375 245.453125 174.277344 245.058594 168.984375 C 244.679688 163.882812 243.71875 158.863281 242.625 153.871094 C 242.59375 153.738281 242.5625 153.605469 242.535156 153.46875 C 242.042969 145.246094 241.335938 137.039062 240.34375 128.855469 C 239.265625 119.929688 239.492188 110.835938 241.230469 102 C 242.054688 97.816406 243.847656 93.234375 248.273438 91.835938 C 248.609375 92.1875 248.957031 92.527344 249.273438 92.902344 C 251.605469 95.671875 252.863281 99.074219 253.921875 102.492188 Z M 233.148438 82.113281 C 237.984375 84.46875 243.109375 86.988281 247.121094 90.6875 C 243.765625 91.914062 241.808594 95.140625 240.859375 98.453125 C 239.65625 102.628906 239.199219 107.121094 238.898438 111.441406 C 238.257812 120.617188 239.660156 129.582031 240.515625 138.691406 C 240.796875 141.671875 241.027344 144.660156 241.238281 147.648438 C 239.082031 137.957031 236.886719 128.273438 234.710938 118.582031 C 234.546875 117.859375 233.292969 117.472656 233.511719 118.445312 C 235.847656 128.859375 238.183594 139.273438 240.519531 149.6875 C 241.640625 154.679688 242.792969 159.679688 243.445312 164.757812 C 244.140625 170.121094 244.109375 175.523438 244.222656 180.921875 C 244.648438 201.707031 248.726562 222.148438 250.921875 242.769531 C 252.152344 254.339844 253.53125 266.0625 253.242188 277.714844 C 253.039062 278.136719 252.835938 278.566406 252.632812 279.007812 C 249.132812 281.308594 246.859375 284.871094 244.582031 288.304688 C 241.96875 292.238281 239.167969 295.628906 234.917969 297.867188 C 234.054688 298.320312 233.167969 298.734375 232.269531 299.128906 C 231.691406 296.390625 231.460938 293.59375 231.171875 290.816406 C 230.855469 287.777344 230.535156 284.738281 230.21875 281.703125 C 229.582031 275.628906 228.949219 269.550781 228.3125 263.476562 C 228.257812 262.949219 227.132812 262.03125 227.222656 262.898438 C 227.875 269.132812 228.523438 275.363281 229.175781 281.59375 C 229.492188 284.628906 229.8125 287.667969 230.128906 290.707031 C 230.4375 293.660156 230.683594 296.628906 231.359375 299.527344 C 227.804688 301 224.035156 302.082031 220.351562 303.011719 C 217.003906 303.859375 213.59375 304.523438 210.160156 304.917969 C 209.65625 286.457031 209.15625 268 208.65625 249.539062 C 208.636719 248.859375 207.40625 248.121094 207.429688 249.046875 C 207.933594 267.609375 208.4375 286.171875 208.941406 304.734375 C 208.945312 304.839844 208.984375 304.941406 209.03125 305.042969 C 207.75 305.164062 206.460938 305.25 205.175781 305.289062 C 202.414062 305.371094 199.671875 305.210938 196.945312 304.785156 C 195.585938 304.574219 194.21875 304.304688 192.949219 303.773438 C 191.582031 303.195312 190.585938 302.242188 189.644531 301.152344 C 188.929688 282.824219 187.765625 264.503906 187.886719 246.152344 C 188.019531 226.515625 190.203125 206.9375 189.792969 187.292969 C 189.558594 176.140625 189.308594 164.992188 189.066406 153.839844 C 189.0625 153.800781 189.046875 153.761719 189.039062 153.726562 C 189.03125 153.410156 189.035156 153.097656 189.003906 152.785156 C 189.003906 152.761719 188.996094 152.734375 188.992188 152.710938 C 188.875 136.753906 189.9375 120.820312 189.84375 104.867188 C 190.59375 106.019531 191.464844 107.085938 192.5 107.996094 C 192.503906 108 192.507812 108 192.511719 108.003906 C 192.578125 108.066406 192.648438 108.113281 192.714844 108.144531 C 192.742188 108.15625 192.761719 108.15625 192.785156 108.160156 C 192.867188 108.179688 192.945312 108.171875 192.992188 108.09375 C 200.300781 96.382812 207.746094 84.738281 215.84375 73.550781 C 218.996094 74.535156 221.816406 76.261719 224.691406 77.851562 C 227.453125 79.378906 230.308594 80.734375 233.148438 82.113281 Z M 179.703125 223.902344 C 179.164062 210.414062 178.835938 196.96875 178.933594 183.46875 C 179.023438 170.394531 179.234375 157.316406 178.777344 144.246094 C 178.230469 128.574219 178.421875 112.921875 179.632812 97.28125 C 180.558594 95.515625 181.410156 93.71875 182.203125 91.9375 C 185.175781 93.339844 186.335938 97.054688 187.402344 99.898438 C 187.828125 101.03125 188.3125 102.160156 188.886719 103.246094 C 188.75 103.273438 188.652344 103.386719 188.652344 103.648438 C 188.78125 119.917969 187.671875 136.167969 187.796875 152.4375 C 187.800781 152.476562 187.816406 152.519531 187.824219 152.558594 C 187.835938 152.871094 187.828125 153.183594 187.859375 153.492188 C 187.859375 153.527344 187.871094 153.5625 187.878906 153.597656 C 188.09375 163.402344 188.304688 173.207031 188.519531 183.011719 C 188.734375 192.90625 188.519531 202.761719 188.019531 212.648438 C 187.527344 222.414062 186.902344 232.179688 186.738281 241.960938 C 186.574219 251.765625 186.820312 261.574219 187.195312 271.371094 C 187.609375 282.191406 188.1875 293.003906 188.574219 303.824219 C 185.300781 304.21875 182.007812 304.394531 178.722656 304.378906 C 181.246094 277.632812 180.773438 250.714844 179.703125 223.902344 Z M 207.304688 64.195312 C 208.304688 64.90625 208.855469 66.371094 209.546875 67.359375 C 210.097656 68.144531 210.695312 68.894531 211.347656 69.597656 C 212.382812 70.71875 213.539062 71.699219 214.792969 72.558594 C 206.792969 83.625 199.429688 95.132812 192.199219 106.707031 C 189.554688 104.167969 188.617188 100.6875 187.191406 97.40625 C 186.324219 95.414062 185.179688 93.28125 183.496094 91.816406 C 187.203125 91.183594 190.210938 88.703125 192.5625 85.8125 C 195.398438 82.328125 197.800781 78.425781 200.035156 74.539062 C 201.152344 72.597656 202.214844 70.625 203.21875 68.621094 C 203.738281 67.585938 204.238281 66.546875 204.722656 65.496094 C 204.925781 65.0625 205.117188 64.261719 205.441406 63.917969 C 205.921875 63.410156 206.832031 63.859375 207.304688 64.195312 Z M 183.53125 67.550781 C 190.542969 67.863281 197.214844 65.816406 203.910156 64.011719 C 201.5 69.242188 198.730469 74.304688 195.570312 79.121094 C 192.308594 84.09375 188.316406 90.140625 181.796875 90.617188 C 176.777344 87.554688 172.679688 83.265625 169.871094 78.097656 C 167.242188 73.253906 165.546875 67.957031 162.734375 63.214844 C 169.519531 65.246094 176.414062 67.238281 183.53125 67.550781 Z M 161.417969 63.121094 C 164.628906 68.257812 166.375 74.140625 169.375 79.390625 C 172.164062 84.277344 176.160156 88.402344 180.902344 91.414062 C 178.535156 96.71875 175.636719 102.242188 171.378906 106.261719 C 164.203125 95.066406 157.511719 83.546875 152.226562 71.324219 C 155.128906 68.410156 158.488281 66 161.417969 63.121094 Z M 120.894531 85.761719 C 123.429688 82.796875 127.371094 81.15625 130.945312 79.824219 C 137.785156 77.277344 145.074219 75.925781 151.527344 72.40625 C 156.917969 84.695312 163.695312 96.308594 170.953125 107.585938 C 171.089844 107.800781 171.542969 108.179688 171.816406 107.933594 C 174.453125 105.550781 176.570312 102.636719 178.386719 99.53125 C 177.496094 112.320312 177.214844 125.148438 177.570312 137.960938 C 177.941406 151.171875 178.054688 164.351562 177.949219 177.566406 C 177.839844 190.808594 177.871094 204.023438 178.4375 217.253906 C 179.027344 230.984375 179.5 244.722656 179.542969 258.464844 C 179.59375 273.789062 179.09375 289.121094 177.617188 304.375 C 172.160156 304.273438 166.726562 303.601562 161.40625 302.421875 C 161.875 282.625 162.101562 262.820312 162.078125 243.019531 C 162.074219 237.335938 162.046875 231.65625 162 225.972656 C 161.992188 225.394531 160.867188 224.519531 160.871094 225.417969 C 161.035156 245.304688 160.953125 265.191406 160.621094 285.074219 C 160.523438 290.757812 160.410156 296.4375 160.273438 302.117188 C 160.273438 302.136719 160.28125 302.15625 160.285156 302.175781 C 153.257812 300.515625 146.445312 297.941406 140.058594 294.539062 C 140.03125 288.710938 140 282.882812 139.972656 277.050781 C 139.972656 276.71875 139.746094 276.328125 139.496094 276.117188 C 139.367188 276.007812 138.992188 275.761719 138.996094 276.117188 C 139.023438 282.019531 139.050781 287.921875 139.078125 293.820312 C 139.082031 293.890625 139.09375 293.964844 139.113281 294.035156 C 137.066406 292.910156 135.058594 291.707031 133.109375 290.410156 C 130.90625 288.949219 128.835938 287.324219 126.710938 285.75 C 124.914062 284.421875 122.949219 283.273438 120.695312 283.269531 C 120.617188 281.476562 120.414062 279.699219 120.21875 278.050781 C 120.167969 277.601562 119.847656 277.113281 119.359375 277.089844 C 119.25 277.085938 119.136719 277.074219 119.027344 277.070312 C 119.128906 264.710938 119.226562 252.351562 119.328125 239.992188 C 119.414062 229.078125 119.613281 218.226562 120.546875 207.371094 C 120.601562 207.296875 120.644531 207.203125 120.65625 207.058594 C 120.703125 206.308594 120.742188 205.558594 120.789062 204.808594 C 120.882812 203.847656 120.96875 202.886719 121.074219 201.929688 C 122.4375 189.601562 124.195312 177.335938 124.875 164.941406 C 125.570312 152.308594 125.484375 139.652344 125.335938 127.007812 C 125.265625 120.875 124.9375 114.835938 123.535156 108.84375 C 122.203125 103.152344 120.035156 97.65625 116.886719 92.71875 C 117.882812 90.210938 119.179688 87.761719 120.894531 85.761719 Z M 91.542969 227.308594 C 92.730469 212.445312 96.25 197.90625 99.625 183.421875 C 101.316406 176.167969 102.988281 168.902344 104.375 161.582031 C 105.738281 154.378906 106.773438 147.121094 107.851562 139.875 C 108.960938 132.449219 110.0625 125.019531 111.328125 117.621094 C 111.972656 113.851562 112.65625 110.089844 113.410156 106.339844 C 114.109375 102.839844 114.742188 99.269531 115.785156 95.855469 C 116 95.15625 116.238281 94.449219 116.496094 93.742188 C 122.089844 102.820312 124.078125 113.53125 124.207031 124.082031 C 124.355469 136.492188 124.484375 148.914062 123.925781 161.316406 C 123.527344 170.113281 122.582031 178.84375 121.5625 187.574219 C 121.863281 177.03125 121.847656 166.476562 121.523438 155.945312 C 121.5 155.257812 120.257812 154.53125 120.285156 155.464844 C 120.8125 172.492188 120.523438 189.578125 119.417969 206.578125 C 119.410156 206.664062 119.425781 206.75 119.453125 206.832031 C 118.652344 216.347656 118.335938 225.855469 118.257812 235.433594 C 118.144531 249.285156 118.03125 263.140625 117.917969 276.996094 C 108.910156 276.425781 100.121094 274.148438 91.472656 271.660156 C 91.019531 256.886719 90.367188 242.066406 91.542969 227.308594 Z M 118.808594 289.632812 C 118.691406 290 118.523438 290.503906 118.226562 290.773438 C 117.917969 291.046875 117.621094 291.027344 117.191406 291.0625 C 116.285156 291.136719 115.375 291.1875 114.464844 291.214844 C 112.398438 291.277344 110.332031 291.222656 108.269531 291.054688 C 100.699219 290.433594 93.296875 288.359375 86.40625 285.191406 C 86.949219 282.988281 87.535156 280.792969 88.183594 278.617188 C 88.71875 276.816406 89.117188 273.621094 91.078125 272.796875 C 91.089844 272.800781 91.097656 272.808594 91.105469 272.8125 C 100.101562 275.410156 109.210938 277.785156 118.582031 278.363281 C 118.695312 278.414062 118.796875 278.425781 118.875 278.382812 C 118.984375 278.390625 119.09375 278.398438 119.203125 278.40625 C 119.625 282.082031 119.945312 286.097656 118.808594 289.632812 Z M 234.214844 303.464844 C 225.753906 307.847656 216.171875 309.34375 206.839844 310.644531 C 201.75 311.351562 196.636719 311.957031 191.5 312.21875 C 186.402344 312.476562 181.300781 312.339844 176.207031 312.109375 C 171.121094 311.882812 165.984375 311.757812 160.953125 310.949219 C 156.015625 310.152344 151.433594 308.433594 147.019531 306.109375 C 142.265625 303.601562 137.566406 300.863281 133.066406 297.929688 C 128.523438 294.96875 124.0625 291.5625 121.050781 286.980469 C 120.917969 286.777344 120.777344 286.660156 120.652344 286.605469 C 120.699219 285.964844 120.730469 285.320312 120.730469 284.667969 C 123.347656 284.464844 125.507812 286.179688 127.46875 287.699219 C 129.355469 289.160156 131.292969 290.558594 133.292969 291.867188 C 137.273438 294.46875 141.46875 296.746094 145.824219 298.660156 C 154.5625 302.5 163.957031 304.886719 173.480469 305.585938 C 175.039062 305.699219 176.597656 305.753906 178.160156 305.777344 C 178.355469 305.9375 178.53125 305.976562 178.582031 305.777344 C 182.222656 305.8125 185.863281 305.621094 189.476562 305.171875 C 189.679688 305.144531 189.789062 304.921875 189.785156 304.738281 C 189.757812 303.933594 189.722656 303.128906 189.691406 302.328125 C 191.015625 303.75 192.464844 304.847656 194.425781 305.457031 C 196.738281 306.175781 199.28125 306.433594 201.691406 306.574219 C 206.945312 306.882812 212.242188 306.25 217.382812 305.183594 C 222.492188 304.121094 227.578125 302.632812 232.417969 300.671875 C 234.859375 299.683594 237.25 298.496094 239.320312 296.851562 C 241.050781 295.480469 242.484375 293.789062 243.777344 292.007812 C 246.25 288.597656 248.3125 284.746094 251.421875 281.898438 C 250.917969 283.277344 250.53125 284.699219 250.394531 286.117188 C 250.339844 286.121094 250.292969 286.144531 250.269531 286.214844 C 247.574219 293.917969 241.34375 299.769531 234.214844 303.464844 Z M 288.691406 286.539062 C 288.265625 287.261719 286.828125 287.769531 286.085938 288.160156 C 285.132812 288.65625 284.160156 289.121094 283.175781 289.550781 C 281.324219 290.363281 279.421875 291.058594 277.484375 291.640625 C 273.367188 292.878906 269.09375 293.585938 264.800781 293.78125 C 262.78125 293.875 260.753906 293.851562 258.734375 293.710938 C 256.945312 293.589844 254.355469 293.65625 252.867188 292.496094 C 250.765625 290.863281 251.183594 287.214844 251.765625 284.988281 C 252.195312 283.351562 252.835938 281.777344 253.539062 280.238281 C 253.605469 280.195312 253.660156 280.144531 253.726562 280.105469 C 253.851562 280.023438 253.859375 279.855469 253.808594 279.664062 C 253.917969 279.421875 254.03125 279.179688 254.148438 278.941406 C 254.949219 279.796875 256.066406 280.113281 257.378906 280.078125 C 259.667969 280.015625 261.976562 279.746094 264.242188 279.445312 C 268.695312 278.847656 273.105469 277.886719 277.382812 276.503906 C 279.570312 275.800781 281.722656 274.980469 283.824219 274.042969 C 284.417969 273.777344 285.894531 273.386719 286.222656 272.820312 C 286.242188 272.789062 286.25 272.734375 286.265625 272.695312 C 288.488281 272.777344 288.589844 277.957031 288.738281 279.617188 C 288.847656 280.792969 288.90625 281.96875 288.917969 283.148438 C 288.929688 284.089844 289.171875 285.722656 288.691406 286.539062 Z M 181.625 102.425781 C 181.195312 101.636719 181.402344 100.566406 182.054688 99.949219 C 183.519531 98.5625 185.242188 99.636719 185.121094 101.515625 C 185.070312 102.253906 184.628906 102.988281 183.941406 103.277344 C 183.113281 103.625 182.054688 103.21875 181.625 102.425781 Z M 181.292969 128.585938 C 180.859375 127.792969 181.066406 126.726562 181.722656 126.109375 C 183.1875 124.722656 184.90625 125.796875 184.785156 127.671875 C 184.738281 128.414062 184.292969 129.144531 183.609375 129.433594 C 182.777344 129.785156 181.722656 129.378906 181.292969 128.585938 Z M 185.25 154.800781 C 185.203125 155.542969 184.757812 156.273438 184.074219 156.5625 C 183.242188 156.914062 182.1875 156.507812 181.757812 155.714844 C 181.328125 154.921875 181.53125 153.855469 182.1875 153.234375 C 183.652344 151.851562 185.371094 152.921875 185.25 154.800781 Z M 181.757812 182.425781 C 181.328125 181.632812 181.53125 180.566406 182.1875 179.949219 C 183.652344 178.5625 185.371094 179.636719 185.25 181.511719 C 185.203125 182.253906 184.757812 182.988281 184.074219 183.277344 C 183.242188 183.625 182.1875 183.21875 181.757812 182.425781 Z M 185.652344 208.308594 C 185.605469 209.050781 185.164062 209.78125 184.476562 210.070312 C 183.648438 210.421875 182.589844 210.015625 182.160156 209.222656 C 181.730469 208.429688 181.9375 207.363281 182.589844 206.746094 C 184.054688 205.359375 185.777344 206.433594 185.652344 208.308594 Z M 185.652344 208.308594 " fill-opacity="1" fill-rule="nonzero"/></g></svg>