<svg xmlns="http://www.w3.org/2000/svg" xmlns:xlink="http://www.w3.org/1999/xlink" width="500" zoomAndPan="magnify" viewBox="0 0 375 374.999991" height="500" preserveAspectRatio="xMidYMid meet" version="1.0"><defs><clipPath id="1f7192263c"><path d="M 126.136719 37.5 L 249 37.5 L 249 337.5 L 126.136719 337.5 Z M 126.136719 37.5 " clip-rule="nonzero"/></clipPath><clipPath id="a910ebe2f0"><path d="M 126.136719 40 L 249 40 L 249 337.5 L 126.136719 337.5 Z M 126.136719 40 " clip-rule="nonzero"/></clipPath><clipPath id="976d11a96a"><path d="M 126.136719 37.5 L 249 37.5 L 249 335 L 126.136719 335 Z M 126.136719 37.5 " clip-rule="nonzero"/></clipPath></defs><g clip-path="url(#1f7192263c)"><path fill="#3a3938" d="M 248.730469 268.492188 C 248.855469 266.875 248.730469 265.320312 248.730469 263.703125 C 248.855469 262.519531 248.730469 261.335938 248.730469 260.152344 C 248.730469 260.03125 248.667969 259.90625 248.480469 259.84375 C 248.542969 259.46875 248.605469 259.160156 248.542969 258.785156 C 248.855469 258.535156 248.730469 258.226562 248.730469 257.914062 C 248.855469 256.667969 248.542969 255.363281 248.542969 254.117188 C 248.542969 250.320312 248.605469 246.527344 248.542969 242.730469 C 248.480469 237.875 248.542969 233.082031 248.355469 228.230469 C 248.234375 223.625 248.109375 218.957031 248.046875 214.351562 C 248.046875 213.230469 247.984375 212.175781 247.921875 211.054688 C 247.796875 207.757812 247.671875 204.457031 247.484375 201.097656 C 247.363281 199.167969 247.421875 197.300781 247.300781 195.371094 C 247.113281 192.324219 247.113281 189.210938 247.050781 186.160156 C 246.988281 184.542969 247.175781 182.925781 247.175781 181.308594 C 247.238281 176.953125 247.175781 172.535156 247.175781 168.175781 C 247.175781 167.429688 247.113281 166.621094 247.113281 165.875 C 246.988281 162.886719 247.050781 159.902344 247.050781 156.914062 C 247.050781 156.476562 247.050781 155.980469 246.988281 155.542969 C 246.988281 155.296875 247.050781 155.046875 247.050781 154.796875 C 247.050781 147.019531 247.050781 139.179688 247.050781 131.398438 C 247.050781 130.214844 246.988281 129.097656 246.988281 127.914062 C 247.050781 126.980469 247.050781 125.984375 246.988281 125.050781 C 247.050781 122.996094 246.988281 120.945312 246.863281 118.890625 C 246.738281 116.152344 246.613281 113.476562 246.429688 110.738281 C 246.179688 107.9375 246.054688 105.199219 245.992188 102.398438 C 245.929688 99.660156 245.742188 96.921875 245.742188 94.121094 C 245.742188 92.441406 245.433594 90.761719 245.246094 89.082031 C 244.871094 87.339844 244.5625 85.597656 244.6875 83.792969 C 244.6875 83.730469 244.6875 83.667969 244.6875 83.605469 C 244.871094 80.496094 244.625 77.320312 244.4375 74.210938 C 244.25 71.285156 244.125 68.296875 243.9375 65.371094 C 243.8125 63.070312 243.691406 60.707031 243.503906 58.402344 C 243.253906 55.476562 242.695312 52.613281 241.886719 49.816406 C 241.761719 49.128906 241.949219 48.445312 241.949219 47.761719 C 241.949219 46.269531 242.007812 44.773438 241.886719 43.28125 C 241.824219 42.535156 241.949219 41.664062 241.574219 40.914062 C 241.574219 40.230469 241.078125 39.980469 240.515625 39.796875 C 238.460938 38.988281 236.285156 38.738281 234.105469 38.613281 C 227.882812 38.175781 221.722656 37.929688 215.5 37.867188 C 212.078125 37.804688 208.652344 37.742188 205.230469 37.992188 C 203.550781 38.117188 201.933594 38.300781 200.253906 38.238281 C 195.898438 38.054688 191.476562 38.363281 187.121094 38.488281 C 185.191406 38.550781 183.265625 38.488281 181.273438 38.550781 C 178.035156 38.613281 174.863281 38.925781 171.625 38.988281 C 170.195312 38.988281 168.703125 39.050781 167.207031 39.109375 C 161.980469 39.359375 156.753906 39.609375 151.527344 39.734375 C 148.226562 39.796875 144.992188 40.042969 141.695312 40.542969 C 140.449219 40.730469 139.203125 41.101562 138.023438 41.539062 C 137.523438 41.726562 136.902344 41.785156 136.777344 42.472656 C 136.464844 42.78125 136.40625 43.15625 136.40625 43.53125 C 136.03125 46.515625 135.65625 49.503906 135.347656 52.492188 C 135.222656 53.113281 134.972656 53.671875 134.972656 54.296875 C 134.847656 55.167969 134.660156 56.101562 134.351562 56.972656 C 133.726562 58.714844 133.167969 60.457031 132.980469 62.261719 C 132.796875 64.003906 132.671875 65.746094 132.546875 67.488281 C 132.234375 70.847656 131.984375 74.210938 131.921875 77.632812 C 131.921875 77.941406 131.921875 78.191406 131.921875 78.503906 C 131.675781 80.867188 131.488281 83.292969 131.488281 85.722656 C 131.363281 86.53125 131.300781 87.402344 131.300781 88.210938 C 131.300781 88.957031 131.300781 89.640625 131.238281 90.390625 C 131.175781 90.761719 131.113281 91.074219 131.238281 91.445312 C 130.992188 91.695312 131.113281 92.007812 131.113281 92.257812 C 131.175781 95.304688 130.929688 98.417969 130.804688 101.464844 C 130.742188 102.960938 130.742188 104.390625 130.617188 105.882812 C 130.304688 109.121094 130.242188 112.355469 130.058594 115.59375 C 129.933594 118.082031 129.808594 120.570312 129.621094 123.058594 C 129.371094 126.484375 129.125 129.90625 129 133.328125 C 128.875 136.003906 128.875 138.679688 128.8125 141.355469 C 128.625 150.628906 128.8125 159.839844 128.5625 169.109375 C 128.3125 177.511719 128.625 185.914062 128.3125 194.3125 C 128.191406 197.738281 128.3125 201.160156 128.128906 204.582031 C 127.941406 207.695312 128.128906 210.867188 127.878906 213.980469 C 127.753906 216.15625 127.753906 218.335938 127.691406 220.511719 C 127.566406 223.25 127.382812 225.988281 127.382812 228.789062 C 127.382812 229.226562 127.382812 229.722656 127.382812 230.160156 C 127.070312 233.269531 127.320312 236.382812 127.070312 239.429688 C 127.007812 239.867188 127.007812 240.363281 127.132812 240.800781 C 126.882812 241.421875 127.007812 242.046875 127.007812 242.667969 C 126.945312 243.851562 126.945312 245.03125 126.882812 246.214844 C 126.882812 246.835938 126.820312 247.398438 126.820312 248.019531 C 126.820312 249.699219 126.632812 251.378906 126.882812 253.121094 C 126.757812 253.371094 126.757812 253.621094 126.757812 253.867188 C 126.695312 255.613281 126.695312 257.417969 126.632812 259.160156 C 126.507812 263.515625 126.449219 267.933594 126.449219 272.289062 C 126.386719 279.570312 126.261719 286.851562 126.570312 294.132812 C 126.695312 297.304688 126.695312 300.480469 126.757812 303.652344 C 126.882812 309.566406 126.882812 315.476562 127.007812 321.328125 C 127.007812 321.511719 127.007812 321.761719 127.070312 321.949219 C 127.070312 322.136719 127.070312 322.324219 127.070312 322.507812 C 127.070312 323.691406 127.070312 324.9375 127.007812 326.117188 C 126.945312 327.175781 127.382812 327.859375 128.3125 328.296875 C 129.933594 329.042969 131.425781 329.914062 133.042969 330.722656 C 135.222656 331.78125 137.460938 332.527344 139.765625 333.214844 C 143.125 334.144531 146.484375 335.019531 149.96875 335.515625 C 151.773438 335.765625 153.519531 336.136719 155.324219 336.199219 C 158 336.261719 160.613281 335.828125 163.226562 335.703125 C 164.285156 335.640625 165.402344 335.390625 166.460938 335.140625 C 167.644531 334.894531 168.765625 334.582031 169.945312 334.332031 C 172 333.835938 173.867188 332.964844 175.546875 331.71875 C 176.230469 331.410156 176.667969 330.785156 177.226562 330.351562 C 177.539062 330.101562 177.601562 329.726562 177.601562 329.417969 C 177.539062 328.171875 177.726562 326.925781 177.726562 325.621094 C 177.789062 325.496094 177.851562 325.433594 177.851562 325.308594 C 178.035156 322.324219 178.285156 319.335938 178.472656 316.347656 C 178.597656 313.796875 178.722656 311.183594 178.90625 308.632812 C 179.09375 305.210938 179.15625 301.722656 179.34375 298.300781 C 179.46875 295.316406 179.65625 292.390625 179.777344 289.402344 C 179.902344 285.792969 180.027344 282.183594 180.214844 278.636719 C 180.339844 276.582031 180.277344 274.53125 180.402344 272.476562 C 180.589844 268.867188 180.464844 265.257812 180.648438 261.648438 C 180.835938 256.980469 180.589844 252.25 180.835938 247.582031 C 180.960938 245.34375 180.835938 243.039062 181.023438 240.800781 C 181.148438 239.246094 181.148438 237.6875 181.210938 236.132812 C 181.398438 232.460938 181.460938 228.789062 181.644531 225.117188 C 181.769531 222.753906 181.644531 220.328125 181.832031 217.898438 C 182.019531 215.410156 181.832031 212.984375 182.082031 210.496094 C 182.207031 208.8125 182.144531 207.195312 182.269531 205.515625 C 182.515625 201.96875 182.578125 198.484375 182.765625 194.9375 C 182.765625 194.5625 182.828125 194.253906 182.890625 193.878906 C 182.890625 192.324219 183.328125 190.828125 183.203125 189.273438 C 183.328125 187.21875 183.511719 185.167969 183.636719 183.175781 C 183.886719 179.378906 184.074219 175.644531 184.320312 171.847656 C 184.570312 167.242188 184.882812 162.640625 185.132812 157.972656 C 185.378906 153.117188 185.441406 148.324219 186.003906 143.472656 C 186.4375 139.863281 186.6875 136.253906 187.496094 132.707031 C 187.746094 131.585938 187.929688 130.464844 188.492188 129.285156 C 189.300781 132.894531 189.613281 136.441406 190.234375 139.863281 C 190.109375 141.105469 190.421875 142.351562 190.546875 143.597656 C 190.792969 145.898438 190.917969 148.261719 191.042969 150.566406 C 191.167969 152.746094 191.105469 154.921875 191.230469 157.101562 C 191.417969 160.085938 191.417969 163.011719 191.476562 166 C 191.601562 174.089844 191.417969 182.179688 191.726562 190.269531 C 191.789062 191.886719 191.789062 193.503906 191.851562 195.125 C 191.976562 198.421875 192.101562 201.65625 192.351562 204.957031 C 192.472656 206.636719 192.472656 208.253906 192.660156 209.933594 C 192.785156 211.054688 192.722656 212.113281 192.847656 213.230469 C 193.222656 216.34375 193.222656 219.457031 193.34375 222.503906 C 193.53125 226.300781 193.59375 230.035156 193.78125 233.832031 C 193.90625 237.316406 194.03125 240.800781 194.214844 244.285156 C 194.339844 246.214844 194.277344 248.082031 194.402344 250.011719 C 194.527344 252.5 194.714844 254.988281 194.839844 257.539062 C 195.027344 261.648438 195.273438 265.691406 195.460938 269.800781 C 195.585938 273.285156 195.773438 276.707031 195.773438 280.191406 C 195.773438 282.183594 195.835938 284.238281 195.898438 286.230469 C 196.019531 290.648438 196.082031 295.066406 196.144531 299.484375 C 196.269531 305.023438 196.207031 310.5 196.144531 316.039062 C 196.144531 319.648438 196.394531 323.257812 196.394531 326.867188 C 196.394531 327.113281 196.394531 327.363281 196.394531 327.613281 C 196.394531 328.109375 196.332031 328.609375 196.394531 329.105469 C 196.457031 331.410156 198.074219 333.273438 200.378906 333.835938 C 200.75 334.207031 201.25 334.269531 201.683594 334.519531 C 202.804688 334.957031 203.925781 335.265625 205.105469 335.515625 C 209.898438 336.699219 214.753906 336.945312 219.667969 337.195312 C 221.972656 337.320312 224.335938 337.007812 226.640625 337.007812 C 226.824219 337.007812 227.011719 337.007812 227.136719 336.945312 C 229.375 336.574219 231.554688 335.953125 233.671875 335.265625 C 237.777344 334.023438 241.511719 331.90625 245.183594 329.726562 C 246.613281 328.855469 247.984375 327.738281 248.234375 325.871094 C 248.296875 325.246094 248.417969 324.6875 248.480469 324.128906 C 248.542969 323.691406 248.667969 323.320312 248.480469 322.882812 C 248.542969 320.457031 248.605469 318.027344 248.667969 315.601562 C 248.730469 300.292969 248.730469 284.984375 248.730469 269.675781 C 248.792969 269.300781 248.855469 268.929688 248.730469 268.492188 Z M 230.746094 116.089844 C 230.996094 116.277344 231.058594 116.464844 231.121094 116.710938 C 231.058594 116.464844 230.996094 116.214844 230.746094 116.089844 Z M 230.746094 116.089844 " fill-opacity="1" fill-rule="nonzero"/></g><path fill="#3a3938" d="M 144.371094 43.28125 C 145.988281 43.09375 147.542969 42.84375 149.160156 42.660156 C 151.898438 42.347656 154.636719 42.097656 157.375 41.847656 C 158.496094 41.726562 159.617188 41.726562 160.738281 41.601562 C 163.289062 41.351562 165.902344 41.414062 168.453125 41.351562 C 170.507812 41.289062 172.621094 41.226562 174.675781 40.976562 C 175.734375 40.914062 176.855469 40.914062 177.914062 40.914062 C 183.511719 40.914062 189.175781 40.914062 194.777344 40.976562 C 197.015625 40.976562 199.320312 41.039062 201.558594 40.914062 C 206.101562 40.667969 210.582031 40.855469 215.125 40.730469 C 221.101562 40.542969 227.074219 40.605469 233.046875 40.605469 C 233.796875 40.605469 234.542969 40.667969 235.476562 40.914062 C 234.480469 41.351562 233.484375 41.414062 232.613281 41.601562 C 230 42.160156 227.324219 42.410156 224.648438 42.535156 C 222.53125 42.660156 220.414062 42.84375 218.363281 43.21875 C 217.429688 43.40625 216.558594 43.28125 215.625 43.46875 C 215.0625 43.589844 214.628906 43.15625 214.128906 43.09375 C 212.636719 42.84375 211.269531 43.15625 209.835938 43.53125 C 209.464844 43.652344 209.089844 43.777344 208.714844 43.777344 C 205.105469 43.777344 201.433594 44.152344 197.824219 43.964844 C 195.148438 43.777344 192.472656 43.902344 189.796875 43.839844 C 188.492188 43.777344 187.246094 43.902344 186.003906 44.027344 C 185.566406 44.089844 185.070312 44.089844 184.757812 44.523438 C 184.445312 44.960938 184.074219 44.898438 183.636719 44.898438 C 181.707031 44.835938 179.777344 44.835938 177.789062 44.710938 C 175.921875 44.585938 174.054688 44.648438 172.1875 44.648438 C 171.566406 44.648438 170.941406 44.773438 170.445312 44.152344 C 170.320312 43.964844 170.070312 44.027344 169.820312 44.027344 C 168.015625 44.027344 166.152344 43.902344 164.347656 44.523438 C 164.097656 44.585938 163.847656 44.648438 163.597656 44.585938 C 160.738281 44.277344 157.875 44.464844 155.011719 44.402344 C 152.894531 44.339844 150.84375 44.089844 148.789062 43.902344 C 147.355469 43.777344 145.925781 43.652344 144.496094 43.46875 C 144.371094 43.40625 144.371094 43.34375 144.371094 43.28125 Z M 144.371094 43.28125 " fill-opacity="1" fill-rule="nonzero"/><g clip-path="url(#a910ebe2f0)"><path fill="#000000" d="M 243.503906 85.097656 C 243.628906 85.097656 243.8125 85.097656 243.9375 85.097656 C 244.1875 85.347656 244.25 85.660156 244.3125 86.09375 C 243.875 85.785156 243.566406 85.535156 243.503906 85.097656 Z M 246.367188 126.484375 C 244 120.695312 240.890625 115.28125 237.839844 109.804688 C 237.28125 108.808594 236.71875 107.75 236.222656 106.695312 C 235.101562 104.515625 233.980469 102.335938 232.738281 100.285156 C 232.550781 99.972656 232.113281 99.535156 232.488281 99.289062 C 232.863281 99.039062 233.109375 99.597656 233.359375 99.910156 C 234.976562 101.964844 236.347656 104.203125 237.652344 106.445312 C 239.769531 110.179688 241.761719 113.914062 243.691406 117.707031 C 244.933594 120.074219 245.992188 122.5625 247.113281 124.988281 C 247.175781 122.9375 247.113281 120.882812 246.988281 118.828125 C 246.863281 116.089844 246.738281 113.414062 246.550781 110.675781 C 246.304688 107.875 246.179688 105.136719 246.117188 102.335938 C 246.054688 99.597656 245.867188 96.859375 245.867188 94.0625 C 245.867188 92.378906 245.558594 90.699219 245.371094 89.019531 C 245.058594 88.894531 244.871094 88.585938 244.6875 88.398438 C 243.191406 86.59375 241.949219 84.601562 240.828125 82.546875 C 238.523438 78.253906 236.285156 74.023438 234.667969 69.417969 C 233.484375 66.121094 232.488281 62.757812 231.554688 59.398438 C 231.058594 57.59375 230.433594 55.789062 229.9375 54.046875 C 229.8125 53.609375 229.5625 53.425781 229.066406 53.546875 C 227.632812 53.796875 226.203125 53.984375 224.773438 54.296875 C 222.21875 54.855469 219.730469 55.230469 217.117188 55.539062 C 216.496094 55.601562 216.246094 55.851562 216.183594 56.410156 C 216.121094 57.15625 215.933594 57.84375 215.871094 58.589844 C 215.8125 59.710938 215.5625 59.957031 214.441406 59.957031 C 213.132812 59.957031 211.828125 60.019531 210.519531 59.773438 C 209.585938 59.648438 209.523438 59.523438 209.585938 58.589844 C 209.648438 57.90625 210.023438 57.15625 209.523438 56.660156 C 209.089844 56.285156 208.28125 56.535156 207.660156 56.535156 C 204.171875 56.535156 200.6875 56.597656 197.140625 56.597656 C 196.144531 56.597656 196.144531 56.597656 196.082031 57.59375 C 195.960938 63.132812 195.773438 68.609375 195.648438 74.148438 C 195.585938 77.320312 195.648438 80.433594 195.585938 83.605469 C 195.523438 86.71875 195.460938 89.890625 194.902344 93.003906 C 194.464844 95.429688 193.160156 97.234375 191.167969 98.542969 C 189.796875 99.414062 188.492188 100.410156 187.183594 101.339844 C 186.5625 101.777344 186.375 102.335938 186.375 103.144531 C 186.3125 105.511719 186.125 107.875 185.816406 110.242188 C 185.753906 109.867188 185.628906 109.433594 185.628906 109.058594 C 185.378906 106.007812 184.882812 103.023438 184.757812 100.035156 C 184.632812 97.484375 184.199219 94.996094 184.011719 92.441406 C 183.699219 88.648438 183.636719 84.914062 183.824219 81.117188 C 183.949219 78.191406 184.382812 75.265625 184.820312 72.40625 C 185.191406 70.164062 185.628906 67.925781 186.0625 65.621094 C 186.25 64.4375 186.25 63.320312 186.1875 62.136719 C 186.0625 60.457031 185.816406 58.839844 185.691406 57.15625 C 185.628906 56.660156 185.441406 56.535156 185.007812 56.597656 C 184.570312 56.597656 184.074219 56.597656 183.636719 56.660156 C 182.144531 56.785156 180.648438 56.722656 179.21875 56.722656 C 177.039062 56.722656 174.863281 56.847656 172.621094 56.972656 C 171.8125 57.035156 171.003906 57.035156 170.195312 57.035156 C 169.136719 57.035156 169.136719 57.035156 169.199219 58.089844 C 169.261719 58.777344 169.261719 59.398438 169.386719 60.082031 C 169.511719 60.828125 169.386719 61.015625 168.703125 61.328125 C 168.328125 61.515625 167.957031 61.636719 167.582031 61.636719 C 166.460938 61.515625 165.339844 61.515625 164.222656 61.265625 C 163.597656 61.140625 163.226562 60.828125 163.101562 60.144531 C 162.976562 59.335938 162.726562 58.527344 162.664062 57.78125 C 162.601562 57.21875 162.355469 57.097656 161.855469 57.097656 C 159.429688 57.097656 157.003906 57.097656 154.574219 56.847656 C 152.085938 56.597656 149.535156 56.597656 147.109375 56.222656 C 146.546875 56.164062 146.238281 56.347656 146.050781 56.847656 C 145.550781 57.90625 145.367188 58.960938 145.179688 60.082031 C 145.054688 61.265625 144.929688 62.449219 144.804688 63.691406 C 144.617188 65.125 144.183594 66.429688 143.625 67.738281 C 142.75 69.789062 142.003906 71.90625 141.132812 73.960938 C 140.136719 76.324219 139.019531 78.628906 137.710938 80.867188 C 136.527344 82.796875 135.59375 84.851562 134.601562 86.902344 C 133.789062 88.648438 132.734375 90.203125 131.175781 91.445312 C 130.929688 91.695312 131.050781 92.007812 131.050781 92.257812 C 131.113281 95.304688 130.867188 98.417969 130.742188 101.464844 C 130.742188 102.960938 130.742188 104.390625 130.617188 105.882812 C 130.304688 109.121094 130.242188 112.355469 130.058594 115.59375 C 129.933594 118.082031 129.808594 120.570312 129.621094 123.058594 C 129.371094 126.484375 129.125 129.90625 129 133.328125 C 128.875 136.003906 128.875 138.679688 128.8125 141.355469 C 128.625 150.628906 128.8125 159.839844 128.5625 169.109375 C 128.3125 177.511719 128.625 185.914062 128.3125 194.3125 C 128.191406 197.738281 128.3125 201.160156 128.128906 204.582031 C 127.941406 207.695312 128.128906 210.867188 127.878906 213.980469 C 127.753906 216.15625 127.753906 218.335938 127.691406 220.511719 C 127.566406 223.25 127.382812 225.988281 127.382812 228.789062 C 127.382812 229.226562 127.382812 229.722656 127.382812 230.160156 C 127.070312 233.269531 127.320312 236.382812 127.070312 239.429688 C 127.441406 239.804688 127.566406 240.242188 127.753906 240.738281 C 128.625 242.792969 129.558594 244.785156 130.429688 246.835938 C 131.300781 248.828125 132.609375 250.507812 133.914062 252.125 C 137.398438 256.296875 141.195312 260.214844 145.429688 263.640625 C 146.300781 264.324219 147.292969 264.757812 148.289062 265.320312 C 148.042969 265.628906 147.855469 265.445312 147.667969 265.382812 C 146.050781 265.007812 144.617188 264.261719 143.375 263.203125 C 139.640625 260.214844 136.21875 256.917969 133.230469 253.121094 C 131.425781 250.820312 129.871094 248.394531 129 245.59375 C 128.4375 243.972656 127.691406 242.355469 127.070312 240.800781 C 126.820312 241.421875 126.945312 242.046875 126.945312 242.667969 C 126.882812 243.851562 126.882812 245.03125 126.820312 246.214844 C 127.070312 246.152344 127.070312 246.277344 127.132812 246.464844 C 127.628906 248.332031 128.191406 250.199219 128.6875 252.0625 C 129.371094 254.679688 130.554688 257.105469 131.738281 259.46875 C 133.605469 263.265625 135.65625 267 137.773438 270.671875 C 139.082031 272.910156 140.636719 275.027344 142.253906 277.144531 C 143.3125 278.511719 144.742188 279.257812 146.484375 279.257812 C 147.980469 279.257812 149.472656 279.382812 150.902344 279.132812 C 151.214844 279.074219 151.527344 279.132812 151.835938 279.132812 C 152.894531 279.257812 154.015625 279.320312 155.324219 279.132812 C 153.332031 281 151.652344 282.804688 148.789062 282.621094 C 147.355469 282.558594 145.925781 282.621094 144.496094 282.308594 C 142.316406 281.75 140.574219 280.628906 139.265625 278.824219 C 138.332031 277.515625 137.460938 276.085938 136.839844 274.589844 C 136.40625 273.597656 135.90625 272.601562 135.347656 271.667969 C 133.542969 268.617188 131.921875 265.507812 130.742188 262.144531 C 130.242188 260.777344 129.433594 259.46875 128.8125 258.164062 C 128.066406 256.542969 127.441406 254.863281 126.757812 253.183594 C 126.632812 253.433594 126.632812 253.683594 126.632812 253.929688 C 126.570312 255.671875 126.570312 257.476562 126.507812 259.222656 C 126.386719 263.578125 126.324219 267.996094 126.324219 272.351562 C 126.261719 279.632812 126.136719 286.914062 126.449219 294.195312 C 126.570312 297.367188 126.570312 300.542969 126.632812 303.714844 C 126.757812 309.628906 126.757812 315.539062 126.882812 321.390625 C 126.882812 321.574219 126.882812 321.824219 126.945312 322.011719 C 127.941406 322.324219 128.875 322.695312 129.746094 323.195312 C 135.472656 326.304688 141.632812 327.800781 147.980469 328.792969 C 152.585938 329.542969 157.1875 329.542969 161.855469 329.355469 C 165.15625 329.230469 168.453125 328.609375 171.625 327.613281 C 172.683594 327.238281 173.804688 326.925781 174.863281 326.617188 C 175.296875 326.492188 175.546875 326.304688 175.484375 325.808594 C 175.484375 325.558594 175.484375 325.308594 175.484375 325.0625 C 175.484375 313.859375 175.484375 302.71875 175.546875 291.519531 C 175.546875 287.164062 175.671875 282.804688 175.796875 278.449219 C 175.984375 273.597656 176.167969 268.804688 176.417969 263.949219 C 176.730469 258.101562 177.039062 252.25 177.226562 246.402344 C 177.414062 242.046875 177.789062 237.625 177.851562 233.269531 C 177.851562 232.398438 177.914062 231.589844 177.851562 230.71875 C 177.726562 226.113281 178.097656 221.507812 178.472656 216.964844 C 179.03125 210.742188 179.65625 204.519531 179.71875 198.234375 C 179.777344 193.503906 180.152344 188.777344 180.339844 184.046875 C 180.464844 181.246094 180.835938 178.382812 181.023438 175.582031 C 181.148438 173.902344 181.210938 172.222656 181.273438 170.480469 C 181.398438 166.746094 181.769531 163.011719 182.082031 159.277344 C 182.394531 155.730469 182.578125 152.246094 182.828125 148.699219 C 183.078125 144.839844 183.265625 140.984375 183.636719 137.1875 C 184.011719 133.265625 184.257812 129.285156 184.445312 125.363281 C 184.507812 123.121094 184.757812 120.945312 184.882812 118.703125 C 184.945312 117.957031 185.132812 117.210938 185.503906 116.589844 C 185.941406 115.902344 186.5625 115.902344 187.058594 116.527344 C 187.246094 116.773438 187.371094 117.085938 187.496094 117.398438 C 188.679688 120.199219 189.300781 123.121094 189.671875 126.109375 C 190.421875 131.460938 191.355469 136.75 192.535156 142.039062 C 192.972656 144.03125 193.46875 145.960938 193.78125 147.953125 C 194.09375 150.066406 194.15625 152.183594 194.15625 154.300781 C 194.214844 158.53125 194.277344 162.761719 194.277344 166.996094 C 194.214844 172.035156 194.09375 177.078125 194.03125 182.179688 C 193.96875 184.917969 194.214844 187.71875 194.277344 190.457031 C 194.339844 192.386719 194.402344 194.3125 194.402344 196.304688 C 194.402344 200.289062 194.777344 204.269531 194.964844 208.253906 C 195.148438 211.179688 195.523438 214.105469 195.960938 216.964844 C 196.832031 223.6875 197.390625 230.40625 197.453125 237.128906 C 197.515625 242.480469 197.886719 247.832031 198.199219 253.246094 C 198.386719 256.296875 198.511719 259.40625 198.695312 262.457031 C 198.820312 264.199219 198.945312 266.003906 199.132812 267.746094 C 199.445312 270.859375 199.445312 273.96875 199.507812 277.082031 C 199.628906 282.683594 200.003906 288.21875 200.191406 293.820312 C 200.316406 299.171875 200.625 304.460938 201 309.8125 C 201.375 315.664062 201.496094 321.453125 201.558594 327.300781 C 201.558594 328.671875 201.25 328.671875 202.867188 329.042969 C 205.976562 329.726562 209.152344 330.289062 212.386719 330.660156 C 215.996094 331.035156 219.605469 330.847656 223.277344 330.476562 C 227.570312 330.039062 231.804688 329.292969 235.972656 328.109375 C 238.773438 327.363281 241.511719 326.367188 244.0625 325 C 245.496094 324.25 246.988281 323.503906 248.417969 322.820312 C 248.480469 320.394531 248.542969 317.964844 248.605469 315.539062 C 248.667969 300.230469 248.667969 284.921875 248.667969 269.613281 C 248.667969 269.238281 248.730469 268.804688 248.605469 268.429688 C 247.671875 271.292969 246.117188 273.96875 245.058594 276.769531 C 244.375 278.636719 243.378906 280.316406 242.320312 282.058594 C 242.007812 282.621094 241.699219 283.179688 241.449219 283.738281 C 241.015625 284.796875 240.453125 285.730469 239.832031 286.726562 C 238.339844 288.96875 236.160156 289.839844 233.546875 289.777344 C 233.171875 289.777344 232.738281 289.714844 232.363281 289.714844 C 231.492188 289.777344 230.746094 289.527344 230.0625 289.027344 C 229.4375 288.59375 228.816406 288.035156 228.007812 287.347656 C 229.253906 287.285156 230.25 287.164062 231.242188 287.222656 C 232.175781 287.285156 233.171875 287.285156 234.105469 287.285156 C 235.722656 287.347656 236.84375 286.601562 237.777344 285.296875 C 239.519531 282.867188 241.136719 280.316406 242.570312 277.640625 C 243.753906 275.402344 244.996094 273.160156 246.054688 270.859375 C 247.050781 268.742188 247.546875 266.441406 248.234375 264.199219 C 248.296875 263.949219 248.296875 263.640625 248.605469 263.515625 C 248.730469 262.332031 248.605469 261.148438 248.605469 259.96875 C 248.605469 259.84375 248.542969 259.71875 248.355469 259.65625 C 247.734375 260.714844 247.363281 261.898438 246.925781 263.078125 C 246.179688 265.320312 244.871094 267.25 243.378906 269.054688 C 241.449219 271.417969 239.210938 273.535156 236.78125 275.460938 C 235.785156 276.273438 234.730469 276.894531 233.546875 277.207031 C 233.421875 277.265625 233.296875 277.328125 233.109375 277.082031 C 234.230469 276.519531 235.226562 275.898438 236.160156 275.027344 C 239.210938 272.226562 242.195312 269.363281 244.625 266.003906 C 245.742188 264.449219 246.304688 262.707031 247.113281 261.023438 C 247.484375 260.214844 247.734375 259.28125 248.296875 258.535156 C 248.605469 258.289062 248.480469 257.976562 248.480469 257.664062 C 248.605469 256.421875 248.296875 255.113281 248.296875 253.867188 C 248.296875 250.074219 248.355469 246.277344 248.296875 242.480469 C 248.234375 237.625 248.296875 232.835938 248.109375 227.980469 C 247.984375 223.375 247.859375 218.707031 247.796875 214.105469 C 247.796875 212.984375 247.734375 211.925781 247.671875 210.804688 C 247.546875 207.507812 247.421875 204.207031 247.238281 200.847656 C 247.113281 198.917969 247.175781 197.050781 247.050781 195.125 C 246.863281 192.074219 246.863281 188.960938 246.800781 185.914062 C 246.738281 184.296875 246.925781 182.675781 246.925781 181.058594 C 246.988281 176.703125 246.925781 172.285156 246.925781 167.929688 C 246.925781 167.183594 246.863281 166.371094 246.863281 165.625 C 246.675781 165.625 246.550781 165.5625 246.429688 165.378906 C 245.058594 163.695312 243.9375 161.890625 243.066406 159.902344 C 241.386719 155.730469 240.019531 151.4375 238.648438 147.207031 C 236.71875 141.292969 235.601562 135.132812 233.980469 129.160156 C 232.925781 125.113281 231.804688 121.132812 230.683594 117.085938 C 230.558594 116.652344 230.496094 116.277344 230.371094 115.839844 C 230.371094 115.777344 230.308594 115.71875 230.308594 115.65625 C 230.308594 115.59375 230.25 115.53125 230.25 115.46875 C 230.433594 115.46875 230.25 115.59375 230.308594 115.65625 C 230.371094 115.71875 230.371094 115.777344 230.371094 115.839844 C 230.683594 116.027344 230.746094 116.402344 230.871094 116.710938 C 232.113281 119.886719 233.296875 123.121094 234.605469 126.234375 C 236.472656 130.589844 237.964844 135.070312 239.457031 139.550781 C 241.261719 144.902344 243.566406 150.066406 246.492188 154.921875 C 246.550781 155.046875 246.675781 155.109375 246.738281 155.234375 C 246.738281 154.984375 246.800781 154.734375 246.800781 154.488281 C 246.800781 146.707031 246.800781 138.867188 246.800781 131.089844 C 246.800781 129.90625 246.738281 128.785156 246.738281 127.601562 C 246.738281 127.480469 246.550781 126.980469 246.367188 126.484375 Z M 174.988281 77.132812 C 175.050781 79.933594 175.113281 82.734375 175.175781 85.535156 C 175.234375 87.714844 174.738281 89.890625 174.488281 92.070312 C 173.929688 96.175781 173.308594 100.285156 172.683594 104.453125 C 172.0625 108.558594 171.441406 112.605469 170.878906 116.710938 C 170.570312 118.828125 170.382812 121.007812 170.132812 123.121094 C 169.574219 127.914062 168.890625 132.707031 168.140625 137.496094 C 167.457031 141.917969 166.898438 146.335938 166.273438 150.691406 C 165.777344 154.550781 165.28125 158.40625 164.84375 162.265625 C 164.40625 165.875 164.097656 169.484375 163.722656 173.09375 C 163.535156 175.148438 163.289062 177.136719 163.039062 179.191406 C 163.039062 179.441406 163.039062 179.753906 162.726562 180.0625 C 162.664062 178.757812 162.851562 177.511719 162.976562 176.328125 C 163.226562 172.84375 163.476562 169.359375 163.785156 165.875 C 164.097656 162.515625 164.40625 159.152344 164.78125 155.730469 C 165.09375 152.804688 165.402344 149.820312 165.714844 146.894531 C 165.902344 144.964844 166.210938 143.035156 166.335938 141.105469 C 166.523438 139.238281 166.585938 137.375 166.773438 135.507812 C 167.023438 132.207031 167.332031 128.910156 167.519531 125.550781 C 167.832031 120.632812 168.765625 115.777344 169.261719 110.925781 C 169.761719 106.445312 170.257812 102.027344 170.632812 97.546875 C 170.941406 93.4375 171.441406 89.332031 172 85.222656 C 172.25 83.234375 172.5 81.242188 172.621094 79.25 C 172.746094 77.382812 173.183594 75.640625 173.429688 73.773438 C 173.492188 73.523438 173.492188 73.214844 173.554688 72.964844 C 173.679688 71.84375 173.742188 70.660156 174.800781 69.851562 C 174.988281 72.28125 174.925781 74.707031 174.988281 77.132812 Z M 230.25 114.347656 L 230.308594 114.285156 Z M 230.433594 115.03125 L 230.433594 114.96875 Z M 190.234375 139.988281 C 190.546875 140.609375 190.605469 141.355469 190.730469 142.039062 C 191.292969 144.964844 192.101562 147.890625 192.472656 150.878906 C 192.722656 152.992188 192.722656 155.109375 192.785156 157.226562 C 193.097656 164.628906 192.910156 171.972656 193.035156 179.378906 C 193.160156 184.234375 193.035156 189.085938 193.222656 193.878906 C 193.34375 197.175781 193.222656 200.476562 193.34375 203.710938 C 193.46875 206.199219 193.84375 208.691406 194.214844 211.179688 C 194.589844 213.292969 194.652344 215.410156 194.839844 217.527344 C 195.085938 220.699219 195.335938 223.9375 195.585938 227.109375 C 195.773438 229.535156 195.898438 231.964844 196.082031 234.390625 C 196.394531 238.1875 196.269531 241.921875 196.519531 245.714844 C 196.707031 249.015625 197.015625 252.25 197.265625 255.550781 C 197.390625 257.292969 197.390625 259.097656 197.453125 260.839844 C 197.578125 263.640625 197.765625 266.5 197.765625 269.300781 C 197.824219 274.40625 197.949219 279.570312 198.199219 284.671875 C 198.449219 289.277344 198.820312 293.882812 199.007812 298.550781 C 199.132812 302.410156 199.195312 306.265625 199.257812 310.125 C 199.382812 314.171875 199.507812 318.277344 199.691406 322.324219 C 199.753906 324.128906 199.878906 325.996094 200.003906 327.800781 C 200.003906 327.921875 199.941406 327.984375 199.941406 328.109375 C 199.007812 327.921875 198.199219 327.488281 197.328125 327.175781 C 197.015625 327.050781 196.707031 326.804688 196.332031 326.867188 C 196.332031 323.257812 196.082031 319.648438 196.082031 316.039062 C 196.082031 310.5 196.144531 305.023438 196.082031 299.484375 C 195.960938 295.066406 195.960938 290.648438 195.835938 286.230469 C 195.773438 284.238281 195.710938 282.183594 195.710938 280.191406 C 195.710938 276.707031 195.585938 273.285156 195.398438 269.800781 C 195.210938 265.691406 194.964844 261.648438 194.777344 257.539062 C 194.652344 255.050781 194.464844 252.5625 194.339844 250.011719 C 194.214844 248.082031 194.277344 246.214844 194.15625 244.285156 C 193.96875 240.800781 193.84375 237.316406 193.71875 233.832031 C 193.53125 230.035156 193.46875 226.300781 193.28125 222.503906 C 193.160156 219.394531 193.097656 216.28125 192.785156 213.230469 C 192.660156 212.175781 192.660156 211.054688 192.597656 209.933594 C 192.410156 208.316406 192.410156 206.636719 192.289062 204.957031 C 192.039062 201.65625 191.914062 198.421875 191.789062 195.125 C 191.726562 193.503906 191.726562 191.886719 191.664062 190.269531 C 191.355469 182.179688 191.539062 174.089844 191.417969 166 C 191.355469 163.011719 191.355469 160.085938 191.167969 157.101562 C 191.042969 154.921875 191.105469 152.746094 190.980469 150.566406 C 190.792969 148.261719 190.730469 145.898438 190.484375 143.597656 C 190.421875 142.539062 190.109375 141.292969 190.234375 139.988281 Z M 177.789062 325.621094 C 177.539062 324.375 177.601562 323.195312 177.601562 321.949219 C 177.539062 316.597656 177.476562 311.246094 177.601562 305.957031 C 177.789062 296.996094 177.664062 287.972656 177.789062 279.011719 C 177.972656 270.296875 178.097656 261.648438 178.222656 252.933594 C 178.285156 249.449219 178.597656 246.027344 178.722656 242.542969 C 178.785156 239.992188 178.96875 237.378906 179.03125 234.828125 C 179.15625 230.222656 179.34375 225.679688 179.65625 221.074219 C 179.902344 217.652344 180.152344 214.164062 180.464844 210.742188 C 180.960938 205.828125 181.085938 200.972656 181.335938 196.058594 C 181.523438 192.074219 181.582031 188.089844 181.769531 184.109375 C 181.894531 180.625 182.144531 177.136719 182.515625 173.652344 C 182.640625 172.222656 182.703125 170.792969 182.828125 169.296875 C 182.828125 169.046875 182.765625 168.800781 183.140625 168.613281 C 183.140625 169.917969 183.203125 171.164062 183.140625 172.410156 C 182.953125 176.703125 183.015625 180.933594 183.015625 185.230469 C 183.015625 186.347656 183.015625 187.46875 183.015625 188.652344 C 183.015625 188.898438 182.953125 189.210938 183.203125 189.460938 C 183.328125 191.015625 182.890625 192.570312 182.890625 194.066406 C 182.890625 194.4375 182.828125 194.75 182.765625 195.125 C 182.578125 198.671875 182.515625 202.15625 182.269531 205.703125 C 182.144531 207.382812 182.207031 209 182.082031 210.679688 C 181.894531 213.171875 182.019531 215.597656 181.832031 218.085938 C 181.644531 220.511719 181.769531 222.878906 181.644531 225.304688 C 181.460938 228.976562 181.398438 232.648438 181.210938 236.320312 C 181.148438 237.875 181.148438 239.429688 181.023438 240.988281 C 180.773438 243.226562 180.960938 245.53125 180.835938 247.769531 C 180.527344 252.4375 180.835938 257.167969 180.648438 261.835938 C 180.527344 265.445312 180.589844 269.054688 180.402344 272.664062 C 180.277344 274.714844 180.339844 276.769531 180.214844 278.824219 C 180.027344 282.433594 179.902344 286.042969 179.777344 289.589844 C 179.65625 292.578125 179.53125 295.5 179.34375 298.488281 C 179.15625 301.910156 179.09375 305.394531 178.90625 308.820312 C 178.785156 311.371094 178.660156 313.984375 178.472656 316.535156 C 178.285156 319.523438 178.097656 322.507812 177.851562 325.496094 C 177.914062 325.433594 177.851562 325.558594 177.789062 325.621094 Z M 136.839844 42.410156 C 137.773438 43.589844 139.203125 43.777344 140.511719 44.089844 C 142.003906 44.464844 143.5 44.523438 144.992188 44.710938 C 147.355469 44.960938 149.785156 45.210938 152.148438 45.457031 C 154.265625 45.644531 156.378906 45.644531 158.496094 45.644531 C 159.804688 45.644531 161.109375 45.582031 162.417969 45.707031 C 163.164062 45.769531 163.226562 45.832031 163.164062 46.578125 C 162.914062 49.566406 162.601562 52.492188 162.664062 55.476562 C 162.664062 55.976562 162.417969 56.101562 161.980469 56.039062 C 160.675781 56.039062 159.367188 56.039062 158.0625 55.976562 C 154.636719 55.726562 151.214844 55.476562 147.792969 55.167969 C 147.417969 55.167969 146.984375 55.167969 146.734375 54.855469 C 146.671875 54.792969 146.546875 54.730469 146.421875 54.730469 C 144.496094 54.980469 142.75 54.171875 140.945312 53.984375 C 140.074219 53.859375 139.203125 53.859375 138.332031 53.546875 C 137.648438 53.300781 136.964844 53.050781 136.28125 52.738281 C 135.96875 52.613281 135.65625 52.367188 135.285156 52.429688 C 135.65625 49.441406 135.96875 46.453125 136.34375 43.46875 C 136.464844 43.09375 136.527344 42.71875 136.839844 42.410156 Z M 127.070312 322.632812 C 130.554688 324.375 133.851562 326.367188 137.648438 327.425781 C 142.378906 328.730469 147.109375 329.914062 152.023438 330.351562 C 155.632812 330.660156 159.304688 330.660156 162.914062 330.476562 C 166.835938 330.226562 170.632812 329.292969 174.363281 328.046875 C 174.675781 327.921875 174.988281 327.738281 175.546875 327.859375 C 175.546875 329.167969 175.546875 330.476562 175.609375 331.78125 C 173.929688 333.027344 172.0625 333.898438 170.007812 334.394531 C 168.828125 334.644531 167.707031 335.019531 166.523438 335.203125 C 165.464844 335.453125 164.40625 335.703125 163.289062 335.765625 C 160.675781 335.890625 158 336.324219 155.382812 336.261719 C 153.578125 336.261719 151.835938 335.828125 150.03125 335.578125 C 146.546875 335.140625 143.1875 334.207031 139.828125 333.273438 C 137.523438 332.652344 135.222656 331.90625 133.105469 330.785156 C 131.550781 329.976562 129.996094 329.105469 128.375 328.359375 C 127.441406 327.921875 127.007812 327.238281 127.070312 326.179688 C 127.132812 325.0625 127.070312 323.816406 127.070312 322.632812 Z M 241.949219 47.761719 C 241.761719 47.824219 241.636719 47.886719 241.636719 48.132812 C 241.574219 48.820312 241.136719 49.191406 240.515625 49.378906 C 240.328125 49.441406 240.144531 49.566406 239.957031 49.628906 C 236.160156 50.75 232.488281 52.117188 228.503906 52.613281 C 226.390625 52.863281 224.273438 53.425781 222.15625 53.796875 C 220.476562 54.109375 218.734375 54.296875 217.054688 54.542969 C 216.371094 54.605469 216.371094 54.542969 216.308594 53.859375 C 216.246094 52.117188 216.246094 50.375 216.183594 48.695312 C 216.121094 47.699219 216.058594 46.640625 215.933594 45.644531 C 215.871094 45.148438 215.996094 44.898438 216.558594 44.835938 C 218.859375 44.523438 221.164062 44.152344 223.464844 43.839844 C 224.523438 43.714844 225.644531 43.714844 226.761719 43.589844 C 229.191406 43.40625 231.492188 43.03125 233.859375 42.472656 C 235.539062 42.097656 237.15625 41.847656 238.835938 41.539062 C 239.769531 41.351562 240.640625 40.914062 241.636719 40.976562 C 241.949219 41.726562 241.886719 42.535156 241.949219 43.34375 C 242.007812 44.773438 241.949219 46.269531 241.949219 47.761719 Z M 201.746094 334.582031 C 202.121094 334.332031 201.933594 333.960938 201.933594 333.585938 C 201.933594 332.402344 201.933594 331.222656 201.933594 329.914062 C 202.121094 329.789062 202.304688 329.976562 202.554688 330.039062 C 206.164062 330.972656 209.773438 331.53125 213.507812 331.90625 C 215 332.03125 216.558594 332.15625 218.050781 332.03125 C 218.734375 331.96875 219.359375 332.09375 220.042969 332.15625 C 221.285156 332.28125 222.59375 332.09375 223.839844 331.90625 C 229.253906 331.097656 234.667969 329.976562 239.957031 328.609375 C 241.324219 328.234375 242.695312 327.859375 244 327.300781 C 244.375 327.175781 244.808594 327.050781 245.183594 326.617188 C 244.125 326.867188 243.253906 327.425781 242.257812 327.363281 C 244.375 326.304688 246.492188 325.183594 248.605469 324.128906 C 248.542969 324.6875 248.417969 325.308594 248.355469 325.871094 C 248.109375 327.738281 246.800781 328.855469 245.308594 329.726562 C 241.636719 331.96875 237.902344 334.023438 233.796875 335.265625 C 231.617188 335.949219 229.4375 336.511719 227.261719 336.945312 C 227.074219 336.945312 226.886719 337.007812 226.761719 337.007812 C 224.460938 337.007812 222.097656 337.320312 219.792969 337.195312 C 214.878906 337.007812 210.023438 336.699219 205.230469 335.515625 C 203.988281 335.328125 202.867188 334.957031 201.746094 334.582031 Z M 244.6875 83.667969 C 243.128906 80.617188 241.761719 77.445312 240.328125 74.269531 C 238.773438 70.785156 237.40625 67.175781 236.410156 63.441406 C 236.035156 62.011719 235.476562 60.644531 235.039062 59.210938 C 234.417969 57.15625 233.796875 55.105469 233.171875 53.050781 C 233.296875 52.738281 233.609375 52.738281 233.859375 52.675781 C 236.222656 51.929688 238.710938 51.433594 241.078125 50.5625 C 241.449219 50.4375 241.824219 50.375 241.949219 49.9375 C 242.695312 52.738281 243.316406 55.601562 243.566406 58.527344 C 243.753906 60.828125 243.8125 63.195312 244 65.496094 C 244.1875 68.421875 244.375 71.410156 244.5 74.332031 C 244.625 77.382812 244.933594 80.496094 244.6875 83.667969 Z M 134.972656 54.296875 C 136.03125 54.667969 137.089844 54.667969 138.210938 54.730469 C 139.953125 54.855469 141.695312 55.230469 143.375 55.601562 C 143.5 55.976562 143.375 56.222656 143.1875 56.472656 C 142.503906 57.59375 142.253906 58.902344 142.191406 60.207031 C 142.128906 61.761719 141.757812 63.257812 141.007812 64.6875 C 140.015625 66.554688 139.328125 68.546875 138.707031 70.601562 C 137.089844 75.828125 134.660156 80.679688 131.863281 85.347656 C 131.800781 85.472656 131.675781 85.597656 131.550781 85.785156 C 131.550781 83.355469 131.738281 80.929688 131.921875 78.503906 C 131.921875 78.191406 131.921875 77.941406 131.921875 77.632812 C 131.984375 74.269531 132.234375 70.910156 132.546875 67.488281 C 132.671875 65.746094 132.796875 64.003906 132.980469 62.261719 C 133.167969 60.394531 133.726562 58.652344 134.351562 56.972656 C 134.601562 56.039062 134.785156 55.167969 134.972656 54.296875 Z M 131.300781 88.210938 C 131.613281 88.085938 131.675781 87.835938 131.863281 87.589844 C 133.292969 85.410156 134.539062 83.109375 135.65625 80.742188 C 137.585938 76.761719 139.265625 72.714844 140.574219 68.484375 C 140.945312 67.363281 141.445312 66.242188 142.003906 65.1875 C 142.8125 63.691406 143.125 62.136719 143.125 60.519531 C 143.125 59.148438 143.3125 57.78125 143.933594 56.535156 C 144.308594 55.789062 144.246094 55.726562 145.179688 56.164062 C 144.554688 57.59375 144.433594 59.085938 144.371094 60.582031 C 144.246094 63.007812 143.996094 65.433594 142.8125 67.675781 C 142.378906 68.484375 142.128906 69.355469 141.820312 70.226562 C 140.386719 74.210938 138.582031 78.066406 136.34375 81.675781 C 135.222656 83.480469 134.289062 85.347656 133.417969 87.277344 C 132.917969 88.460938 132.234375 89.519531 131.300781 90.390625 C 131.300781 89.640625 131.300781 88.957031 131.300781 88.210938 Z M 196.457031 327.675781 C 197.578125 328.296875 198.636719 328.917969 199.878906 329.230469 C 200.128906 329.292969 200.191406 329.480469 200.191406 329.726562 C 200.253906 331.097656 200.5 332.527344 200.378906 333.898438 C 198.074219 333.335938 196.519531 331.46875 196.394531 329.167969 C 196.457031 328.671875 196.457031 328.171875 196.457031 327.675781 Z M 186.5625 99.972656 C 186.25 99.535156 186.3125 99.101562 186.25 98.726562 C 185.941406 90.203125 186.0625 81.613281 185.878906 73.089844 C 185.816406 70.539062 186.375 68.109375 186.875 65.683594 C 187.371094 63.382812 187.308594 61.078125 186.9375 58.714844 C 186.875 58.214844 186.75 57.65625 186.6875 57.15625 C 186.5625 56.472656 186.625 56.410156 187.308594 56.472656 C 188.863281 56.535156 190.421875 56.597656 191.976562 56.722656 C 192.910156 56.785156 193.78125 56.847656 194.714844 56.847656 C 195.148438 56.847656 195.398438 56.972656 195.335938 57.46875 C 195.273438 57.71875 195.335938 57.96875 195.273438 58.214844 C 194.902344 61.265625 194.777344 64.316406 194.652344 67.425781 C 194.402344 73.835938 194.464844 80.183594 194.464844 86.59375 C 194.464844 88.648438 194.214844 90.699219 193.84375 92.691406 C 193.46875 94.621094 192.410156 95.988281 190.792969 96.921875 C 189.300781 97.792969 187.867188 98.664062 186.5625 99.972656 Z M 199.507812 55.351562 C 202.554688 55.351562 205.667969 55.414062 208.714844 55.414062 C 209.710938 55.414062 209.648438 55.414062 209.648438 54.480469 C 209.585938 51.683594 209.277344 48.945312 209.152344 46.144531 C 209.089844 45.148438 209.089844 45.210938 208.09375 45.210938 C 204.609375 45.210938 201.1875 45.457031 197.703125 45.394531 C 193.90625 45.335938 190.171875 45.394531 186.375 45.394531 C 185.566406 45.394531 185.566406 45.394531 185.628906 46.207031 C 185.753906 47.761719 185.878906 49.378906 186.003906 50.933594 C 186.125 52.367188 186.5 53.734375 186.75 55.105469 C 186.8125 55.414062 186.996094 55.601562 187.371094 55.476562 C 187.929688 55.351562 188.554688 55.351562 189.175781 55.351562 C 192.289062 55.351562 195.460938 55.414062 198.574219 55.351562 C 198.882812 55.351562 199.195312 55.351562 199.507812 55.351562 Z M 189.425781 50.375 C 189.425781 49.253906 190.792969 47.386719 192.226562 47.449219 C 193.71875 47.574219 194.964844 48.695312 194.964844 50.25 C 194.964844 51.867188 193.84375 53.050781 192.226562 53.050781 C 190.667969 53.113281 189.425781 51.867188 189.425781 50.375 Z M 175.484375 45.832031 C 178.410156 45.707031 181.023438 45.957031 183.699219 46.019531 C 184.507812 46.019531 184.507812 46.082031 184.507812 46.828125 C 184.570312 49.066406 184.945312 51.308594 185.191406 53.546875 C 185.253906 53.921875 185.378906 54.234375 185.503906 54.542969 C 185.691406 55.230469 185.628906 55.292969 184.945312 55.292969 C 184.445312 55.292969 183.886719 55.351562 183.386719 55.351562 C 179.15625 55.351562 174.925781 55.601562 170.695312 55.726562 C 169.136719 55.789062 169.324219 55.726562 169.511719 54.417969 C 169.761719 51.992188 169.945312 49.566406 170.382812 47.199219 C 170.570312 45.894531 170.632812 45.894531 172.0625 45.894531 C 173.308594 45.832031 174.488281 45.832031 175.484375 45.832031 Z M 169.699219 45.085938 C 169.011719 46.390625 169.324219 47.761719 169.074219 49.003906 C 168.765625 50.6875 168.640625 52.429688 168.390625 54.109375 C 168.140625 55.789062 168.328125 57.46875 168.265625 59.210938 C 168.265625 60.144531 168.265625 60.082031 167.332031 60.269531 C 166.460938 60.394531 165.652344 60.457031 164.84375 60.269531 C 164.46875 60.207031 164.285156 60.082031 164.222656 59.710938 C 163.847656 57.71875 163.722656 55.726562 163.910156 53.734375 C 164.035156 52.054688 164.035156 50.4375 164.222656 48.757812 C 164.347656 47.761719 164.40625 46.765625 164.65625 45.832031 C 164.90625 44.960938 165.09375 44.773438 165.964844 44.773438 C 167.085938 44.773438 168.328125 44.710938 169.699219 45.085938 Z M 210.457031 58.714844 C 210.335938 58.027344 210.457031 57.40625 210.519531 56.785156 C 210.707031 55.105469 210.707031 53.425781 210.644531 51.742188 C 210.582031 50 210.335938 48.320312 210.085938 46.578125 C 210.023438 46.144531 209.960938 45.644531 209.960938 45.210938 C 209.898438 44.277344 210.023438 44.214844 210.894531 43.964844 C 211.953125 43.714844 213.074219 43.652344 214.128906 43.902344 C 214.628906 44.027344 214.878906 44.277344 214.878906 44.773438 C 215.0625 48.382812 215.25 51.992188 215.25 55.664062 C 215.25 56.535156 215 57.34375 214.878906 58.152344 C 214.753906 58.652344 214.503906 58.777344 214.007812 58.839844 C 212.824219 58.839844 211.640625 58.527344 210.457031 58.714844 Z M 243.503906 85.097656 C 241.949219 82.796875 240.578125 80.371094 239.332031 77.878906 C 238.214844 75.578125 237.03125 73.339844 236.097656 70.972656 C 234.667969 67.300781 233.609375 63.566406 232.488281 59.773438 C 231.929688 57.84375 231.242188 56.039062 230.683594 54.109375 C 230.496094 53.425781 230.496094 53.425781 231.179688 53.238281 C 231.367188 53.175781 231.617188 53.175781 231.804688 53.113281 C 232.175781 52.988281 232.363281 53.050781 232.425781 53.488281 C 233.171875 57.90625 234.789062 62.136719 235.972656 66.429688 C 237.09375 70.351562 238.835938 74.085938 240.578125 77.820312 C 241.699219 80.183594 242.757812 82.609375 243.875 85.039062 C 243.8125 85.097656 243.628906 85.097656 243.503906 85.097656 Z M 192.972656 50.125 C 192.972656 50.5 192.660156 50.808594 192.289062 50.808594 C 191.914062 50.808594 191.539062 50.5 191.539062 50.0625 C 191.539062 49.628906 191.789062 49.503906 192.164062 49.441406 C 192.535156 49.441406 192.910156 49.753906 192.972656 50.125 Z M 192.972656 50.125 " fill-opacity="1" fill-rule="nonzero"/></g><g clip-path="url(#976d11a96a)"><path fill="#3a3938" d="M 245.308594 89.144531 C 244.996094 89.019531 244.808594 88.707031 244.625 88.523438 C 243.128906 86.71875 241.886719 84.726562 240.765625 82.671875 C 238.460938 78.378906 236.222656 74.148438 234.605469 69.542969 C 233.421875 66.242188 232.425781 62.882812 231.492188 59.523438 C 230.996094 57.71875 230.371094 55.914062 229.875 54.171875 C 229.75 53.734375 229.5 53.546875 229.003906 53.671875 C 227.570312 53.921875 226.140625 54.109375 224.710938 54.417969 C 222.15625 54.980469 219.667969 55.351562 217.054688 55.664062 C 216.433594 55.726562 216.183594 55.976562 216.121094 56.535156 C 216.058594 57.28125 215.871094 57.96875 215.8125 58.714844 C 215.75 59.832031 215.5 60.082031 214.378906 60.082031 C 213.074219 60.082031 211.765625 60.144531 210.457031 59.894531 C 209.523438 59.773438 209.464844 59.648438 209.523438 58.714844 C 209.585938 58.027344 209.960938 57.28125 209.464844 56.785156 C 209.027344 56.410156 208.21875 56.660156 207.597656 56.660156 C 204.109375 56.660156 200.625 56.722656 197.078125 56.722656 C 196.082031 56.722656 196.082031 56.722656 196.019531 57.71875 C 195.898438 63.257812 195.710938 68.734375 195.585938 74.269531 C 195.523438 77.445312 195.585938 80.558594 195.523438 83.730469 C 195.460938 86.84375 195.398438 90.015625 194.839844 93.128906 C 194.402344 95.554688 193.097656 97.359375 191.105469 98.664062 C 189.734375 99.535156 188.429688 100.53125 187.121094 101.464844 C 186.5 101.902344 186.3125 102.460938 186.3125 103.269531 C 186.25 105.636719 186.0625 108 185.753906 110.363281 C 185.691406 109.992188 185.566406 109.554688 185.566406 109.183594 C 185.316406 106.132812 184.820312 103.144531 184.695312 100.160156 C 184.570312 97.609375 184.136719 95.117188 183.949219 92.566406 C 183.636719 88.769531 183.574219 85.039062 183.761719 81.242188 C 183.886719 78.316406 184.320312 75.390625 184.757812 72.527344 C 185.132812 70.289062 185.566406 68.046875 186.003906 65.746094 C 186.1875 64.5625 186.1875 63.441406 186.125 62.261719 C 186.003906 60.582031 185.753906 58.960938 185.628906 57.28125 C 185.566406 56.785156 185.378906 56.660156 184.945312 56.722656 C 184.507812 56.722656 184.011719 56.722656 183.574219 56.785156 C 182.082031 56.910156 180.589844 56.847656 179.15625 56.847656 C 176.980469 56.847656 174.800781 56.972656 172.558594 57.097656 C 171.75 57.15625 170.941406 57.15625 170.132812 57.15625 C 169.074219 57.15625 169.074219 57.15625 169.136719 58.214844 C 169.199219 58.902344 169.199219 59.523438 169.324219 60.207031 C 169.449219 60.953125 169.324219 61.140625 168.640625 61.453125 C 168.265625 61.636719 167.894531 61.761719 167.519531 61.761719 C 166.398438 61.636719 165.28125 61.636719 164.160156 61.390625 C 163.535156 61.265625 163.164062 60.953125 163.039062 60.269531 C 162.914062 59.460938 162.664062 58.652344 162.601562 57.90625 C 162.542969 57.34375 162.292969 57.21875 161.792969 57.21875 C 159.367188 57.21875 156.941406 57.21875 154.511719 56.972656 C 152.023438 56.722656 149.472656 56.722656 147.046875 56.347656 C 146.484375 56.285156 146.175781 56.472656 145.988281 56.972656 C 145.488281 58.027344 145.304688 59.085938 145.117188 60.207031 C 144.992188 61.390625 144.867188 62.570312 144.742188 63.816406 C 144.554688 65.246094 144.121094 66.554688 143.5625 67.863281 C 142.691406 69.914062 141.941406 72.03125 141.070312 74.085938 C 140.074219 76.449219 138.957031 78.753906 137.648438 80.992188 C 136.464844 82.921875 135.53125 84.976562 134.539062 87.027344 C 133.726562 88.769531 132.671875 90.328125 131.113281 91.570312 C 131.050781 91.199219 131.050781 90.886719 131.113281 90.511719 C 132.046875 89.640625 132.734375 88.585938 133.230469 87.402344 C 134.101562 85.472656 135.035156 83.605469 136.15625 81.800781 C 138.394531 78.191406 140.199219 74.394531 141.632812 70.351562 C 141.941406 69.480469 142.191406 68.609375 142.628906 67.800781 C 143.808594 65.558594 144.058594 63.132812 144.183594 60.707031 C 144.246094 59.210938 144.371094 57.65625 144.992188 56.285156 C 144.058594 55.851562 144.121094 55.851562 143.746094 56.660156 C 143.125 57.96875 142.9375 59.273438 142.9375 60.644531 C 142.875 62.261719 142.566406 63.878906 141.820312 65.308594 C 141.257812 66.367188 140.699219 67.488281 140.386719 68.609375 C 139.265625 72.714844 137.585938 76.761719 135.65625 80.742188 C 134.539062 83.109375 133.292969 85.410156 131.863281 87.589844 C 131.738281 87.835938 131.613281 88.085938 131.300781 88.210938 C 131.300781 87.339844 131.363281 86.53125 131.488281 85.722656 C 131.613281 85.597656 131.738281 85.472656 131.800781 85.285156 C 134.601562 80.617188 137.027344 75.765625 138.644531 70.539062 C 139.265625 68.484375 140.015625 66.492188 140.945312 64.625 C 141.695312 63.195312 142.003906 61.699219 142.128906 60.144531 C 142.191406 58.839844 142.378906 57.53125 143.125 56.410156 C 143.25 56.164062 143.4375 55.914062 143.3125 55.539062 C 141.632812 55.167969 139.890625 54.792969 138.148438 54.667969 C 137.089844 54.605469 135.96875 54.605469 134.910156 54.234375 C 134.910156 53.609375 135.160156 52.988281 135.285156 52.429688 C 135.65625 52.304688 135.96875 52.554688 136.28125 52.738281 C 136.964844 53.050781 137.648438 53.300781 138.332031 53.546875 C 139.203125 53.859375 140.074219 53.859375 140.945312 53.984375 C 142.8125 54.171875 144.554688 54.980469 146.421875 54.730469 C 146.484375 54.730469 146.671875 54.792969 146.734375 54.855469 C 147.046875 55.230469 147.417969 55.167969 147.792969 55.167969 C 151.214844 55.414062 154.636719 55.726562 158.0625 55.976562 C 159.367188 56.039062 160.675781 56.039062 161.980469 56.039062 C 162.417969 56.039062 162.664062 55.914062 162.664062 55.476562 C 162.601562 52.492188 162.914062 49.566406 163.164062 46.578125 C 163.226562 45.832031 163.164062 45.832031 162.417969 45.707031 C 161.109375 45.582031 159.804688 45.644531 158.496094 45.644531 C 156.378906 45.644531 154.265625 45.644531 152.148438 45.457031 C 149.785156 45.210938 147.355469 44.960938 144.992188 44.710938 C 143.5 44.523438 141.941406 44.464844 140.511719 44.089844 C 139.203125 43.777344 137.773438 43.589844 136.839844 42.410156 C 136.964844 41.726562 137.585938 41.664062 138.085938 41.476562 C 139.265625 41.039062 140.511719 40.667969 141.757812 40.480469 C 144.992188 40.042969 148.289062 39.734375 151.589844 39.671875 C 156.816406 39.546875 162.042969 39.296875 167.269531 39.050781 C 168.703125 39.050781 170.195312 38.988281 171.6875 38.925781 C 174.925781 38.863281 178.097656 38.550781 181.335938 38.488281 C 183.265625 38.425781 185.191406 38.488281 187.183594 38.425781 C 191.539062 38.300781 195.960938 37.992188 200.316406 38.175781 C 201.996094 38.238281 203.613281 38.054688 205.292969 37.929688 C 208.714844 37.679688 212.140625 37.742188 215.5625 37.804688 C 221.785156 37.867188 228.007812 38.175781 234.167969 38.550781 C 236.347656 38.675781 238.523438 38.925781 240.578125 39.734375 C 241.136719 39.980469 241.636719 40.167969 241.636719 40.855469 C 240.640625 40.855469 239.769531 41.289062 238.835938 41.414062 C 237.15625 41.726562 235.476562 41.972656 233.859375 42.347656 C 231.492188 42.84375 229.128906 43.28125 226.761719 43.46875 C 225.644531 43.53125 224.585938 43.53125 223.464844 43.714844 C 221.164062 44.027344 218.859375 44.402344 216.558594 44.710938 C 215.996094 44.773438 215.871094 45.023438 215.933594 45.519531 C 216.058594 46.515625 216.121094 47.574219 216.183594 48.570312 C 216.246094 50.3125 216.308594 52.054688 216.308594 53.734375 C 216.308594 54.417969 216.371094 54.480469 217.054688 54.417969 C 218.796875 54.171875 220.476562 53.984375 222.15625 53.671875 C 224.273438 53.300781 226.390625 52.738281 228.503906 52.492188 C 232.488281 51.992188 236.160156 50.625 239.957031 49.503906 C 240.144531 49.441406 240.328125 49.316406 240.515625 49.253906 C 241.136719 49.066406 241.574219 48.695312 241.636719 48.011719 C 241.636719 47.824219 241.824219 47.699219 241.949219 47.636719 C 241.949219 48.320312 241.761719 49.003906 241.886719 49.691406 C 241.824219 50.1875 241.386719 50.1875 241.015625 50.3125 C 238.648438 51.183594 236.222656 51.683594 233.796875 52.429688 C 233.546875 52.492188 233.234375 52.492188 233.109375 52.800781 C 233.734375 54.855469 234.355469 56.910156 234.976562 58.960938 C 235.414062 60.394531 235.972656 61.761719 236.347656 63.195312 C 237.34375 66.929688 238.710938 70.539062 240.265625 74.023438 C 241.699219 77.195312 243.066406 80.371094 244.625 83.417969 C 244.625 83.480469 244.625 83.542969 244.625 83.605469 C 244.625 85.660156 244.933594 87.402344 245.308594 89.144531 Z M 243.503906 85.097656 C 243.628906 85.535156 243.875 85.785156 244.3125 86.09375 C 244.1875 85.660156 244.1875 85.347656 243.9375 85.097656 C 242.820312 82.671875 241.761719 80.246094 240.640625 77.878906 C 238.898438 74.210938 237.15625 70.476562 236.035156 66.492188 C 234.789062 62.199219 233.171875 57.96875 232.488281 53.546875 C 232.425781 53.113281 232.238281 53.050781 231.867188 53.175781 C 231.679688 53.238281 231.429688 53.238281 231.242188 53.300781 C 230.558594 53.425781 230.558594 53.488281 230.746094 54.171875 C 231.304688 56.039062 231.992188 57.90625 232.550781 59.832031 C 233.609375 63.628906 234.730469 67.363281 236.160156 71.035156 C 237.09375 73.398438 238.277344 75.640625 239.394531 77.941406 C 240.515625 80.371094 241.949219 82.796875 243.503906 85.097656 Z M 186.5625 99.972656 C 187.867188 98.664062 189.363281 97.792969 190.855469 96.921875 C 192.472656 95.988281 193.53125 94.558594 193.90625 92.691406 C 194.277344 90.699219 194.589844 88.648438 194.527344 86.59375 C 194.464844 80.183594 194.464844 73.835938 194.714844 67.425781 C 194.839844 64.375 194.964844 61.265625 195.335938 58.214844 C 195.335938 57.96875 195.335938 57.71875 195.398438 57.46875 C 195.460938 56.972656 195.210938 56.847656 194.777344 56.847656 C 193.84375 56.847656 192.972656 56.785156 192.039062 56.722656 C 190.484375 56.597656 188.925781 56.535156 187.371094 56.472656 C 186.6875 56.472656 186.625 56.535156 186.75 57.15625 C 186.8125 57.65625 186.9375 58.214844 186.996094 58.714844 C 187.371094 61.015625 187.433594 63.320312 186.9375 65.683594 C 186.4375 68.109375 185.878906 70.539062 185.941406 73.089844 C 186.0625 81.613281 186.003906 90.203125 186.3125 98.726562 C 186.25 99.101562 186.1875 99.535156 186.5625 99.972656 Z M 144.371094 43.28125 C 144.371094 43.34375 144.371094 43.34375 144.371094 43.40625 C 145.800781 43.53125 147.234375 43.714844 148.664062 43.839844 C 150.71875 44.027344 152.832031 44.277344 154.886719 44.339844 C 157.75 44.402344 160.613281 44.214844 163.476562 44.523438 C 163.722656 44.523438 163.972656 44.523438 164.222656 44.464844 C 166.027344 43.839844 167.832031 43.964844 169.699219 43.964844 C 169.882812 43.964844 170.195312 43.902344 170.320312 44.089844 C 170.753906 44.710938 171.441406 44.585938 172.0625 44.585938 C 173.929688 44.585938 175.796875 44.523438 177.664062 44.648438 C 179.59375 44.773438 181.523438 44.773438 183.511719 44.835938 C 183.949219 44.835938 184.320312 44.898438 184.632812 44.464844 C 184.945312 44.089844 185.441406 44.027344 185.878906 43.964844 C 187.121094 43.839844 188.429688 43.714844 189.671875 43.777344 C 192.351562 43.902344 195.027344 43.777344 197.703125 43.902344 C 201.3125 44.152344 204.984375 43.714844 208.59375 43.714844 C 208.964844 43.714844 209.339844 43.589844 209.710938 43.46875 C 211.082031 43.03125 212.511719 42.78125 214.007812 43.03125 C 214.566406 43.09375 215 43.53125 215.5 43.40625 C 216.433594 43.21875 217.304688 43.28125 218.238281 43.15625 C 220.292969 42.78125 222.40625 42.597656 224.523438 42.472656 C 227.199219 42.347656 229.875 42.097656 232.488281 41.539062 C 233.421875 41.351562 234.355469 41.289062 235.351562 40.855469 C 234.480469 40.605469 233.734375 40.542969 232.925781 40.542969 C 226.949219 40.605469 220.976562 40.542969 215 40.667969 C 210.457031 40.792969 205.976562 40.667969 201.433594 40.855469 C 199.195312 40.976562 196.890625 40.914062 194.652344 40.914062 C 189.050781 40.914062 183.386719 40.914062 177.789062 40.855469 C 176.730469 40.855469 175.671875 40.792969 174.613281 40.914062 C 172.558594 41.101562 170.445312 41.226562 168.390625 41.289062 C 165.839844 41.351562 163.226562 41.289062 160.675781 41.539062 C 159.554688 41.664062 158.433594 41.664062 157.3125 41.785156 C 154.636719 42.097656 151.898438 42.410156 149.160156 42.660156 C 147.542969 42.84375 145.988281 43.09375 144.371094 43.28125 Z M 198.511719 55.351562 C 198.820312 55.351562 199.132812 55.351562 199.445312 55.351562 C 202.492188 55.351562 205.605469 55.414062 208.652344 55.414062 C 209.648438 55.414062 209.585938 55.414062 209.585938 54.480469 C 209.523438 51.683594 209.214844 48.945312 209.089844 46.144531 C 209.027344 45.148438 209.027344 45.210938 208.03125 45.210938 C 204.546875 45.210938 201.125 45.457031 197.640625 45.394531 C 193.84375 45.335938 190.109375 45.394531 186.3125 45.394531 C 185.503906 45.394531 185.503906 45.394531 185.566406 46.207031 C 185.691406 47.761719 185.816406 49.378906 185.941406 50.933594 C 186.0625 52.367188 186.4375 53.734375 186.6875 55.105469 C 186.75 55.414062 186.9375 55.601562 187.308594 55.476562 C 187.867188 55.351562 188.492188 55.351562 189.113281 55.351562 C 192.289062 55.414062 195.398438 55.414062 198.511719 55.351562 Z M 175.484375 45.832031 C 174.488281 45.832031 173.308594 45.832031 172.0625 45.832031 C 170.632812 45.832031 170.632812 45.832031 170.382812 47.199219 C 169.945312 49.566406 169.761719 51.992188 169.511719 54.417969 C 169.386719 55.726562 169.136719 55.789062 170.695312 55.726562 C 174.925781 55.539062 179.15625 55.292969 183.386719 55.351562 C 183.886719 55.351562 184.445312 55.351562 184.945312 55.292969 C 185.628906 55.292969 185.691406 55.167969 185.503906 54.542969 C 185.378906 54.234375 185.253906 53.921875 185.191406 53.546875 C 184.945312 51.308594 184.632812 49.066406 184.507812 46.828125 C 184.507812 46.019531 184.445312 46.019531 183.699219 46.019531 C 181.023438 46.019531 178.410156 45.769531 175.484375 45.832031 Z M 169.699219 45.085938 C 168.328125 44.710938 167.085938 44.773438 165.902344 44.773438 C 165.03125 44.773438 164.84375 44.960938 164.59375 45.832031 C 164.347656 46.765625 164.285156 47.761719 164.160156 48.757812 C 163.972656 50.4375 164.035156 52.054688 163.847656 53.734375 C 163.660156 55.726562 163.785156 57.71875 164.160156 59.710938 C 164.222656 60.082031 164.40625 60.207031 164.78125 60.269531 C 165.652344 60.457031 166.460938 60.394531 167.269531 60.269531 C 168.203125 60.082031 168.203125 60.144531 168.203125 59.210938 C 168.265625 57.53125 168.015625 55.851562 168.328125 54.109375 C 168.578125 52.429688 168.703125 50.6875 169.011719 49.003906 C 169.324219 47.761719 169.011719 46.390625 169.699219 45.085938 Z M 210.457031 58.714844 C 211.640625 58.589844 212.824219 58.839844 213.945312 58.839844 C 214.441406 58.839844 214.753906 58.714844 214.816406 58.152344 C 215 57.34375 215.1875 56.535156 215.1875 55.664062 C 215.1875 52.054688 215 48.382812 214.816406 44.773438 C 214.816406 44.277344 214.566406 44.027344 214.066406 43.902344 C 212.949219 43.652344 211.890625 43.714844 210.832031 43.964844 C 209.960938 44.152344 209.898438 44.277344 209.898438 45.210938 C 209.898438 45.644531 209.960938 46.144531 210.023438 46.578125 C 210.210938 48.320312 210.519531 50 210.582031 51.742188 C 210.644531 53.425781 210.644531 55.105469 210.457031 56.785156 C 210.398438 57.40625 210.335938 58.027344 210.457031 58.714844 Z M 127.070312 322.632812 C 130.554688 324.375 133.851562 326.367188 137.648438 327.425781 C 142.378906 328.730469 147.109375 329.914062 152.023438 330.351562 C 155.632812 330.660156 159.304688 330.660156 162.914062 330.476562 C 166.835938 330.226562 170.632812 329.292969 174.363281 328.046875 C 174.675781 327.921875 174.988281 327.738281 175.546875 327.859375 C 175.546875 329.167969 175.546875 330.476562 175.609375 331.78125 C 176.292969 331.46875 176.730469 330.847656 177.289062 330.414062 C 177.601562 330.164062 177.664062 329.789062 177.664062 329.480469 C 177.601562 328.234375 177.789062 326.988281 177.789062 325.683594 C 177.539062 324.4375 177.601562 323.257812 177.601562 322.011719 C 177.539062 316.660156 177.476562 311.308594 177.601562 306.019531 C 177.789062 297.058594 177.664062 288.035156 177.789062 279.074219 C 177.972656 270.359375 178.097656 261.710938 178.222656 252.996094 C 178.285156 249.511719 178.597656 246.089844 178.722656 242.605469 C 178.785156 240.054688 178.96875 237.441406 179.03125 234.886719 C 179.15625 230.285156 179.34375 225.742188 179.65625 221.136719 C 179.902344 217.714844 180.152344 214.226562 180.464844 210.804688 C 180.960938 205.890625 181.085938 201.035156 181.335938 196.117188 C 181.523438 192.136719 181.582031 188.152344 181.769531 184.171875 C 181.894531 180.6875 182.144531 177.199219 182.515625 173.714844 C 182.640625 172.285156 182.703125 170.851562 182.828125 169.359375 C 182.828125 169.109375 182.765625 168.863281 183.140625 168.675781 C 183.140625 169.980469 183.203125 171.226562 183.140625 172.472656 C 182.953125 176.765625 183.015625 180.996094 183.015625 185.289062 C 183.015625 186.410156 183.015625 187.53125 183.015625 188.714844 C 183.015625 188.960938 182.953125 189.273438 183.203125 189.523438 C 183.328125 187.46875 183.511719 185.414062 183.636719 183.425781 C 183.886719 179.628906 184.074219 175.894531 184.320312 172.097656 C 184.570312 167.492188 184.882812 162.886719 185.132812 158.21875 C 185.378906 153.367188 185.441406 148.574219 186.003906 143.722656 C 186.4375 140.113281 186.6875 136.503906 187.496094 132.953125 C 187.746094 131.835938 187.929688 130.714844 188.492188 129.53125 C 189.300781 133.140625 189.613281 136.6875 190.234375 140.113281 C 190.546875 140.734375 190.605469 141.480469 190.730469 142.164062 C 191.292969 145.089844 192.101562 148.015625 192.472656 151 C 192.722656 153.117188 192.722656 155.234375 192.785156 157.347656 C 193.097656 164.753906 192.910156 172.097656 193.035156 179.503906 C 193.160156 184.355469 193.035156 189.210938 193.222656 194.003906 C 193.34375 197.300781 193.222656 200.597656 193.34375 203.835938 C 193.46875 206.324219 193.84375 208.8125 194.214844 211.304688 C 194.589844 213.417969 194.652344 215.535156 194.839844 217.652344 C 195.085938 220.824219 195.335938 224.058594 195.585938 227.234375 C 195.773438 229.660156 195.898438 232.089844 196.082031 234.515625 C 196.394531 238.3125 196.269531 242.046875 196.519531 245.839844 C 196.707031 249.140625 197.015625 252.375 197.265625 255.671875 C 197.390625 257.417969 197.390625 259.222656 197.453125 260.964844 C 197.578125 263.761719 197.765625 266.625 197.765625 269.425781 C 197.824219 274.53125 197.949219 279.695312 198.199219 284.796875 C 198.449219 289.402344 198.820312 294.007812 199.007812 298.675781 C 199.132812 302.535156 199.195312 306.390625 199.257812 310.25 C 199.382812 314.292969 199.507812 318.402344 199.691406 322.445312 C 199.753906 324.25 199.878906 326.117188 200.003906 327.921875 C 200.003906 328.046875 199.941406 328.109375 199.941406 328.234375 C 199.007812 328.046875 198.199219 327.613281 197.328125 327.300781 C 197.015625 327.175781 196.707031 326.925781 196.332031 326.988281 C 196.332031 327.238281 196.332031 327.488281 196.332031 327.738281 C 197.453125 328.359375 198.511719 328.980469 199.753906 329.292969 C 200.003906 329.355469 200.066406 329.542969 200.066406 329.789062 C 200.128906 331.160156 200.378906 332.589844 200.253906 333.960938 C 200.625 334.332031 201.125 334.394531 201.558594 334.644531 C 201.933594 334.394531 201.746094 334.023438 201.746094 333.648438 C 201.746094 332.464844 201.746094 331.285156 201.746094 329.976562 C 201.933594 329.851562 202.121094 330.039062 202.367188 330.101562 C 205.976562 331.035156 209.585938 331.59375 213.320312 331.96875 C 214.816406 332.09375 216.371094 332.21875 217.863281 332.09375 C 218.546875 332.03125 219.171875 332.15625 219.855469 332.21875 C 221.101562 332.339844 222.40625 332.15625 223.652344 331.96875 C 229.066406 331.160156 234.480469 330.039062 239.769531 328.671875 C 241.136719 328.296875 242.507812 327.921875 243.8125 327.363281 C 244.1875 327.238281 244.625 327.113281 244.996094 326.679688 C 243.9375 326.925781 243.066406 327.488281 242.070312 327.425781 C 244.1875 326.367188 246.304688 325.246094 248.417969 324.191406 C 248.480469 323.753906 248.605469 323.378906 248.417969 322.945312 C 246.988281 323.691406 245.496094 324.375 244.0625 325.121094 C 241.449219 326.429688 238.773438 327.425781 235.972656 328.234375 C 231.804688 329.355469 227.570312 330.164062 223.277344 330.597656 C 219.667969 330.972656 216.058594 331.160156 212.386719 330.785156 C 209.214844 330.414062 206.039062 329.914062 202.867188 329.167969 C 201.1875 328.792969 201.558594 328.792969 201.558594 327.425781 C 201.558594 321.574219 201.433594 315.789062 201 309.9375 C 200.625 304.585938 200.378906 299.296875 200.191406 293.945312 C 200.003906 288.34375 199.628906 282.804688 199.507812 277.207031 C 199.445312 274.09375 199.445312 270.980469 199.132812 267.871094 C 198.945312 266.128906 198.820312 264.324219 198.695312 262.582031 C 198.511719 259.53125 198.386719 256.421875 198.199219 253.371094 C 197.886719 248.019531 197.515625 242.667969 197.453125 237.253906 C 197.390625 230.46875 196.890625 223.75 195.960938 217.089844 C 195.585938 214.164062 195.148438 211.304688 194.964844 208.378906 C 194.714844 204.394531 194.339844 200.414062 194.402344 196.429688 C 194.402344 194.5 194.339844 192.570312 194.277344 190.582031 C 194.214844 187.84375 193.96875 185.105469 194.03125 182.304688 C 194.15625 177.261719 194.277344 172.222656 194.277344 167.121094 C 194.277344 162.886719 194.214844 158.65625 194.15625 154.425781 C 194.09375 152.308594 194.09375 150.191406 193.78125 148.078125 C 193.46875 146.085938 192.972656 144.15625 192.535156 142.164062 C 191.355469 136.875 190.421875 131.585938 189.671875 126.234375 C 189.238281 123.246094 188.617188 120.320312 187.496094 117.523438 C 187.371094 117.210938 187.308594 116.898438 187.058594 116.652344 C 186.5625 116.027344 185.941406 116.027344 185.503906 116.710938 C 185.070312 117.335938 184.882812 118.082031 184.882812 118.828125 C 184.757812 121.070312 184.507812 123.246094 184.445312 125.488281 C 184.320312 129.40625 184.074219 133.390625 183.636719 137.3125 C 183.265625 141.167969 183.078125 144.964844 182.828125 148.824219 C 182.578125 152.371094 182.332031 155.855469 182.082031 159.402344 C 181.769531 163.136719 181.398438 166.871094 181.273438 170.605469 C 181.210938 172.285156 181.148438 173.964844 181.023438 175.707031 C 180.835938 178.507812 180.402344 181.308594 180.339844 184.171875 C 180.152344 188.898438 179.777344 193.628906 179.71875 198.359375 C 179.839844 204.582031 179.21875 210.804688 178.660156 217.027344 C 178.222656 221.632812 177.914062 226.175781 178.035156 230.78125 C 178.035156 231.652344 178.035156 232.460938 178.035156 233.332031 C 177.972656 237.6875 177.601562 242.105469 177.414062 246.464844 C 177.164062 252.3125 176.917969 258.164062 176.605469 264.011719 C 176.355469 268.867188 176.109375 273.660156 175.984375 278.511719 C 175.859375 282.867188 175.734375 287.222656 175.734375 291.582031 C 175.671875 302.78125 175.671875 313.921875 175.671875 325.121094 C 175.671875 325.371094 175.671875 325.621094 175.671875 325.871094 C 175.734375 326.367188 175.484375 326.554688 175.050781 326.679688 C 173.992188 326.988281 172.871094 327.363281 171.8125 327.675781 C 168.640625 328.671875 165.339844 329.292969 162.042969 329.417969 C 157.4375 329.605469 152.769531 329.605469 148.164062 328.855469 C 141.820312 327.800781 135.65625 326.304688 129.933594 323.257812 C 129.0625 322.757812 128.066406 322.386719 127.132812 322.074219 C 127.070312 322.261719 127.070312 322.445312 127.070312 322.632812 Z M 247.175781 156.914062 C 247.175781 156.476562 247.175781 155.980469 247.113281 155.542969 C 247.050781 155.421875 246.925781 155.359375 246.863281 155.234375 C 244 150.378906 241.636719 145.214844 239.832031 139.863281 C 238.339844 135.382812 236.84375 130.902344 234.976562 126.546875 C 233.609375 123.371094 232.488281 120.199219 231.242188 117.023438 C 231.121094 116.710938 231.058594 116.339844 230.746094 116.152344 C 230.871094 116.589844 230.933594 116.960938 231.058594 117.398438 C 232.175781 121.441406 233.296875 125.425781 234.355469 129.46875 C 235.972656 135.445312 237.15625 141.605469 239.023438 147.515625 C 240.390625 151.8125 241.699219 156.042969 243.441406 160.210938 C 244.25 162.203125 245.371094 164.070312 246.800781 165.6875 C 246.925781 165.8125 247.050781 165.9375 247.238281 165.9375 C 247.113281 162.824219 247.175781 159.902344 247.175781 156.914062 Z M 126.882812 248.144531 C 126.882812 249.824219 126.695312 251.503906 126.945312 253.246094 C 127.628906 254.925781 128.253906 256.605469 129 258.226562 C 129.621094 259.59375 130.429688 260.839844 130.929688 262.207031 C 132.046875 265.566406 133.726562 268.679688 135.53125 271.730469 C 136.09375 272.664062 136.589844 273.660156 137.027344 274.652344 C 137.648438 276.148438 138.519531 277.578125 139.453125 278.886719 C 140.761719 280.691406 142.503906 281.871094 144.679688 282.371094 C 146.113281 282.742188 147.542969 282.621094 148.976562 282.683594 C 151.835938 282.867188 153.519531 281.0625 155.507812 279.195312 C 154.203125 279.382812 153.082031 279.320312 152.023438 279.195312 C 151.714844 279.132812 151.402344 279.132812 151.089844 279.195312 C 149.597656 279.445312 148.105469 279.320312 146.671875 279.320312 C 144.929688 279.320312 143.5 278.574219 142.441406 277.207031 C 140.886719 275.152344 139.265625 273.035156 137.960938 270.734375 C 135.84375 267.0625 133.789062 263.390625 131.921875 259.53125 C 130.742188 257.105469 129.558594 254.738281 128.875 252.125 C 128.375 250.257812 127.816406 248.394531 127.320312 246.527344 C 127.257812 246.339844 127.257812 246.152344 127.007812 246.277344 C 126.945312 246.960938 126.882812 247.519531 126.882812 248.144531 Z M 248.730469 263.761719 C 248.355469 263.886719 248.417969 264.199219 248.355469 264.449219 C 247.671875 266.6875 247.175781 268.929688 246.179688 271.105469 C 245.121094 273.410156 243.875 275.648438 242.695312 277.890625 C 241.324219 280.566406 239.644531 283.054688 237.902344 285.542969 C 236.96875 286.789062 235.847656 287.535156 234.230469 287.535156 C 233.296875 287.535156 232.300781 287.535156 231.367188 287.472656 C 230.371094 287.410156 229.375 287.535156 228.132812 287.597656 C 228.941406 288.28125 229.5 288.78125 230.1875 289.277344 C 230.871094 289.777344 231.617188 290.023438 232.488281 289.960938 C 232.863281 289.960938 233.234375 290.023438 233.671875 290.023438 C 236.285156 290.085938 238.460938 289.214844 239.957031 286.976562 C 240.578125 286.042969 241.136719 285.046875 241.574219 283.988281 C 241.824219 283.429688 242.132812 282.867188 242.445312 282.308594 C 243.503906 280.628906 244.5 278.886719 245.183594 277.019531 C 246.242188 274.15625 247.796875 271.542969 248.730469 268.679688 C 248.855469 266.9375 248.730469 265.320312 248.730469 263.761719 Z M 247.050781 124.988281 C 245.929688 122.5625 244.808594 120.136719 243.628906 117.707031 C 241.699219 113.914062 239.707031 110.117188 237.589844 106.445312 C 236.285156 104.203125 234.976562 101.902344 233.296875 99.910156 C 233.046875 99.660156 232.863281 99.039062 232.425781 99.289062 C 232.054688 99.535156 232.488281 99.972656 232.675781 100.285156 C 233.917969 102.398438 235.039062 104.515625 236.160156 106.695312 C 236.65625 107.75 237.21875 108.746094 237.777344 109.804688 C 240.828125 115.28125 243.9375 120.695312 246.304688 126.484375 C 246.492188 126.980469 246.675781 127.480469 247.050781 127.914062 C 247.175781 126.917969 247.113281 125.921875 247.050781 124.988281 Z M 127.195312 240.925781 C 127.816406 242.542969 128.5625 244.097656 129.125 245.714844 C 130.058594 248.515625 131.550781 250.945312 133.355469 253.246094 C 136.28125 257.042969 139.765625 260.277344 143.5 263.328125 C 144.742188 264.386719 146.238281 265.070312 147.792969 265.507812 C 147.980469 265.566406 148.164062 265.691406 148.414062 265.445312 C 147.417969 264.882812 146.421875 264.449219 145.550781 263.761719 C 141.257812 260.339844 137.523438 256.484375 134.039062 252.25 C 132.671875 250.632812 131.363281 248.953125 130.554688 246.960938 C 129.683594 244.90625 128.75 242.917969 127.878906 240.863281 C 127.691406 240.425781 127.566406 239.929688 127.195312 239.554688 C 127.070312 240.054688 127.070312 240.488281 127.195312 240.925781 Z M 248.605469 258.785156 C 248.046875 259.53125 247.796875 260.402344 247.421875 261.273438 C 246.613281 262.953125 246.054688 264.757812 244.933594 266.253906 C 242.507812 269.613281 239.519531 272.476562 236.472656 275.277344 C 235.539062 276.085938 234.542969 276.769531 233.421875 277.328125 C 233.609375 277.515625 233.734375 277.453125 233.859375 277.453125 C 235.101562 277.144531 236.160156 276.519531 237.09375 275.710938 C 239.457031 273.78125 241.699219 271.667969 243.691406 269.300781 C 245.183594 267.496094 246.429688 265.566406 247.238281 263.328125 C 247.609375 262.144531 248.046875 261.027344 248.667969 259.90625 C 248.605469 259.53125 248.667969 259.160156 248.605469 258.785156 Z M 173.492188 72.902344 C 173.492188 73.214844 173.429688 73.460938 173.371094 73.710938 C 173.121094 75.515625 172.746094 77.320312 172.558594 79.1875 C 172.375 81.179688 172.1875 83.171875 171.9375 85.160156 C 171.378906 89.332031 170.941406 93.375 170.570312 97.546875 C 170.195312 102.027344 169.699219 106.445312 169.199219 110.925781 C 168.640625 115.777344 167.769531 120.632812 167.457031 125.550781 C 167.207031 128.847656 166.960938 132.144531 166.710938 135.507812 C 166.585938 137.375 166.460938 139.238281 166.273438 141.105469 C 166.089844 143.035156 165.839844 144.964844 165.652344 146.894531 C 165.339844 149.820312 165.03125 152.804688 164.71875 155.730469 C 164.40625 159.089844 164.035156 162.453125 163.722656 165.875 C 163.414062 169.359375 163.164062 172.84375 162.914062 176.328125 C 162.851562 177.574219 162.601562 178.757812 162.664062 180.0625 C 162.976562 179.753906 162.976562 179.503906 162.976562 179.191406 C 163.226562 177.136719 163.414062 175.148438 163.660156 173.09375 C 164.035156 169.484375 164.40625 165.875 164.78125 162.265625 C 165.21875 158.40625 165.652344 154.550781 166.210938 150.691406 C 166.773438 146.273438 167.332031 141.855469 168.078125 137.496094 C 168.828125 132.707031 169.511719 127.914062 170.070312 123.121094 C 170.320312 121.007812 170.507812 118.828125 170.816406 116.710938 C 171.378906 112.605469 172 108.558594 172.621094 104.453125 C 173.246094 100.347656 173.867188 96.238281 174.425781 92.070312 C 174.738281 89.890625 175.175781 87.777344 175.113281 85.535156 C 175.050781 82.734375 174.988281 79.933594 174.925781 77.132812 C 174.863281 74.707031 174.925781 72.28125 174.738281 69.789062 C 173.679688 70.601562 173.617188 71.78125 173.492188 72.902344 Z M 230.746094 116.089844 C 230.746094 116.027344 230.746094 115.964844 230.683594 115.902344 C 230.621094 115.839844 230.808594 115.71875 230.621094 115.71875 C 230.621094 115.777344 230.621094 115.839844 230.683594 115.902344 C 230.683594 115.964844 230.746094 115.964844 230.746094 116.089844 C 230.746094 116.027344 230.746094 116.089844 230.746094 116.089844 Z M 230.25 114.285156 L 230.1875 114.347656 Z M 230.433594 115.03125 L 230.433594 114.96875 Z M 192.226562 53.113281 C 190.667969 53.113281 189.425781 51.929688 189.425781 50.4375 C 189.425781 49.316406 190.792969 47.449219 192.226562 47.511719 C 193.71875 47.636719 194.964844 48.757812 194.964844 50.3125 C 195.027344 51.867188 193.84375 53.050781 192.226562 53.113281 Z M 192.972656 50.125 C 192.972656 49.753906 192.535156 49.441406 192.164062 49.503906 C 191.789062 49.566406 191.539062 49.691406 191.539062 50.125 C 191.539062 50.5 191.914062 50.871094 192.289062 50.871094 C 192.660156 50.808594 192.972656 50.4375 192.972656 50.125 Z M 192.972656 50.125 " fill-opacity="1" fill-rule="nonzero"/></g></svg>