<svg xmlns="http://www.w3.org/2000/svg" xmlns:xlink="http://www.w3.org/1999/xlink" width="500" zoomAndPan="magnify" viewBox="0 0 375 374.999991" height="500" preserveAspectRatio="xMidYMid meet" version="1.0"><defs><filter x="0%" y="0%" width="100%" height="100%" id="899bd72925"><feColorMatrix values="0 0 0 0 1 0 0 0 0 1 0 0 0 0 1 0 0 0 1 0" color-interpolation-filters="sRGB"/></filter><mask id="53b5cffd35"><g filter="url(#899bd72925)"><rect x="-37.5" width="450" fill="#000000" y="-37.499999" height="449.999989" fill-opacity="0.85"/></g></mask><clipPath id="6150368da9"><rect x="0" width="110" y="0" height="106"/></clipPath><mask id="72c9c9d9d8"><g filter="url(#899bd72925)"><rect x="-37.5" width="450" fill="#000000" y="-37.499999" height="449.999989" fill-opacity="0.85"/></g></mask><clipPath id="f6fa182eb9"><rect x="0" width="111" y="0" height="107"/></clipPath></defs><path stroke-linecap="butt" transform="matrix(0.494591, -0.349245, 0.349245, 0.494591, -73.608631, 168.696493)" fill-opacity="1" fill="#241f20" fill-rule="nonzero" stroke-linejoin="miter" d="M 441.180971 208.491534 C 411.916434 208.685467 383.721942 217.833049 355.003445 221.492752 C 343.012524 223.016513 330.66586 223.38871 318.653719 221.967352 C 302.687344 220.083689 287.232746 215.070518 271.277901 212.823794 C 257.026094 210.816084 242.592304 208.719361 228.240657 208.631432 C 203.172011 208.486866 178.919952 216.335077 154.342318 220.573073 C 154.340826 227.767042 152.87962 236.994664 156.554991 242.046207 C 160.345983 247.258371 166.740803 252.02667 168.402103 259.091622 C 172.332891 275.838715 177.915651 292.259603 185.057737 308.004538 C 188.527432 315.651432 195.075322 320.985897 202.392705 324.660199 C 219.998074 333.506187 240.84527 334.808387 260.160585 332.027667 C 287.673678 328.061752 302.597662 307.418942 313.982967 283.835087 C 318.247967 274.249513 318.725703 263.182234 324.336162 254.42036 C 327.670927 249.216807 335.413006 251.406064 340.946377 251.38806 C 346.479749 251.370056 351.166115 260.571093 352.883067 266.695999 C 358.963826 288.373157 369.092001 311.376111 389.236225 322.733568 C 419.30406 339.700434 466.682831 336.525295 486.193081 305.931421 C 493.833619 293.959057 495.938108 279.435976 499.769076 265.879278 C 502.106309 257.62565 504.188945 247.786412 512.480287 243.247478 C 515.826591 241.416593 513.480752 234.113103 513.97597 229.866192 C 514.511868 225.237311 515.55243 221.146442 508.966298 220.239409 C 497.48126 218.653195 486.346174 213.8311 474.593886 212.198335 C 463.453302 210.650002 452.545984 208.413409 441.180971 208.491534 Z M 247.7403 216.192906 C 256.045478 216.141872 264.315202 216.745027 272.386937 218.456249 C 320.490571 228.627105 321.460547 248.448736 301.659321 289.42038 C 285.52345 322.80769 252.101732 331.17062 218.421024 323.167795 C 202.893348 319.477263 192.277645 308.640386 187.268208 293.801131 C 181.987307 278.138353 177.991083 261.495114 178.891056 245.031575 C 180.107261 222.986352 205.04281 219.885658 222.898308 217.87485 C 231.090772 216.954432 239.435123 216.243939 247.7403 216.192906 Z M 423.366084 216.193841 C 431.675585 216.248533 440.019393 216.959286 448.209074 217.877123 C 466.067632 219.888525 491.001543 222.986556 492.216089 245.034349 C 493.120577 261.492603 489.122607 278.13794 483.835322 293.801773 C 478.831553 308.639073 468.21415 319.480835 452.688984 323.168749 C 419.010298 331.168574 385.582645 322.807379 369.448438 289.4188 C 349.647646 248.449644 350.61793 228.631742 398.721495 218.457461 C 406.791931 216.74796 415.065575 216.1376 423.366084 216.193841 Z M 423.366084 216.193841 " stroke="#000000" stroke-width="1" stroke-opacity="1" stroke-miterlimit="4"/><g mask="url(#53b5cffd35)"><g transform="matrix(1, 0, 0, 1, 88, 164)"><g clip-path="url(#6150368da9)"><path stroke-linecap="butt" transform="matrix(0.494591, -0.349245, 0.349245, 0.494591, -161.608624, 4.696493)" fill-opacity="1" fill="#7f7f7f" fill-rule="nonzero" stroke-linejoin="miter" d="M 222.887134 217.890653 C 239.275783 216.044548 256.232294 215.049608 272.379484 218.466782 C 320.483119 228.637639 321.453094 248.459269 301.651869 289.430913 C 285.510727 322.814502 252.108541 331.183326 218.427833 323.180501 C 202.900157 319.489969 192.278259 308.617125 187.268822 293.777871 C 181.982651 278.111371 177.964722 261.4765 178.869966 245.016682 C 180.0809 222.967738 205.035357 219.896192 222.887134 217.890653 Z M 222.887134 217.890653 " stroke="#000000" stroke-width="1" stroke-opacity="1" stroke-miterlimit="4"/></g></g></g><g mask="url(#72c9c9d9d8)"><g transform="matrix(1, 0, 0, 1, 176, 101)"><g clip-path="url(#f6fa182eb9)"><path stroke-linecap="butt" transform="matrix(0.494591, -0.349245, 0.349245, 0.494591, -249.608624, 67.696493)" fill-opacity="1" fill="#7f7f7f" fill-rule="nonzero" stroke-linejoin="miter" d="M 448.201622 217.887656 C 431.816988 216.048261 414.854914 215.048991 398.708772 218.464274 C 350.610477 228.642276 349.640193 248.460178 369.440985 289.429333 C 385.575193 322.817912 418.984863 331.182205 452.663548 323.18238 C 468.188715 319.494466 478.814184 308.618911 483.821674 293.77634 C 489.103689 278.108786 493.12274 261.478335 492.221973 245.01481 C 491.007427 222.967018 466.05491 219.895337 448.201622 217.887656 Z M 448.201622 217.887656 " stroke="#000000" stroke-width="1" stroke-opacity="1" stroke-miterlimit="4"/></g></g></g></svg>