<svg xmlns="http://www.w3.org/2000/svg" xmlns:xlink="http://www.w3.org/1999/xlink" width="500" zoomAndPan="magnify" viewBox="0 0 375 374.999991" height="500" preserveAspectRatio="xMidYMid meet" version="1.0"><defs><filter x="0%" y="0%" width="100%" height="100%" id="809edbf1b8"><feColorMatrix values="0 0 0 0 1 0 0 0 0 1 0 0 0 0 1 0 0 0 1 0" color-interpolation-filters="sRGB"/></filter><mask id="43d42a7d5d"><g filter="url(#809edbf1b8)"><rect x="-37.5" width="450" fill="#000000" y="-37.499999" height="449.999989" fill-opacity="0.85"/></g></mask><clipPath id="b0c5ac8708"><rect x="0" width="110" y="0" height="106"/></clipPath><mask id="1e3ef2ec77"><g filter="url(#809edbf1b8)"><rect x="-37.5" width="450" fill="#000000" y="-37.499999" height="449.999989" fill-opacity="0.85"/></g></mask><clipPath id="8cab440cee"><rect x="0" width="111" y="0" height="107"/></clipPath></defs><path stroke-linecap="butt" transform="matrix(0.494591, -0.349245, 0.349245, 0.494591, -73.608631, 168.696522)" fill-opacity="1" fill="#e3e4e9" fill-rule="nonzero" stroke-linejoin="miter" d="M 441.180998 208.491495 C 411.916461 208.685428 383.721969 217.83301 355.003472 221.492713 C 343.012551 223.016474 330.662166 223.393941 318.653747 221.967313 C 302.687371 220.08365 287.232773 215.070479 271.277929 212.823755 C 257.026121 210.816045 242.592331 208.719323 228.240684 208.631394 C 203.172039 208.486827 178.919979 216.335038 154.342345 220.573034 C 154.340854 227.767003 152.879648 236.994625 156.555019 242.046168 C 160.34601 247.258333 166.740831 252.026631 168.402131 259.091584 C 172.332918 275.838677 177.915678 292.259564 185.057764 308.004499 C 188.52746 315.651393 195.075349 320.985858 202.392732 324.66016 C 219.998101 333.506148 240.845297 334.808349 260.160612 332.027628 C 287.673705 328.061713 302.597689 307.418903 313.982995 283.835048 C 318.247994 274.249474 318.72573 263.182195 324.336189 254.420321 C 327.670955 249.216768 335.413033 251.406025 340.946405 251.388021 C 346.479777 251.370017 351.166142 260.571054 352.883095 266.695961 C 358.963853 288.373118 369.092029 311.376072 389.236252 322.733529 C 419.304087 339.700395 466.682858 336.525256 486.193108 305.931382 C 493.833647 293.959018 495.938135 279.435937 499.769104 265.879239 C 502.106336 257.625611 504.188973 247.786373 512.480315 243.247439 C 515.826618 241.416554 513.480779 234.113065 513.975998 229.866153 C 514.511895 225.237273 515.552457 221.146403 508.966325 220.239371 C 497.481287 218.653156 486.346202 213.831061 474.593913 212.198296 C 463.453329 210.649964 452.546012 208.41337 441.180998 208.491495 Z M 247.740328 216.192867 C 256.045505 216.141833 264.31523 216.744988 272.386964 218.45621 C 320.490599 228.627066 321.460574 248.448697 301.659349 289.420341 C 285.523478 322.807652 252.10176 331.170582 218.421051 323.167756 C 202.893375 319.477224 192.277672 308.640347 187.268235 293.801092 C 181.987335 278.138314 177.99111 261.495075 178.891083 245.031536 C 180.107288 222.986313 205.042837 219.885619 222.898335 217.874811 C 231.090799 216.954393 239.43515 216.2439 247.740328 216.192867 Z M 423.366112 216.193802 C 431.675612 216.248494 440.01942 216.959247 448.209102 217.877084 C 466.06766 219.888487 491.001571 222.986518 492.216116 245.03431 C 493.120604 261.492564 489.122634 278.137901 483.835349 293.801734 C 478.831581 308.639035 468.214178 319.480797 452.689011 323.16871 C 419.010326 331.168535 385.582673 322.80734 369.448465 289.418761 C 349.647673 248.449605 350.617957 228.631704 398.721522 218.457423 C 406.791958 216.747921 415.061881 216.142831 423.366112 216.193802 Z M 423.366112 216.193802 " stroke="#000000" stroke-width="1" stroke-opacity="1" stroke-miterlimit="4"/><g mask="url(#43d42a7d5d)"><g transform="matrix(1, 0, 0, 1, 88, 164)"><g clip-path="url(#b0c5ac8708)"><path stroke-linecap="butt" transform="matrix(0.494591, -0.349245, 0.349245, 0.494591, -161.608624, 4.696522)" fill-opacity="1" fill="#7f7f7f" fill-rule="nonzero" stroke-linejoin="miter" d="M 222.887162 217.890614 C 239.275811 216.044508 256.232322 215.049568 272.379512 218.466743 C 320.483147 228.637599 321.453122 248.45923 301.651897 289.430874 C 285.510755 322.814463 252.108569 331.183287 218.427861 323.180462 C 202.900185 319.48993 192.278287 308.617086 187.26885 293.777831 C 181.982679 278.111332 177.96475 261.47646 178.869993 245.016643 C 180.080928 222.967699 205.035385 219.896152 222.887162 217.890614 Z M 222.887162 217.890614 " stroke="#000000" stroke-width="1" stroke-opacity="1" stroke-miterlimit="4"/></g></g></g><g mask="url(#1e3ef2ec77)"><g transform="matrix(1, 0, 0, 1, 176, 101)"><g clip-path="url(#8cab440cee)"><path stroke-linecap="butt" transform="matrix(0.494591, -0.349245, 0.349245, 0.494591, -249.608624, 67.696522)" fill-opacity="1" fill="#7f7f7f" fill-rule="nonzero" stroke-linejoin="miter" d="M 448.201649 217.887617 C 431.817016 216.048222 414.854941 215.048953 398.7088 218.464235 C 350.610505 228.642237 349.640221 248.460139 369.441013 289.429294 C 385.57522 322.817873 418.98489 331.182166 452.663575 323.182341 C 468.188742 319.494428 478.814212 308.618872 483.821702 293.776301 C 489.103717 278.108747 493.122767 261.478296 492.222 245.014771 C 491.007455 222.966979 466.054937 219.895299 448.201649 217.887617 Z M 448.201649 217.887617 " stroke="#000000" stroke-width="1" stroke-opacity="1" stroke-miterlimit="4"/></g></g></g></svg>