<svg xmlns="http://www.w3.org/2000/svg" xmlns:xlink="http://www.w3.org/1999/xlink" width="260" zoomAndPan="magnify" viewBox="0 0 194.87999 55.5" height="74" preserveAspectRatio="xMidYMid meet" version="1.0"><defs><g/><clipPath id="db7eba168d"><path d="M 0.808594 7.925781 L 23 7.925781 L 23 31 L 0.808594 31 Z M 0.808594 7.925781 " clip-rule="nonzero"/></clipPath><clipPath id="52e76d511d"><path d="M 10 26 L 27 26 L 27 43.601562 L 10 43.601562 Z M 10 26 " clip-rule="nonzero"/></clipPath></defs><g clip-path="url(#db7eba168d)"><path fill="#634bf9" d="M 0.8125 19.179688 C 2.433594 19.199219 11.210938 19.859375 11.550781 30.40625 C 11.914062 19.859375 20.695312 19.199219 22.3125 19.179688 C 20.695312 19.136719 11.914062 18.476562 11.550781 7.925781 C 11.210938 18.476562 2.433594 19.136719 0.8125 19.179688 Z M 0.8125 19.179688 " fill-opacity="1" fill-rule="evenodd"/></g><path fill="#634bf9" d="M 19.949219 22.886719 C 20.863281 22.90625 25.785156 23.269531 25.980469 29.195312 C 26.171875 23.269531 31.09375 22.90625 31.988281 22.886719 C 31.09375 22.863281 26.171875 22.503906 25.980469 16.601562 C 25.785156 22.503906 20.863281 22.863281 19.949219 22.886719 Z M 19.949219 22.886719 " fill-opacity="1" fill-rule="evenodd"/><g clip-path="url(#52e76d511d)"><path fill="#634bf9" d="M 10.722656 34.96875 C 11.957031 34.988281 18.585938 35.480469 18.839844 43.449219 C 19.117188 35.480469 25.746094 34.988281 26.957031 34.96875 C 25.746094 34.925781 19.117188 34.433594 18.839844 26.464844 C 18.585938 34.433594 11.957031 34.925781 10.722656 34.96875 Z M 10.722656 34.96875 " fill-opacity="1" fill-rule="evenodd"/></g><g fill="#634bf9" fill-opacity="1"><g transform="translate(36.835694, 32.788405)"><g><path d="M 10.109375 -14.546875 L 10.109375 -10.65625 L 6.3125 -10.65625 C 6.09375 -10.65625 5.882812 -10.585938 5.6875 -10.453125 C 5.488281 -10.328125 5.390625 -10.164062 5.390625 -9.96875 C 5.390625 -9.644531 5.988281 -9.242188 7.1875 -8.765625 C 8.375 -8.285156 9.300781 -7.71875 9.96875 -7.0625 C 10.644531 -6.40625 10.984375 -5.578125 10.984375 -4.578125 C 10.984375 -3.054688 10.539062 -1.910156 9.65625 -1.140625 C 8.78125 -0.378906 7.597656 0 6.109375 0 L 0.625 0 L 0.625 -4.0625 L 5.296875 -4.0625 C 5.515625 -4.0625 5.695312 -4.117188 5.84375 -4.234375 C 6 -4.347656 6.078125 -4.515625 6.078125 -4.734375 C 6.078125 -4.984375 5.925781 -5.175781 5.625 -5.3125 C 5.320312 -5.457031 4.882812 -5.648438 4.3125 -5.890625 C 3.75 -6.128906 3.25 -6.378906 2.8125 -6.640625 C 2.375 -6.898438 2.003906 -7.203125 1.703125 -7.546875 C 1.398438 -7.898438 1.171875 -8.304688 1.015625 -8.765625 C 0.859375 -9.222656 0.78125 -9.769531 0.78125 -10.40625 C 0.78125 -11.050781 0.90625 -11.625 1.15625 -12.125 C 1.40625 -12.632812 1.742188 -13.066406 2.171875 -13.421875 C 2.597656 -13.785156 3.082031 -14.0625 3.625 -14.25 C 4.175781 -14.445312 4.753906 -14.546875 5.359375 -14.546875 Z M 10.109375 -14.546875 "/></g></g></g><g fill="#634bf9" fill-opacity="1"><g transform="translate(48.474689, 32.788405)"><g><path d="M 5.8125 -14.546875 L 5.8125 -6.046875 C 5.8125 -5.484375 5.9375 -5.007812 6.1875 -4.625 C 6.445312 -4.25 6.898438 -4.0625 7.546875 -4.0625 C 7.898438 -4.0625 8.179688 -4.117188 8.390625 -4.234375 C 8.597656 -4.359375 8.753906 -4.523438 8.859375 -4.734375 C 8.972656 -4.953125 9.050781 -5.1875 9.09375 -5.4375 C 9.132812 -5.6875 9.15625 -5.945312 9.15625 -6.21875 L 9.15625 -14.546875 L 13.765625 -14.546875 L 13.765625 -5.09375 C 13.765625 -3.8125 13.4375 -2.726562 12.78125 -1.84375 C 12.132812 -0.957031 11.1875 -0.300781 9.9375 0.125 L 9.9375 6.28125 L 5.140625 6.28125 L 5.140625 0.125 C 2.515625 -0.675781 1.203125 -2.414062 1.203125 -5.09375 L 1.203125 -14.546875 Z M 5.8125 -14.546875 "/></g></g></g><g fill="#634bf9" fill-opacity="1"><g transform="translate(63.434831, 32.788405)"><g><path d="M 13.734375 0 L 9.125 0 L 9.125 -8.40625 C 9.125 -8.96875 8.984375 -9.429688 8.703125 -9.796875 C 8.421875 -10.171875 8.015625 -10.359375 7.484375 -10.359375 C 6.941406 -10.359375 6.53125 -10.171875 6.25 -9.796875 C 5.96875 -9.429688 5.828125 -8.96875 5.828125 -8.40625 L 5.828125 0 L 1.234375 0 L 1.234375 -8.4375 C 1.234375 -9.375 1.367188 -10.234375 1.640625 -11.015625 C 1.921875 -11.804688 2.332031 -12.488281 2.875 -13.0625 C 3.414062 -13.644531 4.066406 -14.097656 4.828125 -14.421875 C 5.597656 -14.742188 6.484375 -14.90625 7.484375 -14.90625 C 8.472656 -14.90625 9.359375 -14.738281 10.140625 -14.40625 C 10.921875 -14.070312 11.570312 -13.617188 12.09375 -13.046875 C 12.625 -12.484375 13.03125 -11.800781 13.3125 -11 C 13.59375 -10.207031 13.734375 -9.351562 13.734375 -8.4375 Z M 13.734375 0 "/></g></g></g><g fill="#634bf9" fill-opacity="1"><g transform="translate(78.394973, 32.788405)"><g><path d="M 5.78125 -18.125 L 5.78125 -14.65625 L 9.15625 -14.65625 L 9.15625 -10.296875 L 5.75 -10.296875 L 5.75 -6.40625 C 5.75 -5.644531 5.910156 -5.113281 6.234375 -4.8125 C 6.566406 -4.519531 7.222656 -4.375 8.203125 -4.375 C 8.359375 -4.375 8.515625 -4.378906 8.671875 -4.390625 C 8.835938 -4.398438 9.019531 -4.410156 9.21875 -4.421875 L 9.21875 0 L 6.40625 0 C 5.582031 0 4.847656 -0.125 4.203125 -0.375 C 3.554688 -0.625 3.007812 -0.976562 2.5625 -1.4375 C 2.113281 -1.894531 1.765625 -2.441406 1.515625 -3.078125 C 1.265625 -3.722656 1.140625 -4.429688 1.140625 -5.203125 L 1.140625 -18.125 Z M 5.78125 -18.125 "/></g></g></g><g fill="#634bf9" fill-opacity="1"><g transform="translate(88.35843, 32.788405)"><g><path d="M 5.828125 -20.9375 L 5.828125 -14.125 C 6.273438 -14.34375 6.710938 -14.523438 7.140625 -14.671875 C 7.566406 -14.828125 8.0625 -14.90625 8.625 -14.90625 C 9.457031 -14.90625 10.203125 -14.753906 10.859375 -14.453125 C 11.515625 -14.148438 12.066406 -13.742188 12.515625 -13.234375 C 12.972656 -12.734375 13.316406 -12.144531 13.546875 -11.46875 C 13.785156 -10.800781 13.90625 -10.097656 13.90625 -9.359375 L 13.90625 0 L 9.125 0 L 9.125 -8.53125 C 9.125 -9.101562 8.96875 -9.539062 8.65625 -9.84375 C 8.351562 -10.144531 7.960938 -10.296875 7.484375 -10.296875 C 7.003906 -10.296875 6.609375 -10.144531 6.296875 -9.84375 C 5.984375 -9.539062 5.828125 -9.101562 5.828125 -8.53125 L 5.828125 0 L 1.046875 0 L 1.046875 -20.9375 Z M 5.828125 -20.9375 "/></g></g></g><g fill="#634bf9" fill-opacity="1"><g transform="translate(103.318572, 32.788405)"><g><path d="M 17.0625 0 L 12.265625 0 L 12.265625 -6.828125 C 12.265625 -8.023438 11.984375 -8.941406 11.421875 -9.578125 C 10.867188 -10.210938 10.023438 -10.53125 8.890625 -10.53125 C 8.453125 -10.53125 8.03125 -10.445312 7.625 -10.28125 C 7.226562 -10.113281 6.878906 -9.890625 6.578125 -9.609375 C 6.285156 -9.328125 6.046875 -8.988281 5.859375 -8.59375 C 5.679688 -8.207031 5.59375 -7.796875 5.59375 -7.359375 C 5.59375 -6.335938 5.894531 -5.523438 6.5 -4.921875 C 7.113281 -4.316406 7.878906 -4.015625 8.796875 -4.015625 C 9.234375 -4.015625 9.640625 -4.050781 10.015625 -4.125 C 10.398438 -4.207031 10.753906 -4.304688 11.078125 -4.421875 L 11.078125 -0.484375 C 10.617188 -0.160156 10.128906 0.0546875 9.609375 0.171875 C 9.085938 0.296875 8.5 0.359375 7.84375 0.359375 C 6.945312 0.359375 6.070312 0.175781 5.21875 -0.1875 C 4.375 -0.5625 3.625 -1.082031 2.96875 -1.75 C 2.320312 -2.414062 1.800781 -3.210938 1.40625 -4.140625 C 1.007812 -5.066406 0.8125 -6.097656 0.8125 -7.234375 C 0.8125 -8.316406 1.007812 -9.320312 1.40625 -10.25 C 1.800781 -11.175781 2.347656 -11.984375 3.046875 -12.671875 C 3.742188 -13.359375 4.582031 -13.898438 5.5625 -14.296875 C 6.539062 -14.703125 7.617188 -14.90625 8.796875 -14.90625 C 10.054688 -14.90625 11.191406 -14.726562 12.203125 -14.375 C 13.222656 -14.03125 14.09375 -13.546875 14.8125 -12.921875 C 15.53125 -12.304688 16.082031 -11.570312 16.46875 -10.71875 C 16.863281 -9.875 17.0625 -8.953125 17.0625 -7.953125 Z M 17.0625 0 "/></g></g></g><g fill="#634bf9" fill-opacity="1"><g transform="translate(121.599868, 32.788405)"><g><path d="M 12.5625 -20.9375 L 12.5625 -15.921875 L 8.40625 -15.921875 C 7.789062 -15.921875 7.347656 -15.789062 7.078125 -15.53125 C 6.804688 -15.269531 6.671875 -14.878906 6.671875 -14.359375 L 6.671875 -12.328125 L 12.5625 -12.328125 L 12.5625 -7.484375 L 6.671875 -7.484375 L 6.671875 0 L 1.46875 0 L 1.46875 -14.65625 C 1.46875 -15.539062 1.613281 -16.363281 1.90625 -17.125 C 2.207031 -17.894531 2.625 -18.5625 3.15625 -19.125 C 3.6875 -19.695312 4.320312 -20.140625 5.0625 -20.453125 C 5.8125 -20.773438 6.640625 -20.9375 7.546875 -20.9375 Z M 12.5625 -20.9375 "/></g></g></g><g fill="#634bf9" fill-opacity="1"><g transform="translate(134.884472, 32.788405)"><g><path d="M 6.546875 -20.9375 L 6.546875 0 L 1.765625 0 L 1.765625 -20.9375 Z M 6.546875 -20.9375 "/></g></g></g><g fill="#634bf9" fill-opacity="1"><g transform="translate(143.202312, 32.788405)"><g><path d="M 15.828125 -7.265625 C 15.828125 -6.253906 15.625 -5.285156 15.21875 -4.359375 C 14.820312 -3.441406 14.28125 -2.628906 13.59375 -1.921875 C 12.90625 -1.222656 12.109375 -0.664062 11.203125 -0.25 C 10.296875 0.15625 9.332031 0.359375 8.3125 0.359375 C 7.300781 0.359375 6.335938 0.15625 5.421875 -0.25 C 4.515625 -0.664062 3.71875 -1.222656 3.03125 -1.921875 C 2.34375 -2.628906 1.800781 -3.441406 1.40625 -4.359375 C 1.007812 -5.285156 0.8125 -6.253906 0.8125 -7.265625 C 0.8125 -8.285156 1.007812 -9.253906 1.40625 -10.171875 C 1.800781 -11.085938 2.34375 -11.894531 3.03125 -12.59375 C 3.71875 -13.289062 4.515625 -13.847656 5.421875 -14.265625 C 6.335938 -14.691406 7.300781 -14.90625 8.3125 -14.90625 C 9.351562 -14.90625 10.328125 -14.691406 11.234375 -14.265625 C 12.140625 -13.847656 12.929688 -13.285156 13.609375 -12.578125 C 14.285156 -11.867188 14.820312 -11.054688 15.21875 -10.140625 C 15.625 -9.222656 15.828125 -8.265625 15.828125 -7.265625 Z M 8.3125 -4.1875 C 8.738281 -4.1875 9.128906 -4.269531 9.484375 -4.4375 C 9.847656 -4.613281 10.15625 -4.84375 10.40625 -5.125 C 10.664062 -5.414062 10.863281 -5.742188 11 -6.109375 C 11.144531 -6.484375 11.21875 -6.867188 11.21875 -7.265625 C 11.21875 -7.671875 11.144531 -8.054688 11 -8.421875 C 10.863281 -8.785156 10.671875 -9.113281 10.421875 -9.40625 C 10.171875 -9.695312 9.863281 -9.925781 9.5 -10.09375 C 9.132812 -10.269531 8.726562 -10.359375 8.28125 -10.359375 C 7.863281 -10.359375 7.476562 -10.269531 7.125 -10.09375 C 6.78125 -9.925781 6.476562 -9.695312 6.21875 -9.40625 C 5.957031 -9.113281 5.757812 -8.785156 5.625 -8.421875 C 5.488281 -8.054688 5.421875 -7.671875 5.421875 -7.265625 C 5.421875 -6.867188 5.488281 -6.484375 5.625 -6.109375 C 5.757812 -5.742188 5.957031 -5.414062 6.21875 -5.125 C 6.476562 -4.84375 6.785156 -4.613281 7.140625 -4.4375 C 7.503906 -4.269531 7.894531 -4.1875 8.3125 -4.1875 Z M 8.3125 -4.1875 "/></g></g></g><g fill="#634bf9" fill-opacity="1"><g transform="translate(159.837992, 32.788405)"><g><path d="M 6.1875 -14.546875 L 6.1875 -5.859375 C 6.1875 -5.441406 6.296875 -5.066406 6.515625 -4.734375 C 6.742188 -4.410156 7.144531 -4.25 7.71875 -4.25 C 8.300781 -4.25 8.703125 -4.410156 8.921875 -4.734375 C 9.140625 -5.066406 9.25 -5.441406 9.25 -5.859375 L 9.25 -14.546875 L 14.03125 -14.546875 L 14.03125 -5.859375 C 14.03125 -5.441406 14.140625 -5.066406 14.359375 -4.734375 C 14.578125 -4.410156 14.976562 -4.25 15.5625 -4.25 C 16.132812 -4.25 16.53125 -4.410156 16.75 -4.734375 C 16.96875 -5.066406 17.078125 -5.441406 17.078125 -5.859375 L 17.078125 -14.546875 L 21.875 -14.546875 L 21.875 -5.0625 C 21.875 -4.320312 21.71875 -3.617188 21.40625 -2.953125 C 21.09375 -2.296875 20.664062 -1.722656 20.125 -1.234375 C 19.59375 -0.753906 18.953125 -0.367188 18.203125 -0.078125 C 17.453125 0.210938 16.640625 0.359375 15.765625 0.359375 C 15.003906 0.359375 14.253906 0.171875 13.515625 -0.203125 C 12.785156 -0.585938 12.160156 -1.078125 11.640625 -1.671875 C 11.117188 -1.078125 10.488281 -0.585938 9.75 -0.203125 C 9.007812 0.171875 8.265625 0.359375 7.515625 0.359375 C 6.628906 0.359375 5.8125 0.210938 5.0625 -0.078125 C 4.320312 -0.367188 3.679688 -0.753906 3.140625 -1.234375 C 2.597656 -1.722656 2.171875 -2.296875 1.859375 -2.953125 C 1.554688 -3.617188 1.40625 -4.320312 1.40625 -5.0625 L 1.40625 -14.546875 Z M 6.1875 -14.546875 "/></g></g></g></svg>