<svg xmlns="http://www.w3.org/2000/svg" xmlns:xlink="http://www.w3.org/1999/xlink" width="500" zoomAndPan="magnify" viewBox="0 0 375 374.999991" height="500" preserveAspectRatio="xMidYMid meet" version="1.0"><defs><g/><clipPath id="258f193d50"><path d="M 93.554688 168.074219 L 116 168.074219 L 116 191 L 93.554688 191 Z M 93.554688 168.074219 " clip-rule="nonzero"/></clipPath><clipPath id="5c508f33bc"><path d="M 112 176 L 125.054688 176 L 125.054688 190 L 112 190 Z M 112 176 " clip-rule="nonzero"/></clipPath></defs><g clip-path="url(#258f193d50)"><path fill="#f8f8ff" d="M 93.554688 179.429688 C 95.191406 179.449219 104.046875 180.117188 104.390625 190.757812 C 104.757812 180.117188 113.617188 179.449219 115.25 179.429688 C 113.617188 179.386719 104.757812 178.71875 104.390625 168.074219 C 104.046875 178.71875 95.191406 179.386719 93.554688 179.429688 Z M 93.554688 179.429688 " fill-opacity="1" fill-rule="evenodd"/></g><g clip-path="url(#5c508f33bc)"><path fill="#f8f8ff" d="M 112.863281 183.167969 C 113.789062 183.191406 118.753906 183.554688 118.949219 189.535156 C 119.140625 183.554688 124.109375 183.191406 125.011719 183.167969 C 124.109375 183.148438 119.140625 182.78125 118.949219 176.828125 C 118.753906 182.78125 113.789062 183.148438 112.863281 183.167969 Z M 112.863281 183.167969 " fill-opacity="1" fill-rule="evenodd"/></g><path fill="#f8f8ff" d="M 103.554688 195.359375 C 104.800781 195.382812 111.488281 195.875 111.746094 203.917969 C 112.023438 195.875 118.710938 195.382812 119.9375 195.359375 C 118.710938 195.316406 112.023438 194.824219 111.746094 186.78125 C 111.488281 194.824219 104.800781 195.316406 103.554688 195.359375 Z M 103.554688 195.359375 " fill-opacity="1" fill-rule="evenodd"/><g fill="#f8f8ff" fill-opacity="1"><g transform="translate(129.903317, 193.161142)"><g><path d="M 10.203125 -14.671875 L 10.203125 -10.75 L 6.375 -10.75 C 6.144531 -10.75 5.929688 -10.679688 5.734375 -10.546875 C 5.535156 -10.421875 5.4375 -10.253906 5.4375 -10.046875 C 5.4375 -9.722656 6.039062 -9.320312 7.25 -8.84375 C 8.457031 -8.363281 9.394531 -7.789062 10.0625 -7.125 C 10.738281 -6.457031 11.078125 -5.625 11.078125 -4.625 C 11.078125 -3.09375 10.632812 -1.9375 9.75 -1.15625 C 8.863281 -0.382812 7.664062 0 6.15625 0 L 0.640625 0 L 0.640625 -4.109375 L 5.34375 -4.109375 C 5.5625 -4.109375 5.742188 -4.160156 5.890625 -4.265625 C 6.046875 -4.378906 6.125 -4.546875 6.125 -4.765625 C 6.125 -5.023438 5.972656 -5.222656 5.671875 -5.359375 C 5.367188 -5.503906 4.925781 -5.703125 4.34375 -5.953125 C 3.78125 -6.191406 3.273438 -6.441406 2.828125 -6.703125 C 2.390625 -6.960938 2.019531 -7.269531 1.71875 -7.625 C 1.414062 -7.976562 1.179688 -8.382812 1.015625 -8.84375 C 0.859375 -9.3125 0.78125 -9.863281 0.78125 -10.5 C 0.78125 -11.144531 0.90625 -11.722656 1.15625 -12.234375 C 1.414062 -12.753906 1.757812 -13.191406 2.1875 -13.546875 C 2.625 -13.910156 3.117188 -14.1875 3.671875 -14.375 C 4.222656 -14.570312 4.800781 -14.671875 5.40625 -14.671875 Z M 10.203125 -14.671875 "/></g></g></g><g fill="#f8f8ff" fill-opacity="1"><g transform="translate(141.647167, 193.161142)"><g><path d="M 5.859375 -14.671875 L 5.859375 -6.09375 C 5.859375 -5.53125 5.988281 -5.054688 6.25 -4.671875 C 6.507812 -4.296875 6.960938 -4.109375 7.609375 -4.109375 C 7.972656 -4.109375 8.257812 -4.164062 8.46875 -4.28125 C 8.675781 -4.40625 8.832031 -4.570312 8.9375 -4.78125 C 9.050781 -5 9.128906 -5.234375 9.171875 -5.484375 C 9.210938 -5.734375 9.234375 -6 9.234375 -6.28125 L 9.234375 -14.671875 L 13.890625 -14.671875 L 13.890625 -5.125 C 13.890625 -3.84375 13.5625 -2.753906 12.90625 -1.859375 C 12.25 -0.960938 11.285156 -0.300781 10.015625 0.125 L 10.015625 6.34375 L 5.1875 6.34375 L 5.1875 0.125 C 2.53125 -0.6875 1.203125 -2.4375 1.203125 -5.125 L 1.203125 -14.671875 Z M 5.859375 -14.671875 "/></g></g></g><g fill="#f8f8ff" fill-opacity="1"><g transform="translate(156.742085, 193.161142)"><g><path d="M 13.859375 0 L 9.203125 0 L 9.203125 -8.484375 C 9.203125 -9.046875 9.0625 -9.507812 8.78125 -9.875 C 8.5 -10.25 8.085938 -10.4375 7.546875 -10.4375 C 7.003906 -10.4375 6.59375 -10.25 6.3125 -9.875 C 6.03125 -9.507812 5.890625 -9.046875 5.890625 -8.484375 L 5.890625 0 L 1.234375 0 L 1.234375 -8.515625 C 1.234375 -9.460938 1.375 -10.332031 1.65625 -11.125 C 1.9375 -11.914062 2.347656 -12.601562 2.890625 -13.1875 C 3.441406 -13.769531 4.101562 -14.222656 4.875 -14.546875 C 5.644531 -14.867188 6.535156 -15.03125 7.546875 -15.03125 C 8.554688 -15.03125 9.453125 -14.863281 10.234375 -14.53125 C 11.015625 -14.195312 11.671875 -13.742188 12.203125 -13.171875 C 12.742188 -12.597656 13.15625 -11.910156 13.4375 -11.109375 C 13.71875 -10.304688 13.859375 -9.441406 13.859375 -8.515625 Z M 13.859375 0 "/></g></g></g><g fill="#f8f8ff" fill-opacity="1"><g transform="translate(171.837003, 193.161142)"><g><path d="M 5.828125 -18.296875 L 5.828125 -14.796875 L 9.234375 -14.796875 L 9.234375 -10.390625 L 5.796875 -10.390625 L 5.796875 -6.453125 C 5.796875 -5.691406 5.960938 -5.160156 6.296875 -4.859375 C 6.628906 -4.554688 7.285156 -4.40625 8.265625 -4.40625 C 8.429688 -4.40625 8.59375 -4.410156 8.75 -4.421875 C 8.914062 -4.429688 9.097656 -4.445312 9.296875 -4.46875 L 9.296875 0 L 6.453125 0 C 5.628906 0 4.890625 -0.125 4.234375 -0.375 C 3.585938 -0.625 3.035156 -0.976562 2.578125 -1.4375 C 2.128906 -1.90625 1.773438 -2.460938 1.515625 -3.109375 C 1.265625 -3.753906 1.140625 -4.46875 1.140625 -5.25 L 1.140625 -18.296875 Z M 5.828125 -18.296875 "/></g></g></g><g fill="#f8f8ff" fill-opacity="1"><g transform="translate(181.89022, 193.161142)"><g><path d="M 5.890625 -21.125 L 5.890625 -14.25 C 6.328125 -14.46875 6.757812 -14.648438 7.1875 -14.796875 C 7.625 -14.953125 8.125 -15.03125 8.6875 -15.03125 C 9.539062 -15.03125 10.296875 -14.878906 10.953125 -14.578125 C 11.617188 -14.273438 12.175781 -13.867188 12.625 -13.359375 C 13.082031 -12.847656 13.429688 -12.253906 13.671875 -11.578125 C 13.910156 -10.898438 14.03125 -10.191406 14.03125 -9.453125 L 14.03125 0 L 9.203125 0 L 9.203125 -8.609375 C 9.203125 -9.191406 9.046875 -9.632812 8.734375 -9.9375 C 8.421875 -10.238281 8.023438 -10.390625 7.546875 -10.390625 C 7.066406 -10.390625 6.671875 -10.238281 6.359375 -9.9375 C 6.046875 -9.632812 5.890625 -9.191406 5.890625 -8.609375 L 5.890625 0 L 1.0625 0 L 1.0625 -21.125 Z M 5.890625 -21.125 "/></g></g></g><g fill="#f8f8ff" fill-opacity="1"><g transform="translate(196.985138, 193.161142)"><g><path d="M 17.203125 0 L 12.375 0 L 12.375 -6.875 C 12.375 -8.082031 12.09375 -9.007812 11.53125 -9.65625 C 10.96875 -10.300781 10.113281 -10.625 8.96875 -10.625 C 8.519531 -10.625 8.09375 -10.535156 7.6875 -10.359375 C 7.289062 -10.191406 6.941406 -9.96875 6.640625 -9.6875 C 6.335938 -9.40625 6.09375 -9.066406 5.90625 -8.671875 C 5.726562 -8.285156 5.640625 -7.867188 5.640625 -7.421875 C 5.640625 -6.398438 5.945312 -5.582031 6.5625 -4.96875 C 7.175781 -4.351562 7.945312 -4.046875 8.875 -4.046875 C 9.320312 -4.046875 9.734375 -4.082031 10.109375 -4.15625 C 10.492188 -4.238281 10.847656 -4.34375 11.171875 -4.46875 L 11.171875 -0.484375 C 10.703125 -0.160156 10.207031 0.0546875 9.6875 0.171875 C 9.164062 0.296875 8.570312 0.359375 7.90625 0.359375 C 7 0.359375 6.117188 0.175781 5.265625 -0.1875 C 4.410156 -0.5625 3.65625 -1.085938 3 -1.765625 C 2.34375 -2.441406 1.8125 -3.242188 1.40625 -4.171875 C 1.007812 -5.109375 0.8125 -6.15625 0.8125 -7.3125 C 0.8125 -8.394531 1.007812 -9.40625 1.40625 -10.34375 C 1.8125 -11.28125 2.367188 -12.09375 3.078125 -12.78125 C 3.785156 -13.476562 4.628906 -14.023438 5.609375 -14.421875 C 6.597656 -14.828125 7.6875 -15.03125 8.875 -15.03125 C 10.144531 -15.03125 11.289062 -14.851562 12.3125 -14.5 C 13.34375 -14.15625 14.21875 -13.671875 14.9375 -13.046875 C 15.664062 -12.421875 16.222656 -11.679688 16.609375 -10.828125 C 17.003906 -9.972656 17.203125 -9.039062 17.203125 -8.03125 Z M 17.203125 0 "/></g></g></g><g fill="#f8f8ff" fill-opacity="1"><g transform="translate(215.431131, 193.161142)"><g><path d="M 12.671875 -21.125 L 12.671875 -16.0625 L 8.484375 -16.0625 C 7.859375 -16.0625 7.410156 -15.929688 7.140625 -15.671875 C 6.867188 -15.410156 6.734375 -15.015625 6.734375 -14.484375 L 6.734375 -12.4375 L 12.671875 -12.4375 L 12.671875 -7.546875 L 6.734375 -7.546875 L 6.734375 0 L 1.484375 0 L 1.484375 -14.796875 C 1.484375 -15.679688 1.632812 -16.507812 1.9375 -17.28125 C 2.238281 -18.050781 2.65625 -18.722656 3.1875 -19.296875 C 3.71875 -19.878906 4.359375 -20.328125 5.109375 -20.640625 C 5.867188 -20.960938 6.703125 -21.125 7.609375 -21.125 Z M 12.671875 -21.125 "/></g></g></g><g fill="#f8f8ff" fill-opacity="1"><g transform="translate(228.835415, 193.161142)"><g><path d="M 6.609375 -21.125 L 6.609375 0 L 1.78125 0 L 1.78125 -21.125 Z M 6.609375 -21.125 "/></g></g></g><g fill="#f8f8ff" fill-opacity="1"><g transform="translate(237.22819, 193.161142)"><g><path d="M 15.96875 -7.328125 C 15.96875 -6.304688 15.765625 -5.332031 15.359375 -4.40625 C 14.960938 -3.476562 14.414062 -2.65625 13.71875 -1.9375 C 13.019531 -1.226562 12.210938 -0.664062 11.296875 -0.25 C 10.390625 0.15625 9.421875 0.359375 8.390625 0.359375 C 7.367188 0.359375 6.398438 0.15625 5.484375 -0.25 C 4.566406 -0.664062 3.757812 -1.226562 3.0625 -1.9375 C 2.363281 -2.65625 1.8125 -3.476562 1.40625 -4.40625 C 1.007812 -5.332031 0.8125 -6.304688 0.8125 -7.328125 C 0.8125 -8.359375 1.007812 -9.335938 1.40625 -10.265625 C 1.8125 -11.191406 2.363281 -12.003906 3.0625 -12.703125 C 3.757812 -13.410156 4.566406 -13.972656 5.484375 -14.390625 C 6.398438 -14.816406 7.367188 -15.03125 8.390625 -15.03125 C 9.441406 -15.03125 10.421875 -14.816406 11.328125 -14.390625 C 12.242188 -13.972656 13.046875 -13.40625 13.734375 -12.6875 C 14.421875 -11.976562 14.960938 -11.160156 15.359375 -10.234375 C 15.765625 -9.304688 15.96875 -8.335938 15.96875 -7.328125 Z M 8.390625 -4.21875 C 8.816406 -4.21875 9.207031 -4.300781 9.5625 -4.46875 C 9.925781 -4.644531 10.238281 -4.878906 10.5 -5.171875 C 10.757812 -5.460938 10.960938 -5.796875 11.109375 -6.171875 C 11.253906 -6.546875 11.328125 -6.929688 11.328125 -7.328125 C 11.328125 -7.734375 11.253906 -8.125 11.109375 -8.5 C 10.960938 -8.875 10.765625 -9.207031 10.515625 -9.5 C 10.265625 -9.789062 9.953125 -10.019531 9.578125 -10.1875 C 9.210938 -10.351562 8.804688 -10.4375 8.359375 -10.4375 C 7.941406 -10.4375 7.554688 -10.351562 7.203125 -10.1875 C 6.847656 -10.019531 6.539062 -9.789062 6.28125 -9.5 C 6.019531 -9.207031 5.816406 -8.875 5.671875 -8.5 C 5.535156 -8.125 5.46875 -7.734375 5.46875 -7.328125 C 5.46875 -6.929688 5.535156 -6.546875 5.671875 -6.171875 C 5.816406 -5.796875 6.019531 -5.460938 6.28125 -5.171875 C 6.539062 -4.878906 6.851562 -4.644531 7.21875 -4.46875 C 7.582031 -4.300781 7.972656 -4.21875 8.390625 -4.21875 Z M 8.390625 -4.21875 "/></g></g></g><g fill="#f8f8ff" fill-opacity="1"><g transform="translate(254.013741, 193.161142)"><g><path d="M 6.25 -14.671875 L 6.25 -5.921875 C 6.25 -5.492188 6.359375 -5.113281 6.578125 -4.78125 C 6.796875 -4.445312 7.195312 -4.28125 7.78125 -4.28125 C 8.363281 -4.28125 8.765625 -4.445312 8.984375 -4.78125 C 9.210938 -5.113281 9.328125 -5.492188 9.328125 -5.921875 L 9.328125 -14.671875 L 14.15625 -14.671875 L 14.15625 -5.921875 C 14.15625 -5.492188 14.265625 -5.113281 14.484375 -4.78125 C 14.710938 -4.445312 15.117188 -4.28125 15.703125 -4.28125 C 16.285156 -4.28125 16.6875 -4.445312 16.90625 -4.78125 C 17.125 -5.113281 17.234375 -5.492188 17.234375 -5.921875 L 17.234375 -14.671875 L 22.0625 -14.671875 L 22.0625 -5.109375 C 22.0625 -4.359375 21.90625 -3.648438 21.59375 -2.984375 C 21.28125 -2.328125 20.851562 -1.75 20.3125 -1.25 C 19.769531 -0.757812 19.117188 -0.367188 18.359375 -0.078125 C 17.609375 0.210938 16.789062 0.359375 15.90625 0.359375 C 15.144531 0.359375 14.390625 0.171875 13.640625 -0.203125 C 12.898438 -0.585938 12.269531 -1.082031 11.75 -1.6875 C 11.21875 -1.082031 10.578125 -0.585938 9.828125 -0.203125 C 9.085938 0.171875 8.335938 0.359375 7.578125 0.359375 C 6.691406 0.359375 5.867188 0.210938 5.109375 -0.078125 C 4.359375 -0.367188 3.710938 -0.757812 3.171875 -1.25 C 2.628906 -1.75 2.203125 -2.328125 1.890625 -2.984375 C 1.578125 -3.648438 1.421875 -4.359375 1.421875 -5.109375 L 1.421875 -14.671875 Z M 6.25 -14.671875 "/></g></g></g></svg>